<?xml version="1.0" encoding="UTF-8"?>
<!DOCTYPE svg PUBLIC "-//W3C//DTD SVG 1.1//EN" "http://www.w3.org/Graphics/SVG/1.1/DTD/svg11.dtd">
<svg xmlns="http://www.w3.org/2000/svg" version="1.1" width="600px" height="200px" style="shape-rendering:geometricPrecision; text-rendering:geometricPrecision; image-rendering:optimizeQuality; fill-rule:evenodd; clip-rule:evenodd" xmlns:xlink="http://www.w3.org/1999/xlink">
<g><path style="opacity:0.906" fill="#fcfafa" d="M 549.5,22.5 C 556.881,22.3143 564.214,22.8143 571.5,24C 573.286,24.7845 574.786,25.9512 576,27.5C 579.127,32.419 581.127,37.7523 582,43.5C 584.292,44.7899 586.292,46.4565 588,48.5C 591.799,55.0637 593.466,62.0637 593,69.5C 591.647,70.6853 590.48,72.0186 589.5,73.5C 593.312,80.7548 595.146,88.4215 595,96.5C 593.457,98.3783 591.624,99.8783 589.5,101C 570.135,109.065 550.468,116.232 530.5,122.5C 526.442,122.554 523.276,120.888 521,117.5C 517.448,108.681 514.615,99.6808 512.5,90.5C 504.366,92.9857 496.2,95.319 488,97.5C 483.679,97.5171 480.679,95.5171 479,91.5C 476.215,84.0406 474.882,76.3739 475,68.5C 475.785,66.714 476.951,65.214 478.5,64C 483.95,61.853 489.284,59.5196 494.5,57C 490.031,50.3094 488.531,43.1428 490,35.5C 491.214,33.9512 492.714,32.7845 494.5,32C 512.639,26.8665 530.973,23.6998 549.5,22.5 Z"/></g>
<g><path style="opacity:1" fill="#0b448b" d="M 533.5,28.5 C 545.505,28.3335 557.505,28.5001 569.5,29C 571.815,30.1094 573.315,31.9427 574,34.5C 575.608,37.3513 576.274,40.3513 576,43.5C 564.879,44.2001 553.712,45.0334 542.5,46C 527.867,48.2586 513.534,51.2586 499.5,55C 497.309,50.0966 495.309,45.0966 493.5,40C 493.645,39.228 493.978,38.5613 494.5,38C 507.33,33.7084 520.33,30.5418 533.5,28.5 Z"/></g>
<g><path style="opacity:1" fill="#fdd60c" d="M 560.5,48.5 C 567.508,48.3337 574.508,48.5004 581.5,49C 584.42,53.0674 586.586,57.5674 588,62.5C 588.798,64.2588 588.631,65.9255 587.5,67.5C 554.71,72.5309 522.71,80.6976 491.5,92C 488.653,92.9439 486.153,92.4439 484,90.5C 482.186,84.5783 480.686,78.5783 479.5,72.5C 479.39,70.626 480.056,69.126 481.5,68C 507.059,57.8599 533.392,51.3599 560.5,48.5 Z"/></g>
<g><path style="opacity:1" fill="#dd0821" d="M 578.5,72.5 C 581.325,72.0807 583.491,73.0807 585,75.5C 586.864,80.0907 588.53,84.7574 590,89.5C 590.743,91.4406 590.576,93.2739 589.5,95C 570.611,102.611 551.611,109.944 532.5,117C 529.975,117.896 527.808,117.396 526,115.5C 523.066,107.532 520.233,99.5323 517.5,91.5C 517.876,89.6171 518.876,88.1171 520.5,87C 539.857,81.7019 559.19,76.8685 578.5,72.5 Z"/></g>
<g><path style="opacity:0.943" fill="#004189" d="M 462.5,87.5 C 464.167,87.5 465.833,87.5 467.5,87.5C 467.5,109.5 467.5,131.5 467.5,153.5C 463.5,153.5 459.5,153.5 455.5,153.5C 455.5,132.167 455.5,110.833 455.5,89.5C 458.067,89.2785 460.401,88.6118 462.5,87.5 Z"/></g>
<g><path style="opacity:0.839" fill="#014189" d="M 360.5,92.5 C 364.846,92.3343 369.179,92.501 373.5,93C 370.885,97.2829 367.885,101.283 364.5,105C 361.5,105.667 358.5,105.667 355.5,105C 357.586,100.996 359.252,96.8295 360.5,92.5 Z"/></g>
<g><path style="opacity:0.947" fill="#004189" d="M 234.5,93.5 C 240.206,93.1712 245.872,93.5046 251.5,94.5C 257.793,114.341 263.46,134.341 268.5,154.5C 264.167,154.5 259.833,154.5 255.5,154.5C 254.671,149.514 253.337,144.681 251.5,140C 245.843,139.501 240.176,139.334 234.5,139.5C 233.659,144.532 232.659,149.532 231.5,154.5C 227.167,154.5 222.833,154.5 218.5,154.5C 223.364,134.044 228.697,113.711 234.5,93.5 Z M 242.5,107.5 C 245.566,114.082 247.566,121.082 248.5,128.5C 244.704,128.782 241.037,128.782 237.5,128.5C 239.641,121.604 241.307,114.604 242.5,107.5 Z"/></g>
<g><path style="opacity:0.948" fill="#004189" d="M 4.5,94.5 C 13.5062,94.3336 22.5062,94.5002 31.5,95C 42.9496,97.4 47.1163,104.233 44,115.5C 42.1667,118.667 39.6667,121.167 36.5,123C 42.9819,125.26 46.3153,129.927 46.5,137C 46.042,145.131 42.042,150.797 34.5,154C 24.5657,155.395 14.5657,155.895 4.5,155.5C 4.5,135.167 4.5,114.833 4.5,94.5 Z M 16.5,104.5 C 20.9362,104.21 25.2695,104.71 29.5,106C 33.601,110.294 33.2676,114.294 28.5,118C 24.6372,119.354 20.6372,119.854 16.5,119.5C 16.5,114.5 16.5,109.5 16.5,104.5 Z M 17.5,129.5 C 22.7344,128.835 27.5678,129.835 32,132.5C 34.7589,139.148 32.5923,143.314 25.5,145C 22.854,145.497 20.1873,145.664 17.5,145.5C 17.5,140.167 17.5,134.833 17.5,129.5 Z"/></g>
<g><path style="opacity:0.945" fill="#004189" d="M 486.5,104.5 C 491.215,104.506 495.882,105.006 500.5,106C 505.099,107.598 507.932,110.765 509,115.5C 509.232,126.853 509.732,138.186 510.5,149.5C 510.291,150.994 509.624,152.161 508.5,153C 505.183,153.498 501.85,153.665 498.5,153.5C 498.662,151.473 498.495,149.473 498,147.5C 492.288,153.509 485.455,155.342 477.5,153C 473.017,150.544 470.684,146.711 470.5,141.5C 471.008,134.63 474.342,129.797 480.5,127C 486.073,125.262 491.74,123.929 497.5,123C 496.751,121.266 496.251,119.433 496,117.5C 491.729,115.504 487.229,115.004 482.5,116C 479.904,117.136 477.237,117.969 474.5,118.5C 473.921,114.762 473.921,111.096 474.5,107.5C 478.582,106.311 482.582,105.311 486.5,104.5 Z M 491.5,132.5 C 493.604,132.201 495.604,132.534 497.5,133.5C 496.158,140.368 492.158,143.535 485.5,143C 483.604,141.192 483.104,139.025 484,136.5C 486.255,134.501 488.755,133.168 491.5,132.5 Z"/></g>
<g><path style="opacity:0.947" fill="#004189" d="M 307.5,105.5 C 309.833,105.5 312.167,105.5 314.5,105.5C 314.82,108.898 314.487,112.232 313.5,115.5C 311.929,114.691 310.262,114.357 308.5,114.5C 312.684,125.118 309.684,132.951 299.5,138C 294.896,139.061 290.229,139.727 285.5,140C 284.448,141.716 285.114,142.716 287.5,143C 293.833,143.333 300.167,143.667 306.5,144C 315.504,146.824 318.004,152.657 314,161.5C 307.586,167.526 299.92,170.193 291,169.5C 286.031,169.439 281.197,168.606 276.5,167C 270.648,161.999 269.981,156.332 274.5,150C 271.358,144.362 272.358,139.529 277.5,135.5C 270.512,126.617 270.845,118.117 278.5,110C 285.936,106.057 293.603,105.557 301.5,108.5C 303.836,107.999 305.836,106.999 307.5,105.5 Z M 288.5,115.5 C 295.745,114.963 298.578,118.296 297,125.5C 293.814,131.717 290.147,132.05 286,126.5C 284.946,122.345 285.78,118.678 288.5,115.5 Z M 283.5,154.5 C 290.84,154.723 298.173,155.056 305.5,155.5C 305.64,157.124 304.973,158.29 303.5,159C 297.167,161 290.833,161 284.5,159C 282.452,157.774 282.119,156.274 283.5,154.5 Z"/></g>
<g><path style="opacity:0.944" fill="#004189" d="M 341.5,105.5 C 343.833,105.5 346.167,105.5 348.5,105.5C 348.827,110.214 348.493,114.88 347.5,119.5C 341.872,118.556 337.372,120.556 334,125.5C 332.583,134.752 332.083,144.085 332.5,153.5C 328.167,153.5 323.833,153.5 319.5,153.5C 319.5,138.5 319.5,123.5 319.5,108.5C 323.167,107.833 326.833,107.167 330.5,106.5C 330.338,108.527 330.505,110.527 331,112.5C 333.998,109.262 337.498,106.929 341.5,105.5 Z"/></g>
<g><path style="opacity:0.945" fill="#004189" d="M 388.5,105.5 C 393.88,105.324 399.213,105.658 404.5,106.5C 404.142,110.509 403.642,114.509 403,118.5C 391.367,113.889 385.201,117.723 384.5,130C 383.923,137.749 387.423,142.249 395,143.5C 397.791,142.594 400.624,141.927 403.5,141.5C 404.586,145.178 404.586,148.845 403.5,152.5C 383.729,158.799 372.729,151.799 370.5,131.5C 370.141,118.163 376.141,109.496 388.5,105.5 Z"/></g>
<g><path style="opacity:0.955" fill="#004089" d="M 422.5,105.5 C 445.085,102.92 454.585,112.92 451,135.5C 446.065,151.056 435.565,156.889 419.5,153C 412.138,150.458 407.972,145.292 407,137.5C 404.104,122.59 409.271,111.923 422.5,105.5 Z M 425.5,116.5 C 431.991,114.845 436.158,117.178 438,123.5C 439.745,130.564 438.245,136.731 433.5,142C 426.378,144.567 421.878,142.067 420,134.5C 418.15,127.224 419.984,121.224 425.5,116.5 Z"/></g>
<g><path style="opacity:0.929" fill="#004188" d="M 115.5,106.5 C 123.03,105.393 128.53,108.06 132,114.5C 133.403,127.782 133.903,141.115 133.5,154.5C 129.167,154.5 124.833,154.5 120.5,154.5C 120.667,143.495 120.5,132.495 120,121.5C 119.266,119.264 117.766,117.931 115.5,117.5C 110.468,119.032 107.302,122.366 106,127.5C 105.5,136.827 105.334,146.161 105.5,155.5C 101.167,155.5 96.8333,155.5 92.5,155.5C 92.3334,140.496 92.5001,125.496 93,110.5C 96.6676,108.932 100.501,107.932 104.5,107.5C 104.338,109.527 104.505,111.527 105,113.5C 107.701,109.748 111.201,107.415 115.5,106.5 Z"/></g>
<g><path style="opacity:0.943" fill="#004189" d="M 156.5,106.5 C 161.193,106.54 165.859,106.873 170.5,107.5C 170.299,111.574 169.632,115.574 168.5,119.5C 157.111,115.07 151.111,118.903 150.5,131C 151.027,143.107 157.027,146.94 168.5,142.5C 170.39,145.952 170.89,149.618 170,153.5C 144.081,159.251 133.414,148.917 138,122.5C 140.98,113.346 147.146,108.013 156.5,106.5 Z"/></g>
<g><path style="opacity:0.946" fill="#004189" d="M 189.5,106.5 C 207.608,104.119 216.941,111.952 217.5,130C 215.819,150.67 204.819,158.67 184.5,154C 175.633,149.454 171.633,142.12 172.5,132C 172.342,119.45 178.009,110.95 189.5,106.5 Z M 192.5,117.5 C 198.308,116.652 202.142,118.985 204,124.5C 204.826,129.589 204.492,134.589 203,139.5C 198.353,145.632 193.353,145.965 188,140.5C 183.576,131.471 185.076,123.804 192.5,117.5 Z"/></g>
<g><path style="opacity:0.943" fill="#004189" d="M 353.5,106.5 C 358.167,106.5 362.833,106.5 367.5,106.5C 367.5,122.167 367.5,137.833 367.5,153.5C 363.167,153.5 358.833,153.5 354.5,153.5C 353.844,137.842 353.511,122.175 353.5,106.5 Z"/></g>
<g><path style="opacity:0.947" fill="#004189" d="M 58.5,107.5 C 64.5092,107.334 70.5092,107.501 76.5,108C 84.3099,110.158 87.8099,115.324 87,123.5C 87.4998,134.161 87.6665,144.828 87.5,155.5C 83.5,155.5 79.5,155.5 75.5,155.5C 75.6602,153.801 75.4935,152.134 75,150.5C 67.4813,157.576 59.4813,158.243 51,152.5C 45.5238,138.295 50.3571,129.795 65.5,127C 68.4816,126.502 71.4816,126.335 74.5,126.5C 75.1546,122.645 73.8212,119.812 70.5,118C 67.1667,117.333 63.8333,117.333 60.5,118C 57.5682,119.145 54.5682,119.978 51.5,120.5C 51.5,116.833 51.5,113.167 51.5,109.5C 54.0673,109.279 56.4006,108.612 58.5,107.5 Z M 72.5,134.5 C 73.5862,134.62 74.2528,135.287 74.5,136.5C 73.202,143.499 69.202,146.499 62.5,145.5C 59.6647,142.329 59.9981,139.496 63.5,137C 66.6282,136.159 69.6282,135.325 72.5,134.5 Z"/></g>
</svg>
