<?xml version="1.0" encoding="UTF-8"?>
<!DOCTYPE svg PUBLIC "-//W3C//DTD SVG 1.1//EN" "http://www.w3.org/Graphics/SVG/1.1/DTD/svg11.dtd">
<svg xmlns="http://www.w3.org/2000/svg" version="1.1" width="360px" height="160px" style="shape-rendering:geometricPrecision; text-rendering:geometricPrecision; image-rendering:optimizeQuality; fill-rule:evenodd; clip-rule:evenodd" xmlns:xlink="http://www.w3.org/1999/xlink">
<g><path style="opacity:0.986" fill="#065298" d="M -0.5,22.5 C 119.5,22.5 239.5,22.5 359.5,22.5C 359.5,59.8333 359.5,97.1667 359.5,134.5C 239.5,134.5 119.5,134.5 -0.5,134.5C -0.5,97.1667 -0.5,59.8333 -0.5,22.5 Z"/></g>
<g><path style="opacity:1" fill="#f0f5f7" d="M 216.5,73.5 C 210.528,74.4739 204.528,74.6406 198.5,74C 194.168,71.5112 191.168,68.0112 189.5,63.5C 188.252,55.9345 190.586,49.7679 196.5,45C 203.385,43.5753 210.385,43.0753 217.5,43.5C 217.5,45.5 217.5,47.5 217.5,49.5C 202.944,44.5716 196.777,49.5716 199,64.5C 200.937,68.3861 204.103,70.0528 208.5,69.5C 211.517,69.2317 214.517,68.8984 217.5,68.5C 217.784,70.4147 217.451,72.0813 216.5,73.5 Z"/></g>
<g><path style="opacity:1" fill="#7b7730" d="M 30.5,43.5 C 30.1693,65.673 30.5026,87.673 31.5,109.5C 31.5,109.833 31.5,110.167 31.5,110.5C 30.1678,99.6872 29.5011,88.5206 29.5,77C 29.5001,65.6616 29.8335,54.4949 30.5,43.5 Z"/></g>
<g><path style="opacity:1" fill="#cebb41" d="M 30.5,43.5 C 48.8333,43.5 67.1667,43.5 85.5,43.5C 89.1667,43.5 92.8333,43.5 96.5,43.5C 96.5,44.1667 96.5,44.8333 96.5,45.5C 74.9087,44.5116 53.242,44.1783 31.5,44.5C 31.5,66.1667 31.5,87.8333 31.5,109.5C 30.5026,87.673 30.1693,65.673 30.5,43.5 Z"/></g>
<g><path style="opacity:1" fill="#f1f5f8" d="M 227.5,43.5 C 245.12,40.621 252.62,47.9543 250,65.5C 248.247,70.5182 244.747,73.3515 239.5,74C 223.323,75.8372 216.49,68.6705 219,52.5C 220.688,48.3148 223.521,45.3148 227.5,43.5 Z"/></g>
<g><path style="opacity:1" fill="#12549a" d="M 230.5,48.5 C 236.302,47.0056 240.136,49.0056 242,54.5C 243.942,60.8897 242.109,65.7231 236.5,69C 231.579,70.1244 228.412,68.2911 227,63.5C 225.676,57.8543 226.843,52.8543 230.5,48.5 Z"/></g>
<g><path style="opacity:1" fill="#155696" d="M 105.5,72.5 C 107.915,73.8142 110.748,74.4809 114,74.5C 117.021,74.4978 119.854,74.1644 122.5,73.5C 127.713,72.0768 129.546,68.7434 128,63.5C 126.039,60.8647 123.539,59.0314 120.5,58C 126.722,55.5537 128.389,51.5537 125.5,46C 124.255,45.2086 122.922,44.7086 121.5,44.5C 121.5,44.1667 121.5,43.8333 121.5,43.5C 124.448,43.7771 127.281,43.4438 130,42.5C 131.967,43.7312 131.801,44.7312 129.5,45.5C 128.353,47.7649 128.186,50.0982 129,52.5C 129.81,47.9538 131.143,47.6205 133,51.5C 134.359,50.635 135.526,49.635 136.5,48.5C 133.255,56.9898 130.588,65.6565 128.5,74.5C 130.167,74.5 131.833,74.5 133.5,74.5C 133.082,68.3177 135.915,65.651 142,66.5C 148.517,65.1823 151.35,67.849 150.5,74.5C 153.167,74.5 155.833,74.5 158.5,74.5C 158.007,72.1944 157.674,69.861 157.5,67.5C 159.154,59.7186 160.154,51.7186 160.5,43.5C 160.5,53.8333 160.5,64.1667 160.5,74.5C 162.833,74.5 165.167,74.5 167.5,74.5C 167.178,68.642 167.511,62.9753 168.5,57.5C 172.141,62.8154 175.808,68.1487 179.5,73.5C 181.743,74.4742 184.076,74.8076 186.5,74.5C 186.5,64.1667 186.5,53.8333 186.5,43.5C 187.329,50.989 187.829,58.6557 188,66.5C 188.45,68.519 189.283,70.3523 190.5,72C 189.269,73.1827 189.269,74.3493 190.5,75.5C 191.5,74.5 192.5,73.5 193.5,72.5C 190.801,70.1019 189.467,67.1019 189.5,63.5C 191.168,68.0112 194.168,71.5112 198.5,74C 204.528,74.6406 210.528,74.4739 216.5,73.5C 215.498,75.0109 214.831,76.6776 214.5,78.5C 218.013,78.6925 221.346,78.0259 224.5,76.5C 228.287,77.293 231.62,78.9596 234.5,81.5C 234.613,86.9856 234.613,92.6522 234.5,98.5C 232.355,97.0115 230.022,96.0115 227.5,95.5C 227.5,94.5 227.5,93.5 227.5,92.5C 233.259,91.3866 234.926,88.0533 232.5,82.5C 231.15,81.0499 229.484,80.3832 227.5,80.5C 222.36,79.5119 217.026,79.1786 211.5,79.5C 211.172,90.0135 211.506,100.347 212.5,110.5C 216.833,110.5 221.167,110.5 225.5,110.5C 221.092,112.267 216.426,112.767 211.5,112C 210.422,111.326 209.755,110.326 209.5,109C 210.426,105.861 210.592,102.694 210,99.5C 209.768,100.737 209.268,101.737 208.5,102.5C 208.5,94.8333 208.5,87.1667 208.5,79.5C 206.167,79.5 203.833,79.5 201.5,79.5C 201.666,87.1739 201.5,94.8406 201,102.5C 199.334,105.379 196.834,106.212 193.5,105C 192.619,104.292 191.953,103.458 191.5,102.5C 191.5,94.8333 191.5,87.1667 191.5,79.5C 188.5,79.5 185.5,79.5 182.5,79.5C 182.175,87.0191 182.508,94.3524 183.5,101.5C 183.629,103.216 183.962,104.883 184.5,106.5C 183.069,105.097 181.902,103.431 181,101.5C 180.667,102.167 180.333,102.833 180,103.5C 178.954,101.91 177.787,100.41 176.5,99C 174.717,98.7677 173.05,99.2677 171.5,100.5C 169.865,99.9537 168.199,99.6204 166.5,99.5C 166.815,103.371 166.482,107.038 165.5,110.5C 165.5,106.5 165.5,102.5 165.5,98.5C 177.065,99.7708 181.899,94.7708 180,83.5C 178.59,82.2125 177.09,81.0458 175.5,80C 169.843,79.5006 164.176,79.3339 158.5,79.5C 158.5,89.8333 158.5,100.167 158.5,110.5C 157.515,106.366 157.182,102.032 157.5,97.5C 152.527,98.1637 147.527,98.4971 142.5,98.5C 142.5,100.167 142.5,101.833 142.5,103.5C 146.881,103.628 151.215,103.295 155.5,102.5C 155.5,103.5 155.5,104.5 155.5,105.5C 155.167,105.5 154.833,105.5 154.5,105.5C 150.167,105.5 145.833,105.5 141.5,105.5C 141.5,102.5 141.5,99.5 141.5,96.5C 144.833,96.5 148.167,96.5 151.5,96.5C 151.5,95.1667 151.5,93.8333 151.5,92.5C 148.167,92.5 144.833,92.5 141.5,92.5C 141.5,89.8333 141.5,87.1667 141.5,84.5C 145.5,84.5 149.5,84.5 153.5,84.5C 154.451,83.0813 154.784,81.4147 154.5,79.5C 147.5,79.5 140.5,79.5 133.5,79.5C 133.5,89.8333 133.5,100.167 133.5,110.5C 140.5,110.5 147.5,110.5 154.5,110.5C 143.833,111.833 133.167,111.833 122.5,110.5C 125.5,110.5 128.5,110.5 131.5,110.5C 131.649,109.448 131.483,108.448 131,107.5C 127.914,104.245 125.414,100.578 123.5,96.5C 127.541,93.4239 129.041,89.4239 128,84.5C 126.588,82.548 124.755,81.2147 122.5,80.5C 117.025,79.5111 111.358,79.1778 105.5,79.5C 112.127,78.656 112.127,77.4893 105.5,76C 104.845,74.5134 103.845,73.3467 102.5,72.5C 101.668,64.1866 101.168,55.8532 101,47.5C 100.586,47.0426 100.086,46.7093 99.5,46.5C 98.8333,67.9962 98.1667,89.3295 97.5,110.5C 97.8308,87.9938 97.4974,65.6604 96.5,43.5C 92.8333,43.5 89.1667,43.5 85.5,43.5C 88.893,39.8666 92.7263,39.5332 97,42.5C 98.4787,41.1269 98.312,39.6269 96.5,38C 97.448,37.5172 98.448,37.3505 99.5,37.5C 99.9731,41.4525 101.306,45.1192 103.5,48.5C 104.167,56.6567 104.833,64.6567 105.5,72.5 Z"/></g>
<g><path style="opacity:1" fill="#8db6d0" d="M 160.5,43.5 C 163.059,43.1984 165.393,43.5318 167.5,44.5C 165.5,44.5 163.5,44.5 161.5,44.5C 161.5,54.1667 161.5,63.8333 161.5,73.5C 163.167,73.5 164.833,73.5 166.5,73.5C 166.171,67.7945 166.505,62.1278 167.5,56.5C 168.107,56.6236 168.44,56.9569 168.5,57.5C 167.511,62.9753 167.178,68.642 167.5,74.5C 165.167,74.5 162.833,74.5 160.5,74.5C 160.5,64.1667 160.5,53.8333 160.5,43.5 Z"/></g>
<g><path style="opacity:1" fill="#eff4f7" d="M 121.5,44.5 C 122.922,44.7086 124.255,45.2086 125.5,46C 128.389,51.5537 126.722,55.5537 120.5,58C 123.539,59.0314 126.039,60.8647 128,63.5C 129.546,68.7434 127.713,72.0768 122.5,73.5C 117.167,73.5 111.833,73.5 106.5,73.5C 106.5,63.8333 106.5,54.1667 106.5,44.5C 111.5,44.5 116.5,44.5 121.5,44.5 Z"/></g>
<g><path style="opacity:1" fill="#155596" d="M 113.5,61.5 C 118.983,60.8069 120.983,62.9735 119.5,68C 117.527,68.4955 115.527,68.6621 113.5,68.5C 113.5,66.1667 113.5,63.8333 113.5,61.5 Z"/></g>
<g><path style="opacity:1" fill="#295d96" d="M 113.5,48.5 C 119.016,48.4734 120.349,50.64 117.5,55C 116.207,55.49 114.873,55.6567 113.5,55.5C 113.5,53.1667 113.5,50.8333 113.5,48.5 Z"/></g>
<g><path style="opacity:1" fill="#a7bed3" d="M 121.5,43.5 C 121.5,43.8333 121.5,44.1667 121.5,44.5C 116.5,44.5 111.5,44.5 106.5,44.5C 106.5,54.1667 106.5,63.8333 106.5,73.5C 111.833,73.5 117.167,73.5 122.5,73.5C 119.854,74.1644 117.021,74.4978 114,74.5C 110.748,74.4809 107.915,73.8142 105.5,72.5C 105.5,62.8333 105.5,53.1667 105.5,43.5C 110.833,43.5 116.167,43.5 121.5,43.5 Z"/></g>
<g><path style="opacity:1" fill="#f4f8f9" d="M 186.5,43.5 C 186.5,53.8333 186.5,64.1667 186.5,74.5C 184.076,74.8076 181.743,74.4742 179.5,73.5C 175.808,68.1487 172.141,62.8154 168.5,57.5C 168.44,56.9569 168.107,56.6236 167.5,56.5C 166.505,62.1278 166.171,67.7945 166.5,73.5C 164.833,73.5 163.167,73.5 161.5,73.5C 161.5,63.8333 161.5,54.1667 161.5,44.5C 163.5,44.5 165.5,44.5 167.5,44.5C 171.803,49.6471 175.97,54.9804 180,60.5C 180.499,54.8431 180.666,49.1764 180.5,43.5C 182.5,43.5 184.5,43.5 186.5,43.5 Z"/></g>
<g><path style="opacity:1" fill="#ecf2f6" d="M 157.5,67.5 C 157.674,69.861 158.007,72.1944 158.5,74.5C 155.833,74.5 153.167,74.5 150.5,74.5C 151.35,67.849 148.517,65.1823 142,66.5C 135.915,65.651 133.082,68.3177 133.5,74.5C 131.833,74.5 130.167,74.5 128.5,74.5C 130.588,65.6565 133.255,56.9898 136.5,48.5C 137.931,47.2196 138.598,45.5529 138.5,43.5C 141.572,43.1826 144.572,43.5159 147.5,44.5C 150.592,52.3428 153.925,60.0094 157.5,67.5 Z"/></g>
<g><path style="opacity:1" fill="#2d629a" d="M 141.5,51.5 C 143.785,54.335 145.118,57.6684 145.5,61.5C 143.167,61.5 140.833,61.5 138.5,61.5C 138.92,57.9925 139.92,54.6592 141.5,51.5 Z"/></g>
<g><path style="opacity:1" fill="#eaf1f5" d="M 283.5,79.5 C 288.833,79.5 294.167,79.5 299.5,79.5C 299.5,81.5 299.5,83.5 299.5,85.5C 284.861,81.3072 279.028,86.6405 282,101.5C 283.167,102.667 284.333,103.833 285.5,105C 290.204,105.648 294.871,105.481 299.5,104.5C 299.785,106.288 299.452,107.955 298.5,109.5C 285.74,114.847 276.907,111.18 272,98.5C 270.799,88.8726 274.632,82.5392 283.5,79.5 Z"/></g>
<g><path style="opacity:1" fill="#f3f7f9" d="M 122.5,80.5 C 124.755,81.2147 126.588,82.548 128,84.5C 129.041,89.4239 127.541,93.4239 123.5,96.5C 125.414,100.578 127.914,104.245 131,107.5C 131.483,108.448 131.649,109.448 131.5,110.5C 128.5,110.5 125.5,110.5 122.5,110.5C 120.767,106.814 118.934,103.148 117,99.5C 115.989,98.6634 114.822,98.33 113.5,98.5C 113.5,102.167 113.5,105.833 113.5,109.5C 111.167,109.5 108.833,109.5 106.5,109.5C 106.5,99.8333 106.5,90.1667 106.5,80.5C 111.833,80.5 117.167,80.5 122.5,80.5 Z"/></g>
<g><path style="opacity:1" fill="#fbfdfd" d="M 153.5,84.5 C 149.5,84.5 145.5,84.5 141.5,84.5C 141.5,87.1667 141.5,89.8333 141.5,92.5C 144.833,92.5 148.167,92.5 151.5,92.5C 151.5,93.8333 151.5,95.1667 151.5,96.5C 148.167,96.5 144.833,96.5 141.5,96.5C 141.5,99.5 141.5,102.5 141.5,105.5C 145.833,105.5 150.167,105.5 154.5,105.5C 154.5,106.833 154.5,108.167 154.5,109.5C 147.833,109.5 141.167,109.5 134.5,109.5C 134.5,99.8333 134.5,90.1667 134.5,80.5C 140.833,80.5 147.167,80.5 153.5,80.5C 153.5,81.8333 153.5,83.1667 153.5,84.5 Z"/></g>
<g><path style="opacity:1" fill="#f3f7f9" d="M 165.5,110.5 C 163.167,110.5 160.833,110.5 158.5,110.5C 158.5,100.167 158.5,89.8333 158.5,79.5C 164.176,79.3339 169.843,79.5006 175.5,80C 177.09,81.0458 178.59,82.2125 180,83.5C 181.899,94.7708 177.065,99.7708 165.5,98.5C 165.5,102.5 165.5,106.5 165.5,110.5 Z"/></g>
<g><path style="opacity:1" fill="#f2f7f9" d="M 227.5,80.5 C 229.484,80.3832 231.15,81.0499 232.5,82.5C 234.926,88.0533 233.259,91.3866 227.5,92.5C 227.5,93.5 227.5,94.5 227.5,95.5C 230.022,96.0115 232.355,97.0115 234.5,98.5C 236.029,105.964 233.029,109.964 225.5,110.5C 221.167,110.5 216.833,110.5 212.5,110.5C 212.5,100.5 212.5,90.5 212.5,80.5C 217.5,80.5 222.5,80.5 227.5,80.5 Z"/></g>
<g><path style="opacity:1" fill="#eef4f7" d="M 311.5,79.5 C 314.448,79.2229 317.281,79.5562 320,80.5C 324.38,90.245 327.88,100.245 330.5,110.5C 328.143,110.663 325.81,110.497 323.5,110C 322.5,107.667 321.5,105.333 320.5,103C 316.179,102.501 311.846,102.334 307.5,102.5C 306.833,105.167 306.167,107.833 305.5,110.5C 303.833,110.5 302.167,110.5 300.5,110.5C 303.558,99.9955 307.225,89.6622 311.5,79.5 Z"/></g>
<g><path style="opacity:1" fill="#fdfefd" d="M 245.5,80.5 C 245.5,88.8333 245.5,97.1667 245.5,105.5C 250.167,105.5 254.833,105.5 259.5,105.5C 259.5,106.833 259.5,108.167 259.5,109.5C 252.5,109.5 245.5,109.5 238.5,109.5C 238.5,99.8333 238.5,90.1667 238.5,80.5C 240.833,80.5 243.167,80.5 245.5,80.5 Z"/></g>
<g><path style="opacity:1" fill="#4b8cc2" d="M 245.5,80.5 C 246.492,88.3159 246.826,96.3159 246.5,104.5C 251.032,104.182 255.366,104.515 259.5,105.5C 254.833,105.5 250.167,105.5 245.5,105.5C 245.5,97.1667 245.5,88.8333 245.5,80.5 Z"/></g>
<g><path style="opacity:1" fill="#a0bbd1" d="M 105.5,79.5 C 111.358,79.1778 117.025,79.5111 122.5,80.5C 117.167,80.5 111.833,80.5 106.5,80.5C 106.5,90.1667 106.5,99.8333 106.5,109.5C 108.833,109.5 111.167,109.5 113.5,109.5C 111.052,110.473 108.385,110.806 105.5,110.5C 105.5,100.167 105.5,89.8333 105.5,79.5 Z"/></g>
<g><path style="opacity:1" fill="#81aacc" d="M 191.5,102.5 C 190.508,95.3524 190.175,88.0191 190.5,80.5C 188.167,80.5 185.833,80.5 183.5,80.5C 183.5,87.5 183.5,94.5 183.5,101.5C 182.508,94.3524 182.175,87.0191 182.5,79.5C 185.5,79.5 188.5,79.5 191.5,79.5C 191.5,87.1667 191.5,94.8333 191.5,102.5 Z"/></g>
<g><path style="opacity:1" fill="#5a87b0" d="M 269.5,80.5 C 269.167,80.5 268.833,80.5 268.5,80.5C 266.5,80.5 264.5,80.5 262.5,80.5C 261.506,90.3194 261.173,100.319 261.5,110.5C 260.506,100.347 260.172,90.0135 260.5,79.5C 263.713,79.19 266.713,79.5233 269.5,80.5 Z"/></g>
<g><path style="opacity:1" fill="#c7e0f1" d="M 262.5,80.5 C 262.5,90.1667 262.5,99.8333 262.5,109.5C 264.5,109.5 266.5,109.5 268.5,109.5C 268.5,99.8333 268.5,90.1667 268.5,80.5C 268.833,80.5 269.167,80.5 269.5,80.5C 269.5,90.5 269.5,100.5 269.5,110.5C 266.833,110.5 264.167,110.5 261.5,110.5C 261.173,100.319 261.506,90.3194 262.5,80.5 Z"/></g>
<g><path style="opacity:1" fill="#fdfefd" d="M 262.5,80.5 C 264.5,80.5 266.5,80.5 268.5,80.5C 268.5,90.1667 268.5,99.8333 268.5,109.5C 266.5,109.5 264.5,109.5 262.5,109.5C 262.5,99.8333 262.5,90.1667 262.5,80.5 Z"/></g>
<g><path style="opacity:1" fill="#215a98" d="M 113.5,85.5 C 120.964,84.8903 122.297,87.3903 117.5,93C 116.207,93.49 114.873,93.6567 113.5,93.5C 113.5,90.8333 113.5,88.1667 113.5,85.5 Z"/></g>
<g><path style="opacity:1" fill="#7e9db8" d="M 171.5,85.5 C 169.833,85.5 168.167,85.5 166.5,85.5C 166.5,87.8333 166.5,90.1667 166.5,92.5C 167.833,92.5 169.167,92.5 170.5,92.5C 169.365,94.2132 167.698,94.8799 165.5,94.5C 165.5,91.1667 165.5,87.8333 165.5,84.5C 167.735,84.2053 169.735,84.5386 171.5,85.5 Z"/></g>
<g><path style="opacity:1" fill="#b7cddf" d="M 153.5,84.5 C 153.5,83.1667 153.5,81.8333 153.5,80.5C 147.167,80.5 140.833,80.5 134.5,80.5C 134.5,90.1667 134.5,99.8333 134.5,109.5C 141.167,109.5 147.833,109.5 154.5,109.5C 154.5,108.167 154.5,106.833 154.5,105.5C 154.833,105.5 155.167,105.5 155.5,105.5C 155.784,107.415 155.451,109.081 154.5,110.5C 147.5,110.5 140.5,110.5 133.5,110.5C 133.5,100.167 133.5,89.8333 133.5,79.5C 140.5,79.5 147.5,79.5 154.5,79.5C 154.784,81.4147 154.451,83.0813 153.5,84.5 Z"/></g>
<g><path style="opacity:1" fill="#0f5599" d="M 171.5,85.5 C 173.086,88.2163 172.753,90.5497 170.5,92.5C 169.167,92.5 167.833,92.5 166.5,92.5C 166.5,90.1667 166.5,87.8333 166.5,85.5C 168.167,85.5 169.833,85.5 171.5,85.5 Z"/></g>
<g><path style="opacity:1" fill="#34639d" d="M 219.5,84.5 C 225.158,83.6794 226.825,85.846 224.5,91C 222.975,92.0086 221.308,92.5086 219.5,92.5C 219.5,89.8333 219.5,87.1667 219.5,84.5 Z"/></g>
<g><path style="opacity:1" fill="#225d9c" d="M 313.5,88.5 C 315.609,90.8895 317.276,93.7228 318.5,97C 315.773,97.8184 313.106,97.6517 310.5,96.5C 311.809,93.9168 312.809,91.2501 313.5,88.5 Z"/></g>
<g><path style="opacity:1" fill="#568ab5" d="M 227.5,80.5 C 222.5,80.5 217.5,80.5 212.5,80.5C 212.5,90.5 212.5,100.5 212.5,110.5C 211.506,100.347 211.172,90.0135 211.5,79.5C 217.026,79.1786 222.36,79.5119 227.5,80.5 Z"/></g>
<g><path style="opacity:1" fill="#245c98" d="M 219.5,97.5 C 225.501,96.5614 227.501,98.8948 225.5,104.5C 223.591,105.348 221.591,105.682 219.5,105.5C 219.5,102.833 219.5,100.167 219.5,97.5 Z"/></g>
<g><path style="opacity:1" fill="#eef4f8" d="M 208.5,102.5 C 207.577,105.838 205.577,108.338 202.5,110C 198.167,110.667 193.833,110.667 189.5,110C 187.677,109.003 186.01,107.836 184.5,106.5C 183.962,104.883 183.629,103.216 183.5,101.5C 183.5,94.5 183.5,87.5 183.5,80.5C 185.833,80.5 188.167,80.5 190.5,80.5C 190.175,88.0191 190.508,95.3524 191.5,102.5C 191.953,103.458 192.619,104.292 193.5,105C 196.834,106.212 199.334,105.379 201,102.5C 201.5,94.8406 201.666,87.1739 201.5,79.5C 203.833,79.5 206.167,79.5 208.5,79.5C 208.5,87.1667 208.5,94.8333 208.5,102.5 Z"/></g>
<g><path style="opacity:1" fill="#b3c9dc" d="M 245.5,80.5 C 243.167,80.5 240.833,80.5 238.5,80.5C 238.5,90.1667 238.5,99.8333 238.5,109.5C 245.5,109.5 252.5,109.5 259.5,109.5C 252.352,110.492 245.019,110.825 237.5,110.5C 237.5,100.167 237.5,89.8333 237.5,79.5C 240.385,79.1936 243.052,79.5269 245.5,80.5 Z"/></g>
<g><path style="opacity:1" fill="#eac122" d="M 96.5,45.5 C 96.5,66.8333 96.5,88.1667 96.5,109.5C 74.8333,109.5 53.1667,109.5 31.5,109.5C 31.5,87.8333 31.5,66.1667 31.5,44.5C 53.242,44.1783 74.9087,44.5116 96.5,45.5 Z"/></g>
<g><path style="opacity:1" fill="#657c5e" d="M 93.5,46.5 C 94.4972,66.6598 94.8305,86.9931 94.5,107.5C 73.9931,107.83 53.6598,107.497 33.5,106.5C 33.8333,106.5 34.1667,106.5 34.5,106.5C 54.1667,106.5 73.8333,106.5 93.5,106.5C 93.5,86.5 93.5,66.5 93.5,46.5 Z"/></g>
<g><path style="opacity:1" fill="#41656e" d="M 34.5,46.5 C 34.5,66.5 34.5,86.5 34.5,106.5C 34.1667,106.5 33.8333,106.5 33.5,106.5C 32.8335,96.6723 32.5002,86.6723 32.5,76.5C 32.5014,66.1436 33.1681,56.1436 34.5,46.5 Z"/></g>
<g><path style="opacity:1" fill="#145598" d="M 34.5,46.5 C 54.1667,46.5 73.8333,46.5 93.5,46.5C 93.5,66.5 93.5,86.5 93.5,106.5C 73.8333,106.5 54.1667,106.5 34.5,106.5C 34.5,86.5 34.5,66.5 34.5,46.5 Z"/></g>
<g><path style="opacity:1" fill="#e8f0f6" d="M 59.5,98.5 C 66.0507,101.86 71.8841,100.86 77,95.5C 77.4828,94.552 77.6495,93.552 77.5,92.5C 89.0043,90.8479 90.671,93.3479 82.5,100C 69.522,107.043 57.522,105.877 46.5,96.5C 45.7659,95.2921 45.4326,93.9587 45.5,92.5C 49.1667,92.5 52.8333,92.5 56.5,92.5C 56.461,95.089 57.461,97.089 59.5,98.5 Z"/></g>
<g><path style="opacity:1" fill="#e5eef3" d="M 39.5,50.5 C 41.4698,58.7688 42.1364,67.4355 41.5,76.5C 38.1841,84.9111 39.5175,92.5777 45.5,99.5C 45.7031,101.044 46.3698,102.378 47.5,103.5C 45.5,104.833 43.5,104.833 41.5,103.5C 36.3583,96.23 34.525,88.23 36,79.5C 36.6152,77.8839 37.6152,76.5505 39,75.5C 39.4997,67.1733 39.6664,58.84 39.5,50.5 Z"/></g>
<g><path style="opacity:1" fill="#f0f4f6" d="M 90.5,79.5 C 91.9787,83.3824 91.6453,87.2158 89.5,91C 78.8385,91.4998 68.1719,91.6665 57.5,91.5C 52.8333,91.5 48.1667,91.5 43.5,91.5C 42.7279,87.5483 42.3946,83.5483 42.5,79.5C 58.5,79.5 74.5,79.5 90.5,79.5 Z"/></g>
<g><path style="opacity:1" fill="#27629d" d="M 54.5,82.5 C 62.5,82.5 70.5,82.5 78.5,82.5C 78.5,84.5 78.5,86.5 78.5,88.5C 70.8261,88.6664 63.1594,88.4997 55.5,88C 54.5939,86.3005 54.2606,84.4672 54.5,82.5 Z"/></g>
<g><path style="opacity:1" fill="#0d5599" d="M 79.5,77.5 C 71.1667,78.8333 62.8333,78.8333 54.5,77.5C 54.5,76.5 54.5,75.5 54.5,74.5C 62.5,74.5 70.5,74.5 78.5,74.5C 78.2627,75.791 78.596,76.791 79.5,77.5 Z"/></g>
<g><path style="opacity:1" fill="#2d659e" d="M 45.5,50.5 C 45.5,54.8333 45.5,59.1667 45.5,63.5C 56.2208,64.1419 66.5541,63.4753 76.5,61.5C 78.1137,63.0746 80.1137,63.7413 82.5,63.5C 82.5,64.5 82.5,65.5 82.5,66.5C 81.7109,66.2172 81.0442,65.7172 80.5,65C 68.8381,64.5001 57.1714,64.3335 45.5,64.5C 45.5,68.8333 45.5,73.1667 45.5,77.5C 48.5,77.5 51.5,77.5 54.5,77.5C 62.8333,78.8333 71.1667,78.8333 79.5,77.5C 82.1667,77.5 84.8333,77.5 87.5,77.5C 88.5,78.1667 89.5,78.8333 90.5,79.5C 74.5,79.5 58.5,79.5 42.5,79.5C 42.3946,83.5483 42.7279,87.5483 43.5,91.5C 48.1667,91.5 52.8333,91.5 57.5,91.5C 58.449,93.7373 59.1156,96.0706 59.5,98.5C 57.461,97.089 56.461,95.089 56.5,92.5C 52.8333,92.5 49.1667,92.5 45.5,92.5C 45.4326,93.9587 45.7659,95.2921 46.5,96.5C 45.596,97.209 45.2627,98.209 45.5,99.5C 39.5175,92.5777 38.1841,84.9111 41.5,76.5C 42.4902,70.3554 42.8235,64.0221 42.5,57.5C 42.9174,54.8411 43.9174,52.5078 45.5,50.5 Z"/></g>
<g><path style="opacity:1" fill="#7aa3c8" d="M 39.5,50.5 C 40.209,49.596 41.209,49.2627 42.5,49.5C 42.5,52.1667 42.5,54.8333 42.5,57.5C 42.8235,64.0221 42.4902,70.3554 41.5,76.5C 42.1364,67.4355 41.4698,58.7688 39.5,50.5 Z"/></g>
<g><path style="opacity:1" fill="#ebf1f6" d="M 82.5,66.5 C 84.4628,67.9599 86.2962,69.6266 88,71.5C 88.7891,73.7116 88.6225,75.7116 87.5,77.5C 84.8333,77.5 82.1667,77.5 79.5,77.5C 78.596,76.791 78.2627,75.791 78.5,74.5C 70.5,74.5 62.5,74.5 54.5,74.5C 54.5,75.5 54.5,76.5 54.5,77.5C 51.5,77.5 48.5,77.5 45.5,77.5C 45.5,73.1667 45.5,68.8333 45.5,64.5C 57.1714,64.3335 68.8381,64.5001 80.5,65C 81.0442,65.7172 81.7109,66.2172 82.5,66.5 Z"/></g>
<g><path style="opacity:1" fill="#12589b" d="M 54.5,68.5 C 62.5,68.5 70.5,68.5 78.5,68.5C 78.5,69.5 78.5,70.5 78.5,71.5C 70.5,71.5 62.5,71.5 54.5,71.5C 54.5,70.5 54.5,69.5 54.5,68.5 Z"/></g>
<g><path style="opacity:1" fill="#f1f5f7" d="M 45.5,50.5 C 49.5138,50.3345 53.5138,50.5012 57.5,51C 60.3203,54.3406 63.987,56.0072 68.5,56C 71.0472,58.054 73.7139,59.8874 76.5,61.5C 66.5541,63.4753 56.2208,64.1419 45.5,63.5C 45.5,59.1667 45.5,54.8333 45.5,50.5 Z"/></g>
<g><path style="opacity:1" fill="#558ab6" d="M 54.5,58.5 C 57.8984,58.1796 61.2317,58.513 64.5,59.5C 62.8333,59.8333 61.1667,60.1667 59.5,60.5C 57.3603,60.4439 55.6936,59.7773 54.5,58.5 Z"/></g>
<g><path style="opacity:1" fill="#aaa44c" d="M 96.5,43.5 C 97.4974,65.6604 97.8308,87.9938 97.5,110.5C 75.5,110.5 53.5,110.5 31.5,110.5C 31.5,110.167 31.5,109.833 31.5,109.5C 53.1667,109.5 74.8333,109.5 96.5,109.5C 96.5,88.1667 96.5,66.8333 96.5,45.5C 96.5,44.8333 96.5,44.1667 96.5,43.5 Z"/></g>
<g><path style="opacity:0.251" fill="#6a99c2" d="M -0.5,134.5 C 119.5,134.5 239.5,134.5 359.5,134.5C 359.5,135.167 359.5,135.833 359.5,136.5C 239.5,136.5 119.5,136.5 -0.5,136.5C -0.5,135.833 -0.5,135.167 -0.5,134.5 Z"/></g>
</svg>
