<?xml version="1.0" encoding="UTF-8"?>
<!DOCTYPE svg PUBLIC "-//W3C//DTD SVG 1.1//EN" "http://www.w3.org/Graphics/SVG/1.1/DTD/svg11.dtd">
<svg xmlns="http://www.w3.org/2000/svg" version="1.1" width="2339px" height="501px" style="shape-rendering:geometricPrecision; text-rendering:geometricPrecision; image-rendering:optimizeQuality; fill-rule:evenodd; clip-rule:evenodd" xmlns:xlink="http://www.w3.org/1999/xlink">
<g><path style="opacity:0.978" fill="#be0410" d="M 189.5,500.5 C 188.167,500.5 186.833,500.5 185.5,500.5C 218.695,478.158 250.362,453.658 280.5,427C 312.624,397.902 337.791,363.735 356,324.5C 364.52,305.57 369.353,285.737 370.5,265C 368.952,229.784 351.286,207.117 317.5,197C 301.462,192.471 285.129,190.471 268.5,191C 250.283,216.219 228.95,238.552 204.5,258C 142.324,304.089 73.9908,338.589 -0.5,361.5C -0.5,361.167 -0.5,360.833 -0.5,360.5C 45.6036,330.922 87.437,295.922 125,255.5C 150.624,225.595 168.957,191.595 180,153.5C 191.38,93.8675 166.88,60.3675 106.5,53C 96.1683,52.1509 85.8349,51.3175 75.5,50.5C 128.19,21.7203 182.856,17.2203 239.5,37C 287.973,58.1181 305.14,94.2848 291,145.5C 286.836,158.158 281.336,170.158 274.5,181.5C 274.833,181.833 275.167,182.167 275.5,182.5C 325.812,159.603 376.812,157.77 428.5,177C 474.794,198.43 491.294,233.93 478,283.5C 468.26,312.329 452.927,337.662 432,359.5C 396.035,395.558 355.535,425.391 310.5,449C 271.252,469.017 230.919,486.184 189.5,500.5 Z"/></g>
<g><path style="opacity:0.955" fill="#201914" d="M 592.5,110.5 C 603.838,110.333 615.172,110.5 626.5,111C 656.053,114.726 671.053,131.559 671.5,161.5C 671.558,178.892 664.225,192.059 649.5,201C 668.316,209.489 679.15,223.989 682,244.5C 685.845,278.635 671.345,300.468 638.5,310C 615.529,311.769 592.529,311.936 569.5,310.5C 577.75,243.913 585.417,177.247 592.5,110.5 Z M 613.5,134.5 C 638.132,131.966 649.299,142.966 647,167.5C 644.167,179.667 636.667,187.167 624.5,190C 618.5,190.667 612.5,190.667 606.5,190C 608.871,171.531 611.204,153.031 613.5,134.5 Z M 603.5,213.5 C 611.875,213.316 620.208,213.816 628.5,215C 653.313,224.123 662.813,241.623 657,267.5C 652.127,278.03 643.96,284.53 632.5,287C 620.205,288.315 607.872,288.815 595.5,288.5C 598.46,263.531 601.126,238.531 603.5,213.5 Z"/></g>
<g><path style="opacity:0.95" fill="#201914" d="M 1280.5,110.5 C 1287.83,110.5 1295.17,110.5 1302.5,110.5C 1294.79,177.534 1286.79,244.534 1278.5,311.5C 1260.11,316.998 1241.78,316.831 1223.5,311C 1204.81,302.16 1194.65,287.326 1193,266.5C 1189.95,237.639 1198.45,212.806 1218.5,192C 1234.28,178.629 1252.61,172.796 1273.5,174.5C 1275.69,153.15 1278.02,131.817 1280.5,110.5 Z M 1259.5,196.5 C 1263.17,196.5 1266.83,196.5 1270.5,196.5C 1266.91,228.844 1263.24,261.177 1259.5,293.5C 1230.15,296.488 1215.15,283.154 1214.5,253.5C 1215.49,223.087 1230.49,204.087 1259.5,196.5 Z"/></g>
<g><path style="opacity:0.947" fill="#201914" d="M 1502.5,110.5 C 1509.83,110.5 1517.17,110.5 1524.5,110.5C 1516.92,177.508 1509.25,244.508 1501.5,311.5C 1494.17,311.5 1486.83,311.5 1479.5,311.5C 1487.53,244.541 1495.2,177.541 1502.5,110.5 Z"/></g>
<g><path style="opacity:0.951" fill="#201914" d="M 1734.5,110.5 C 1739.1,110.2 1743.6,110.533 1748,111.5C 1775,159.5 1802,207.5 1829,255.5C 1835.52,207.285 1841.36,158.952 1846.5,110.5C 1853.83,110.5 1861.17,110.5 1868.5,110.5C 1860.75,177.491 1853.08,244.491 1845.5,311.5C 1840.79,311.827 1836.12,311.493 1831.5,310.5C 1804.92,263.004 1778.09,215.671 1751,168.5C 1744.48,215.991 1738.65,263.657 1733.5,311.5C 1726.17,311.5 1718.83,311.5 1711.5,311.5C 1719.53,244.542 1727.2,177.542 1734.5,110.5 Z"/></g>
<g><path style="opacity:0.925" fill="#201914" d="M 2193.5,114.5 C 2202.17,114.334 2210.84,114.5 2219.5,115C 2210.38,128.748 2201.38,142.581 2192.5,156.5C 2187.2,157.663 2181.86,157.829 2176.5,157C 2182.46,142.941 2188.13,128.774 2193.5,114.5 Z"/></g>
<g><path style="opacity:0.915" fill="#201914" d="M 2109.5,123.5 C 2122.56,123.069 2128.06,129.402 2126,142.5C 2122.7,152.073 2116.53,154.907 2107.5,151C 2101.5,145.227 2100,138.394 2103,130.5C 2104.69,127.642 2106.86,125.309 2109.5,123.5 Z"/></g>
<g><path style="opacity:0.948" fill="#201914" d="M 763.5,174.5 C 773.992,174.715 784.325,176.049 794.5,178.5C 789.418,222.824 784.418,267.158 779.5,311.5C 772.167,311.5 764.833,311.5 757.5,311.5C 758.249,307.181 758.415,302.848 758,298.5C 738.273,320.416 719.606,319.749 702,296.5C 694.042,281.083 691.375,264.75 694,247.5C 695.969,222.724 706.469,202.557 725.5,187C 737.187,179.493 749.854,175.326 763.5,174.5 Z M 755.5,197.5 C 760.5,197.5 765.5,197.5 770.5,197.5C 767.906,223.25 764.74,248.916 761,274.5C 755.687,282.148 748.854,287.982 740.5,292C 729.812,292.562 722.646,287.729 719,277.5C 712.486,254.918 715.819,233.918 729,214.5C 735.953,205.68 744.786,200.013 755.5,197.5 Z"/></g>
<g><path style="opacity:0.947" fill="#201914" d="M 986.5,174.5 C 994.471,174.737 1002.3,175.737 1010,177.5C 1009.71,184.69 1008.87,191.857 1007.5,199C 974.182,193.934 952.682,207.767 943,240.5C 940.365,254.054 942.032,267.054 948,279.5C 956.381,291.057 967.548,294.89 981.5,291C 988.391,288.888 994.724,285.721 1000.5,281.5C 1001.2,289.856 1000.7,298.189 999,306.5C 980.057,317.859 960.891,318.359 941.5,308C 928.078,296.655 920.911,282.155 920,264.5C 916.863,233.9 926.696,208.4 949.5,188C 960.737,180.202 973.07,175.702 986.5,174.5 Z"/></g>
<g><path style="opacity:0.948" fill="#201914" d="M 1066.5,174.5 C 1081.28,174.304 1092.78,180.304 1101,192.5C 1109.76,209.821 1112.76,228.154 1110,247.5C 1108.64,267.247 1101.98,284.913 1090,300.5C 1073.99,317.095 1055.82,319.928 1035.5,309C 1023.81,298.113 1017.64,284.613 1017,268.5C 1014.04,242.284 1019.38,217.951 1033,195.5C 1041.34,183.758 1052.51,176.758 1066.5,174.5 Z M 1065.5,195.5 C 1073.28,194.637 1078.95,197.637 1082.5,204.5C 1087.73,215.943 1089.56,227.943 1088,240.5C 1087.78,259.856 1080.94,276.356 1067.5,290C 1056.48,295.769 1048.31,292.935 1043,281.5C 1035.38,254.747 1038.71,229.414 1053,205.5C 1056.51,201.134 1060.68,197.801 1065.5,195.5 Z"/></g>
<g><path style="opacity:0.941" fill="#201914" d="M 1357.5,174.5 C 1377.75,175.567 1390.92,185.9 1397,205.5C 1400.31,218.019 1401.15,230.685 1399.5,243.5C 1376.44,242.85 1353.6,243.517 1331,245.5C 1328.69,259.593 1331.35,272.593 1339,284.5C 1347.56,293.675 1357.73,296.175 1369.5,292C 1378.45,288.05 1386.61,282.883 1394,276.5C 1394.16,284.545 1393.5,292.545 1392,300.5C 1373.75,317.024 1353.58,319.857 1331.5,309C 1317.49,296.807 1309.99,281.307 1309,262.5C 1305.87,235.349 1312.53,211.016 1329,189.5C 1336.84,181.117 1346.34,176.117 1357.5,174.5 Z M 1355.5,196.5 C 1367.97,195.495 1375.47,201.162 1378,213.5C 1378.72,217.145 1379.22,220.812 1379.5,224.5C 1364.83,224.5 1350.17,224.5 1335.5,224.5C 1337.33,211.442 1344,202.109 1355.5,196.5 Z"/></g>
<g><path style="opacity:0.948" fill="#201914" d="M 1598.5,174.5 C 1608.99,174.715 1619.33,176.049 1629.5,178.5C 1624.57,222.841 1619.57,267.175 1614.5,311.5C 1607.17,311.5 1599.83,311.5 1592.5,311.5C 1593.15,306.463 1593.65,301.463 1594,296.5C 1580.3,315.642 1563.8,318.809 1544.5,306C 1530.86,289.286 1525.69,270.12 1529,248.5C 1531.2,223.597 1541.7,203.097 1560.5,187C 1572.19,179.493 1584.85,175.326 1598.5,174.5 Z M 1591.5,197.5 C 1596.17,197.5 1600.83,197.5 1605.5,197.5C 1603.03,223.264 1599.86,248.931 1596,274.5C 1590.17,283.845 1582.01,289.845 1571.5,292.5C 1561.96,290.125 1555.79,284.125 1553,274.5C 1547.85,252.898 1551.52,232.898 1564,214.5C 1571.08,205.219 1580.24,199.552 1591.5,197.5 Z"/></g>
<g><path style="opacity:0.948" fill="#201914" d="M 1948.5,174.5 C 1959.01,174.637 1969.35,175.97 1979.5,178.5C 1974.75,222.861 1969.75,267.194 1964.5,311.5C 1957.17,311.5 1949.83,311.5 1942.5,311.5C 1943.34,306.824 1943.84,302.157 1944,297.5C 1936.82,307.17 1927.32,312.836 1915.5,314.5C 1899.45,311.963 1888.62,302.963 1883,287.5C 1873.62,253.732 1879.62,223.065 1901,195.5C 1914.28,182.579 1930.11,175.579 1948.5,174.5 Z M 1941.5,197.5 C 1946.17,197.5 1950.83,197.5 1955.5,197.5C 1953.08,222.538 1950.25,247.538 1947,272.5C 1942.17,280 1936,286.167 1928.5,291C 1920.02,294.183 1913.19,292.017 1908,284.5C 1896.9,259.606 1899.23,235.94 1915,213.5C 1922.15,205.185 1930.98,199.852 1941.5,197.5 Z"/></g>
<g><path style="opacity:0.945" fill="#201914" d="M 2057.5,174.5 C 2065.46,174.812 2073.3,175.812 2081,177.5C 2080.58,185.217 2079.41,192.883 2077.5,200.5C 2048.16,194.087 2027.66,204.753 2016,232.5C 2010.63,248.602 2011.63,264.269 2019,279.5C 2027.07,290.859 2037.91,294.692 2051.5,291C 2058.82,289.171 2065.49,286.004 2071.5,281.5C 2071.94,289.822 2071.44,298.155 2070,306.5C 2052.43,317.059 2034.26,318.226 2015.5,310C 2000.76,299.373 1992.6,284.873 1991,266.5C 1986.95,232.806 1998.11,205.639 2024.5,185C 2034.9,179.143 2045.9,175.643 2057.5,174.5 Z"/></g>
<g><path style="opacity:0.948" fill="#201914" d="M 2182.5,174.5 C 2205.92,175.407 2220.08,187.407 2225,210.5C 2229.11,233.262 2227.45,255.596 2220,277.5C 2214.49,293.343 2204.32,305.176 2189.5,313C 2167.55,320.023 2151.05,313.523 2140,293.5C 2136.78,286.504 2134.78,279.171 2134,271.5C 2130.3,244.675 2135.3,219.675 2149,196.5C 2157.21,184.416 2168.38,177.082 2182.5,174.5 Z M 2182.5,195.5 C 2188.94,194.971 2194.11,197.305 2198,202.5C 2202.9,211.353 2205.4,220.853 2205.5,231C 2205.72,249.974 2200.88,267.474 2191,283.5C 2178.28,297.815 2167.61,296.481 2159,279.5C 2152.66,255.173 2155.33,231.84 2167,209.5C 2170.49,202.834 2175.66,198.168 2182.5,195.5 Z"/></g>
<g><path style="opacity:0.945" fill="#201914" d="M 874.5,176.5 C 886.631,176.144 895.131,181.478 900,192.5C 904.151,203.822 905.484,215.488 904,227.5C 900.499,255.509 896.999,283.509 893.5,311.5C 886.137,311.831 878.803,311.497 871.5,310.5C 875.616,280.074 879.282,249.574 882.5,219C 881.953,198.397 873.286,193.73 856.5,205C 849.578,211.918 843.411,219.418 838,227.5C 834.504,255.471 831.337,283.471 828.5,311.5C 821.167,311.5 813.833,311.5 806.5,311.5C 811.719,267.191 816.719,222.858 821.5,178.5C 828.833,178.5 836.167,178.5 843.5,178.5C 842.739,185.842 842.239,193.176 842,200.5C 849.839,188.191 860.672,180.191 874.5,176.5 Z"/></g>
<g><path style="opacity:0.945" fill="#201914" d="M 2338.5,204.5 C 2338.5,213.5 2338.5,222.5 2338.5,231.5C 2334.61,257.635 2331.11,283.968 2328,310.5C 2320.92,311.48 2313.75,311.813 2306.5,311.5C 2310.02,281.023 2313.35,250.523 2316.5,220C 2314.99,196.415 2305.33,192.415 2287.5,208C 2281.9,213.593 2277.07,219.76 2273,226.5C 2269.17,254.797 2265.67,283.13 2262.5,311.5C 2255.14,311.831 2247.8,311.497 2240.5,310.5C 2246,266.527 2251.33,222.527 2256.5,178.5C 2263.86,178.169 2271.2,178.503 2278.5,179.5C 2277.17,186.804 2276.34,194.137 2276,201.5C 2282.74,190.76 2291.9,182.926 2303.5,178C 2314.52,174.971 2323.69,177.804 2331,186.5C 2334.37,192.235 2336.87,198.235 2338.5,204.5 Z"/></g>
<g><path style="opacity:0.944" fill="#201914" d="M 2099.5,178.5 C 2106.86,178.169 2114.2,178.503 2121.5,179.5C 2116.08,222.781 2110.91,266.114 2106,309.5C 2099.11,311.441 2091.95,312.108 2084.5,311.5C 2089.09,267.119 2094.09,222.786 2099.5,178.5 Z"/></g>
</svg>
