<?xml version="1.0" standalone="no"?>
<!DOCTYPE svg PUBLIC "-//W3C//DTD SVG 20010904//EN"
 "http://www.w3.org/TR/2001/REC-SVG-20010904/DTD/svg10.dtd">
<svg version="1.0" xmlns="http://www.w3.org/2000/svg"
 width="2560.000000pt" height="486.000000pt" viewBox="0 0 2560.000000 486.000000"
 preserveAspectRatio="xMidYMid meet">

<g transform="translate(0.000000,486.000000) scale(0.100000,-0.100000)"
fill="#000000" stroke="none">
<path d="M502 4726 c-87 -22 -198 -82 -267 -147 -82 -77 -131 -152 -169 -259
l-31 -85 -3 -2062 -2 -2063 2012 0 c1284 0 2038 4 2083 10 105 15 188 47 271
102 89 60 159 141 208 240 70 141 66 -3 66 2246 l0 2032 -2057 -1 c-1635 -1
-2069 -3 -2111 -13z m3088 -2080 c0 -1177 -1 -1245 -17 -1250 -10 -3 -558
-102 -1218 -221 -660 -118 -1210 -218 -1223 -220 l-22 -5 0 1245 c0 995 3
1247 13 1250 18 7 2417 443 2445 444 l22 1 0 -1244z"/>
<path d="M6070 2425 l0 -1615 295 0 295 0 0 1615 0 1615 -295 0 -295 0 0
-1615z"/>
<path d="M9833 2788 l3 -1253 23 -99 c57 -252 158 -409 337 -526 87 -57 182
-93 312 -119 340 -68 632 -8 740 153 l32 48 0 179 c0 99 -3 179 -6 179 -3 0
-36 -9 -72 -20 -128 -38 -347 -51 -468 -29 -125 23 -220 95 -271 205 -49 107
-52 163 -53 797 l0 587 298 0 c321 0 363 5 446 54 51 30 92 75 117 131 15 33
19 66 19 183 l0 142 -435 0 -435 0 0 320 0 320 -295 0 -296 0 4 -1252z"/>
<path d="M15463 2923 c3 -1243 0 -1183 72 -1400 149 -447 487 -707 978 -754
528 -49 997 214 1216 682 94 200 130 363 138 614 8 279 -27 472 -126 681 -60
126 -102 191 -181 283 -198 230 -484 361 -791 361 -282 0 -500 -122 -672 -377
-23 -34 -45 -63 -49 -63 -5 0 -8 245 -8 545 l0 545 -290 0 -291 0 4 -1117z
m1380 -59 c292 -75 437 -347 437 -820 0 -468 -236 -784 -586 -784 -183 0 -348
63 -450 173 -133 142 -195 355 -196 676 0 211 35 348 128 497 82 134 222 239
357 270 75 17 220 12 310 -12z"/>
<path d="M23280 2425 l0 -1615 295 0 295 0 0 656 c0 387 4 654 9 652 5 -1 76
-91 157 -198 308 -408 566 -719 756 -913 90 -91 114 -110 188 -145 131 -61
240 -81 354 -62 86 14 155 43 191 80 l28 29 -84 99 c-46 55 -210 247 -365 428
-574 673 -615 724 -605 742 40 71 648 765 882 1006 l141 146 -233 0 c-365 0
-427 -21 -618 -205 -182 -176 -366 -392 -677 -795 l-119 -155 -3 933 -2 932
-295 0 -295 0 0 -1615z"/>
<path d="M14738 3390 c-398 -50 -653 -279 -760 -681 -22 -83 -22 -91 -25 -992
l-4 -907 295 0 295 0 4 838 c3 920 1 879 65 1011 77 157 241 232 475 218 l97
-6 0 233 0 233 -82 27 c-92 31 -240 41 -360 26z"/>
<path d="M8055 3379 c-515 -80 -851 -422 -914 -929 -7 -52 -11 -378 -11 -862
l0 -778 295 0 295 0 0 793 c0 762 1 797 20 872 29 114 85 220 147 282 96 94
240 142 387 129 300 -27 456 -188 495 -511 7 -58 11 -353 11 -827 l0 -738 290
0 290 0 0 809 c0 877 -1 887 -56 1063 -107 338 -363 579 -719 674 -88 23 -123
27 -285 30 -102 1 -212 -1 -245 -7z"/>
<path d="M12450 3385 c-8 -2 -49 -9 -90 -15 -425 -69 -777 -385 -915 -821 -54
-172 -76 -319 -76 -520 0 -367 117 -659 361 -900 139 -137 293 -230 483 -294
142 -47 263 -65 447 -65 265 1 456 35 605 110 l90 45 3 214 c2 201 1 213 -15
206 -326 -128 -696 -150 -944 -54 -94 36 -211 112 -264 170 -81 90 -140 209
-159 325 l-5 31 412 6 c276 4 452 11 534 21 407 51 602 157 675 366 20 58 23
83 22 225 -1 187 -17 265 -88 410 -124 257 -348 434 -654 517 -60 16 -114 21
-242 24 -91 1 -172 1 -180 -1z m315 -495 c160 -51 246 -126 289 -255 21 -61
22 -190 3 -237 -19 -45 -83 -99 -145 -121 -113 -41 -195 -49 -576 -54 l-369
-5 6 106 c19 297 195 522 457 581 90 20 244 13 335 -15z"/>
<path d="M18863 3379 c-168 -24 -340 -86 -465 -167 l-58 -37 0 -202 c0 -112 1
-203 3 -203 2 0 50 18 108 39 201 75 426 106 662 90 117 -8 241 -35 299 -65
50 -26 118 -95 144 -146 35 -69 54 -160 54 -264 l0 -92 -292 -5 c-311 -5 -414
-16 -597 -63 -192 -50 -329 -122 -441 -234 -130 -130 -184 -265 -185 -465 0
-144 12 -199 72 -323 99 -209 313 -367 587 -437 191 -48 528 -58 710 -20 395
82 655 348 712 729 23 148 15 918 -10 1056 -86 471 -355 735 -821 805 -109 16
-379 18 -482 4z m755 -1651 c-4 -244 -15 -288 -89 -372 -82 -93 -176 -126
-364 -127 -128 0 -209 17 -306 66 -53 27 -115 92 -136 143 -55 132 -25 298 69
377 105 89 274 120 656 124 l174 1 -4 -212z"/>
<path d="M21495 3379 c-239 -35 -438 -127 -597 -278 -181 -171 -284 -384 -317
-651 -12 -95 -15 -964 -4 -1377 l6 -263 288 0 288 0 3 812 c4 906 0 855 75
1008 107 219 354 310 621 229 80 -25 121 -49 184 -107 93 -86 147 -208 167
-377 7 -57 11 -361 11 -827 l0 -738 290 0 290 0 0 791 c0 861 -3 911 -57 1083
-116 369 -412 622 -807 691 -97 16 -339 19 -441 4z"/>
</g>
</svg>
