<?xml version="1.0" standalone="no"?>
<!DOCTYPE svg PUBLIC "-//W3C//DTD SVG 20010904//EN"
 "http://www.w3.org/TR/2001/REC-SVG-20010904/DTD/svg10.dtd">
<svg version="1.0" xmlns="http://www.w3.org/2000/svg"
 width="798.000000pt" height="115.000000pt" viewBox="0 0 798.000000 115.000000"
 preserveAspectRatio="xMidYMid meet">

<g transform="translate(0.000000,115.000000) scale(0.100000,-0.100000)"
fill="#000000" stroke="none">
<path d="M900 1139 c-305 -25 -572 -104 -646 -191 -74 -89 20 -181 255 -249
69 -20 279 -57 350 -61 l44 -2 76 206 c42 114 80 210 84 214 4 4 7 -9 7 -29 0
-62 22 -392 26 -396 9 -10 284 0 400 14 215 26 396 75 484 130 48 31 90 81 90
109 0 94 -202 191 -477 231 -239 34 -471 42 -693 24z"/>
<path d="M2297 934 c-4 -4 -7 -54 -7 -111 0 -102 0 -104 26 -113 40 -16 257
-13 279 4 13 9 20 30 23 70 l4 56 -86 0 c-79 0 -86 -2 -86 -20 0 -18 7 -20 56
-20 54 0 55 0 52 -27 l-3 -28 -102 -3 -103 -3 0 81 0 80 104 0 c70 0 106 -4
108 -12 3 -7 14 -9 31 -4 22 5 25 10 18 29 -8 21 -13 22 -158 25 -82 1 -152
-1 -156 -4z"/>
<path d="M2720 820 l0 -120 29 0 c28 0 30 2 33 48 3 43 5 47 30 50 21 3 43 -9
90 -47 53 -43 69 -51 103 -51 l40 1 -30 25 c-16 14 -42 32 -57 42 -37 22 -35
32 5 32 44 0 57 15 57 70 0 25 -5 51 -12 58 -8 8 -56 12 -150 12 l-138 0 0
-120z m235 50 l0 -35 -85 0 c-81 0 -85 1 -88 23 -7 48 2 53 90 50 l83 -3 0
-35z"/>
<path d="M3120 840 c0 -138 2 -140 158 -140 158 0 156 -2 160 134 l4 106 -36
0 -36 0 0 -100 0 -101 -92 3 -93 3 -3 98 -3 97 -29 0 -30 0 0 -100z"/>
<path d="M3550 820 l0 -120 30 0 c29 0 30 1 30 50 l0 50 104 0 c119 0 136 8
136 66 0 72 -4 74 -160 74 l-140 0 0 -120z m228 81 c8 -4 12 -19 10 -32 -3
-23 -7 -24 -90 -27 l-88 -3 0 36 0 35 78 0 c42 0 83 -4 90 -9z"/>
<path d="M3922 928 c-14 -14 -16 -185 -2 -208 7 -12 37 -16 142 -18 78 -2 145
1 161 7 l28 11 -3 107 -3 108 -155 3 c-113 2 -159 -1 -168 -10z m268 -108 l0
-81 -107 3 -108 3 -3 78 -3 77 111 0 110 0 0 -80z"/>
<path d="M4530 820 l0 -120 29 0 c28 0 30 2 33 48 l3 47 58 3 c49 3 57 6 57
22 0 18 -7 20 -61 20 l-60 0 3 33 3 32 108 3 c86 2 107 6 107 17 0 13 -24 15
-140 15 l-140 0 0 -120z"/>
<path d="M4860 820 l0 -120 30 0 30 0 0 120 0 120 -30 0 -30 0 0 -120z"/>
<path d="M5030 820 l0 -120 30 0 29 0 3 84 3 84 113 -84 c63 -46 122 -84 133
-84 18 0 19 8 19 120 l0 120 -25 0 c-25 0 -25 -1 -25 -80 0 -44 -2 -80 -5 -80
-2 0 -53 36 -113 80 -72 53 -118 80 -135 80 l-27 0 0 -120z"/>
<path d="M5509 843 c-34 -54 -69 -108 -77 -120 -14 -22 -13 -23 16 -23 24 0
35 7 49 30 17 30 18 30 104 30 86 0 88 -1 109 -30 15 -22 30 -30 51 -30 16 0
29 3 29 6 0 4 -34 58 -75 120 -71 109 -76 114 -109 114 -32 0 -37 -5 -97 -97z
m125 13 c14 -25 26 -47 26 -50 0 -3 -27 -6 -60 -6 l-60 0 31 50 c17 28 32 50
34 50 2 0 15 -20 29 -44z"/>
<path d="M5860 820 l0 -120 25 0 c24 0 24 2 27 84 l3 84 115 -84 c63 -46 122
-84 132 -84 16 0 18 11 18 120 l0 120 -25 0 c-25 0 -25 -1 -25 -80 0 -44 -2
-80 -5 -80 -3 0 -53 36 -112 80 -60 44 -118 80 -130 80 -23 0 -23 -2 -23 -120z"/>
<path d="M6297 933 c-4 -3 -7 -53 -7 -110 l0 -103 28 -11 c15 -6 76 -9 140 -7
122 3 132 8 132 59 0 22 -5 28 -30 31 -25 4 -29 1 -32 -21 -3 -25 -5 -26 -90
-29 l-88 -3 0 81 0 80 90 0 c83 0 90 -1 90 -20 0 -20 15 -25 44 -14 19 7 21
45 4 62 -13 13 -269 18 -281 5z"/>
<path d="M6690 820 l0 -120 30 0 30 0 0 120 0 120 -30 0 -30 0 0 -120z"/>
<path d="M6870 820 l0 -120 140 0 c133 0 140 1 140 20 0 19 -7 20 -110 20
l-110 0 0 35 0 35 65 0 c58 0 65 2 65 20 0 18 -7 20 -65 20 l-65 0 0 30 0 30
110 0 c91 0 110 3 110 15 0 13 -22 15 -140 15 l-140 0 0 -120z"/>
<path d="M7240 820 l0 -120 29 0 c28 0 30 2 33 48 3 43 5 47 31 50 21 3 42 -8
88 -47 51 -43 67 -51 100 -51 48 0 46 5 -20 50 -28 19 -51 38 -51 43 0 4 15 7
33 7 44 0 57 15 57 70 0 25 -5 51 -12 58 -8 8 -56 12 -150 12 l-138 0 0 -120z
m235 50 l0 -35 -85 0 -85 0 -3 38 -3 38 88 -3 88 -3 0 -35z"/>
<path d="M7647 933 c-4 -3 -7 -53 -7 -109 0 -92 2 -104 19 -114 11 -5 77 -10
148 -10 170 0 173 2 173 116 0 129 7 124 -174 124 -84 0 -156 -3 -159 -7z
m271 -110 l-3 -78 -107 -3 -108 -3 0 81 0 80 110 0 111 0 -3 -77z"/>
<path d="M695 603 c-335 -29 -626 -135 -679 -248 -64 -134 137 -268 493 -329
116 -20 157 -20 164 -2 3 7 48 130 100 272 53 143 100 271 106 287 l11 27 -78
-2 c-42 -1 -95 -3 -117 -5z"/>
<path d="M1098 605 c-5 -5 30 -597 36 -602 3 -3 69 4 148 16 485 70 692 253
471 416 -90 65 -302 132 -498 155 -49 6 -104 12 -122 14 -17 3 -33 3 -35 1z"/>
<path d="M2280 310 l0 -261 288 3 c313 3 335 7 360 63 27 60 9 163 -33 185
-25 14 -33 30 -15 30 6 0 19 9 30 20 16 16 20 33 20 89 0 59 -4 74 -24 98
l-24 28 -301 3 -301 3 0 -261z m508 158 c7 -7 12 -26 12 -43 0 -53 -9 -55
-197 -55 l-173 0 0 55 0 55 173 0 c121 0 177 -4 185 -12z m6 -214 c10 -26 7
-79 -6 -92 -8 -8 -64 -12 -185 -12 l-173 0 0 60 0 60 179 0 c154 0 180 -2 185
-16z"/>
<path d="M3195 319 c-88 -137 -162 -254 -163 -259 -3 -7 22 -10 69 -8 l73 3
31 52 30 53 187 0 187 0 36 -55 35 -55 80 0 81 0 -23 38 c-13 21 -88 138 -168
260 l-145 222 -75 -1 -75 0 -160 -250z m284 58 c77 -128 82 -117 -53 -117 -65
0 -116 4 -116 9 0 8 112 191 117 191 1 0 24 -38 52 -83z"/>
<path d="M3940 310 l0 -260 71 0 71 0 -4 175 c-3 163 -2 173 14 162 10 -7 116
-85 237 -174 216 -160 220 -163 270 -163 l51 0 0 260 0 260 -65 0 -65 0 -2
-170 -3 -170 -230 170 -230 169 -57 1 -58 0 0 -260z"/>
<path d="M4880 557 c-44 -22 -50 -49 -50 -244 0 -100 4 -193 10 -208 19 -50
52 -55 360 -55 315 0 339 4 359 60 6 20 11 102 11 202 0 188 -10 231 -55 248
-41 15 -604 13 -635 -3z m540 -242 l0 -165 -220 0 -220 0 0 165 0 165 220 0
220 0 0 -165z"/>
<path d="M5750 310 l0 -260 70 0 70 0 0 95 0 95 68 0 68 0 115 -95 114 -94
105 -1 c60 0 100 4 95 9 -6 5 -59 44 -120 86 -60 43 -114 81 -118 85 -5 4 25
12 65 18 106 16 118 32 118 162 0 90 -2 101 -24 127 l-24 28 -301 3 -301 3 0
-261z m498 158 c17 -17 15 -103 -2 -117 -9 -8 -66 -11 -182 -9 l-169 3 -3 54
c-2 29 -1 60 2 67 7 19 336 20 354 2z"/>
<path d="M6520 525 l0 -45 135 0 135 0 0 -215 0 -215 75 0 75 0 0 215 0 215
135 0 135 0 0 45 0 45 -345 0 -345 0 0 -45z"/>
<path d="M7340 310 l0 -260 305 0 305 0 0 50 0 50 -235 0 -236 0 3 63 3 62
138 3 137 3 0 44 0 45 -140 0 -140 0 0 55 0 55 230 0 230 0 0 45 0 45 -300 0
-300 0 0 -260z"/>
</g>
</svg>
