<?xml version="1.0" encoding="UTF-8"?>
<!DOCTYPE svg PUBLIC "-//W3C//DTD SVG 1.1//EN" "http://www.w3.org/Graphics/SVG/1.1/DTD/svg11.dtd">
<svg xmlns="http://www.w3.org/2000/svg" version="1.1" width="864px" height="312px" style="shape-rendering:geometricPrecision; text-rendering:geometricPrecision; image-rendering:optimizeQuality; fill-rule:evenodd; clip-rule:evenodd" xmlns:xlink="http://www.w3.org/1999/xlink">
<g><path style="opacity:0.812" fill="#edd0c8" d="M 63.5,-0.5 C 68.1667,-0.5 72.8333,-0.5 77.5,-0.5C 84.6095,0.13279 91.6095,1.63279 98.5,4C 101.48,5.63372 104.48,7.30038 107.5,9C 109.79,10.7772 111.457,12.9438 112.5,15.5C 107.355,10.595 101.355,7.26168 94.5,5.5C 90.4251,3.88157 86.0918,2.88157 81.5,2.5C 73.0099,1.34305 64.3433,1.17639 55.5,2C 52.8958,2.39034 50.5625,3.22367 48.5,4.5C 46.5853,4.21552 44.9187,4.54885 43.5,5.5C 30.4311,7.55635 30.4311,8.55635 43.5,8.5C 44.8333,9.16667 46.1667,9.83333 47.5,10.5C 41.1579,10.6662 34.8246,10.4995 28.5,10C 27.2888,9.10723 27.2888,8.2739 28.5,7.5C 39.9892,3.53867 51.6558,0.871999 63.5,-0.5 Z"/></g>
<g><path style="opacity:1" fill="#ba6c65" d="M 81.5,2.5 C 74.1591,2.33368 66.8258,2.50034 59.5,3C 56.9644,3.18618 54.631,3.68618 52.5,4.5C 51.1667,4.5 49.8333,4.5 48.5,4.5C 50.5625,3.22367 52.8958,2.39034 55.5,2C 64.3433,1.17639 73.0099,1.34305 81.5,2.5 Z"/></g>
<g><path style="opacity:1" fill="#952d28" d="M 81.5,2.5 C 86.0918,2.88157 90.4251,3.88157 94.5,5.5C 87.0885,5.69911 79.7552,5.03244 72.5,3.5C 65.864,4.38052 59.1973,4.71386 52.5,4.5C 54.631,3.68618 56.9644,3.18618 59.5,3C 66.8258,2.50034 74.1591,2.33368 81.5,2.5 Z"/></g>
<g><path style="opacity:1" fill="#a22b2e" d="M 48.5,4.5 C 49.8333,4.5 51.1667,4.5 52.5,4.5C 51.6016,5.15767 50.6016,5.82434 49.5,6.5C 52.0618,7.64094 54.7284,8.47427 57.5,9C 59.3237,9.65999 60.657,10.8267 61.5,12.5C 58.3161,11.3573 54.9827,10.6906 51.5,10.5C 50.1667,10.5 48.8333,10.5 47.5,10.5C 46.1667,9.83333 44.8333,9.16667 43.5,8.5C 43.5,7.5 43.5,6.5 43.5,5.5C 44.9187,4.54885 46.5853,4.21552 48.5,4.5 Z"/></g>
<g><path style="opacity:1" fill="#7d534c" d="M 43.5,5.5 C 43.5,6.5 43.5,7.5 43.5,8.5C 30.4311,8.55635 30.4311,7.55635 43.5,5.5 Z"/></g>
<g><path style="opacity:1" fill="#a52d20" d="M 69.5,19.5 C 66.8106,18.8106 65.1439,17.144 64.5,14.5C 65.8333,14.5 67.1667,14.5 68.5,14.5C 68.6799,10.5878 70.8465,8.92113 75,9.5C 81.4948,10.5827 87.9948,11.5827 94.5,12.5C 94.5,13.8333 94.5,15.1667 94.5,16.5C 86.1667,16.5 77.8333,16.5 69.5,16.5C 69.5,17.5 69.5,18.5 69.5,19.5 Z"/></g>
<g><path style="opacity:1" fill="#91322e" d="M 94.5,5.5 C 101.355,7.26168 107.355,10.595 112.5,15.5C 112.433,16.9587 112.766,18.2921 113.5,19.5C 112.167,19.5 110.833,19.5 109.5,19.5C 108.836,17.1331 107.503,15.1331 105.5,13.5C 101.82,11.4772 98.153,9.47716 94.5,7.5C 94.5,6.83333 94.5,6.16667 94.5,5.5 Z"/></g>
<g><path style="opacity:0.906" fill="#ca8b86" d="M 51.5,10.5 C 54.9827,10.6906 58.3161,11.3573 61.5,12.5C 61.9731,13.9063 62.9731,14.573 64.5,14.5C 65.1439,17.144 66.8106,18.8106 69.5,19.5C 71.3751,22.5884 72.7085,25.9217 73.5,29.5C 73.5,30.8333 73.5,32.1667 73.5,33.5C 72.0442,30.3856 70.8775,27.0523 70,23.5C 65.0446,17.2865 58.878,12.9532 51.5,10.5 Z"/></g>
<g><path style="opacity:1" fill="#b62423" d="M 94.5,5.5 C 94.5,6.16667 94.5,6.83333 94.5,7.5C 94.6282,9.08979 95.2949,10.4231 96.5,11.5C 99.8142,13.1428 102.814,15.1428 105.5,17.5C 103.682,18.8239 102.682,20.6572 102.5,23C 103.622,30.1618 103.622,37.3285 102.5,44.5C 100.833,44.5 99.1667,44.5 97.5,44.5C 97.5,36.1667 97.5,27.8333 97.5,19.5C 96.5,19.5 95.5,19.5 94.5,19.5C 93.0989,23.8397 92.0989,28.3397 91.5,33C 91.0645,38.8192 92.7311,43.8192 96.5,48C 99.7568,49.0429 103.09,49.5429 106.5,49.5C 105.085,53.1189 103.752,56.7856 102.5,60.5C 100.516,60.6168 98.8498,59.9501 97.5,58.5C 96.2888,57.7261 96.2888,56.8928 97.5,56C 95.8659,55.5065 94.1992,55.3398 92.5,55.5C 91.8857,51.8648 91.5524,48.1981 91.5,44.5C 89.8333,44.5 88.1667,44.5 86.5,44.5C 86.1691,41.1746 85.8357,37.8413 85.5,34.5C 87.0677,29.6219 87.5677,24.6219 87,19.5C 84.3333,18.1667 81.6667,18.1667 79,19.5C 78.2672,23.9712 78.7672,28.3046 80.5,32.5C 80.0814,33.6721 79.4147,34.6721 78.5,35.5C 76.4042,30.2174 74.7375,24.884 73.5,19.5C 72.1667,19.5 70.8333,19.5 69.5,19.5C 69.5,18.5 69.5,17.5 69.5,16.5C 77.8333,16.5 86.1667,16.5 94.5,16.5C 94.5,15.1667 94.5,13.8333 94.5,12.5C 87.9948,11.5827 81.4948,10.5827 75,9.5C 70.8465,8.92113 68.6799,10.5878 68.5,14.5C 67.1667,14.5 65.8333,14.5 64.5,14.5C 62.9731,14.573 61.9731,13.9063 61.5,12.5C 60.657,10.8267 59.3237,9.65999 57.5,9C 54.7284,8.47427 52.0618,7.64094 49.5,6.5C 50.6016,5.82434 51.6016,5.15767 52.5,4.5C 59.1973,4.71386 65.864,4.38052 72.5,3.5C 79.7552,5.03244 87.0885,5.69911 94.5,5.5 Z"/></g>
<g><path style="opacity:1" fill="#ac2a21" d="M 94.5,7.5 C 98.153,9.47716 101.82,11.4772 105.5,13.5C 107.503,15.1331 108.836,17.1331 109.5,19.5C 110.833,19.5 112.167,19.5 113.5,19.5C 114.341,26.4648 114.674,33.4648 114.5,40.5C 114.293,43.2406 113.293,45.5739 111.5,47.5C 109.833,48.1667 108.167,48.8333 106.5,49.5C 103.09,49.5429 99.7568,49.0429 96.5,48C 92.7311,43.8192 91.0645,38.8192 91.5,33C 92.0989,28.3397 93.0989,23.8397 94.5,19.5C 95.5,19.5 96.5,19.5 97.5,19.5C 97.5,27.8333 97.5,36.1667 97.5,44.5C 99.1667,44.5 100.833,44.5 102.5,44.5C 103.622,37.3285 103.622,30.1618 102.5,23C 102.682,20.6572 103.682,18.8239 105.5,17.5C 102.814,15.1428 99.8142,13.1428 96.5,11.5C 95.2949,10.4231 94.6282,9.08979 94.5,7.5 Z"/></g>
<g><path style="opacity:1" fill="#a34145" d="M 113.5,19.5 C 117.149,26.3409 117.482,33.3409 114.5,40.5C 114.674,33.4648 114.341,26.4648 113.5,19.5 Z"/></g>
<g><path style="opacity:0.586" fill="#c0bdbb" d="M 284.5,48.5 C 279.52,43.6748 273.853,39.8415 267.5,37C 265.527,36.5045 263.527,36.3379 261.5,36.5C 255.355,35.5098 249.022,35.1765 242.5,35.5C 242.5,37.1667 242.5,38.8333 242.5,40.5C 241.496,49.177 240.496,57.8437 239.5,66.5C 236.885,84.8051 234.552,103.138 232.5,121.5C 231.833,121.833 231.167,122.167 230.5,122.5C 234.167,93.167 237.833,63.8337 241.5,34.5C 251.217,34.176 260.884,34.676 270.5,36C 273.629,37.3988 276.629,39.0655 279.5,41C 282.2,42.8567 283.866,45.3567 284.5,48.5 Z"/></g>
<g><path style="opacity:1" fill="#6d6a67" d="M 261.5,36.5 C 255.5,36.5 249.5,36.5 243.5,36.5C 243.768,38.099 243.434,39.4324 242.5,40.5C 242.5,38.8333 242.5,37.1667 242.5,35.5C 249.022,35.1765 255.355,35.5098 261.5,36.5 Z"/></g>
<g><path style="opacity:0.737" fill="#ecc1c0" d="M 112.5,15.5 C 113.885,16.5736 115.051,17.9069 116,19.5C 119.364,30.6937 118.198,41.3604 112.5,51.5C 111.781,53.0913 110.781,54.5913 109.5,56C 110.333,56.1667 111.167,56.3333 112,56.5C 129.082,52.3038 146.249,51.8038 163.5,55C 184.934,61.1065 192.768,74.9398 187,96.5C 182.324,109.328 174.49,119.662 163.5,127.5C 165.166,125.813 166.5,123.813 167.5,121.5C 169.833,121.167 171.167,119.833 171.5,117.5C 182.181,106.789 187.348,93.7887 187,78.5C 186.422,75.4702 185.255,72.8035 183.5,70.5C 180.692,65.7592 176.692,62.4258 171.5,60.5C 170.4,59.4415 169.066,58.6082 167.5,58C 152.805,54.0295 138.138,53.5295 123.5,56.5C 122.5,56.5 121.5,56.5 120.5,56.5C 119.167,56.8333 117.833,57.1667 116.5,57.5C 113.327,58.3683 110.327,58.3683 107.5,57.5C 108.809,54.2073 110.142,50.874 111.5,47.5C 113.293,45.5739 114.293,43.2406 114.5,40.5C 117.482,33.3409 117.149,26.3409 113.5,19.5C 112.766,18.2921 112.433,16.9587 112.5,15.5 Z"/></g>
<g><path style="opacity:1" fill="#1f1a17" d="M 261.5,36.5 C 263.527,36.3379 265.527,36.5045 267.5,37C 273.853,39.8415 279.52,43.6748 284.5,48.5C 286.926,56.1032 287.093,63.7698 285,71.5C 282.012,76.9667 278.512,81.9667 274.5,86.5C 275.791,86.2627 276.791,86.596 277.5,87.5C 275.549,87.2267 274.049,87.8934 273,89.5C 269.066,88.4005 265.066,88.4005 261,89.5C 259.833,89.1667 258.667,88.8333 257.5,88.5C 259.078,87.7022 260.744,87.2022 262.5,87C 257.826,86.6666 253.16,86.8333 248.5,87.5C 248.5,88.5 248.5,89.5 248.5,90.5C 251.713,90.19 254.713,90.5233 257.5,91.5C 254.5,91.5 251.5,91.5 248.5,91.5C 248.768,93.099 248.434,94.4324 247.5,95.5C 246.516,87.6796 245.683,87.6796 245,95.5C 244.699,92.0199 243.865,88.6866 242.5,85.5C 243.272,83.2919 244.105,83.6253 245,86.5C 245.977,83.741 245.144,81.741 242.5,80.5C 242.167,78 241.833,75.5 241.5,73C 242.168,67.1669 242.334,61.3336 242,55.5C 241.581,59.3917 240.748,63.0584 239.5,66.5C 240.496,57.8437 241.496,49.177 242.5,40.5C 243.434,39.4324 243.768,38.099 243.5,36.5C 249.5,36.5 255.5,36.5 261.5,36.5 Z M 255.5,50.5 C 271.197,50.0273 276.03,57.0273 270,71.5C 265.087,77.384 258.92,79.0506 251.5,76.5C 253.155,67.8798 254.489,59.2131 255.5,50.5 Z"/></g>
<g><path style="opacity:1" fill="#9c3637" d="M 73.5,29.5 C 74.2216,29.9175 74.7216,30.5842 75,31.5C 75.6667,37.8333 75.6667,44.1667 75,50.5C 73.6198,53.0048 71.7865,55.0048 69.5,56.5C 72.2367,52.2837 73.5701,47.617 73.5,42.5C 73.5,39.5 73.5,36.5 73.5,33.5C 73.5,32.1667 73.5,30.8333 73.5,29.5 Z"/></g>
<g><path style="opacity:0.004" fill="#faede4" d="M 112.5,51.5 C 113.525,51.8966 113.692,52.5632 113,53.5C 112.536,52.9056 112.369,52.2389 112.5,51.5 Z"/></g>
<g><path style="opacity:0.91" fill="#b4b1b0" d="M 254.5,48.5 C 259.931,48.3762 265.098,49.3762 270,51.5C 277.424,62.2107 275.59,71.0441 264.5,78C 259.934,79.3092 255.267,79.8092 250.5,79.5C 250.719,68.9651 252.052,58.6318 254.5,48.5 Z M 255.5,50.5 C 254.489,59.2131 253.155,67.8798 251.5,76.5C 258.92,79.0506 265.087,77.384 270,71.5C 276.03,57.0273 271.197,50.0273 255.5,50.5 Z"/></g>
<g><path style="opacity:1" fill="#973028" d="M 111.5,47.5 C 110.142,50.874 108.809,54.2073 107.5,57.5C 105.613,58.6563 104.279,60.323 103.5,62.5C 101.139,64.1939 99.1394,66.1939 97.5,68.5C 97.5364,64.8001 99.2031,62.1335 102.5,60.5C 103.752,56.7856 105.085,53.1189 106.5,49.5C 108.167,48.8333 109.833,48.1667 111.5,47.5 Z"/></g>
<g><path style="opacity:1" fill="#943631" d="M 171.5,60.5 C 164.01,60.1693 156.677,59.0027 149.5,57C 140.84,56.5002 132.173,56.3336 123.5,56.5C 138.138,53.5295 152.805,54.0295 167.5,58C 169.066,58.6082 170.4,59.4415 171.5,60.5 Z"/></g>
<g><path style="opacity:1" fill="#b02720" d="M 102.5,60.5 C 99.2031,62.1335 97.5364,64.8001 97.5,68.5C 95.8361,69.7432 94.6695,71.4098 94,73.5C 93.3292,74.2524 92.4959,74.5858 91.5,74.5C 90.4341,73.3079 89.6008,73.6412 89,75.5C 88.6667,74.8333 88.3333,74.1667 88,73.5C 87.7811,74.938 87.2811,76.2713 86.5,77.5C 80.8957,82.2108 75.0624,86.5441 69,90.5C 67.4634,91.1136 66.13,91.1136 65,90.5C 64.5045,88.5273 64.3379,86.5273 64.5,84.5C 62.1667,84.5 59.8333,84.5 57.5,84.5C 57.1866,87.2469 57.52,89.9135 58.5,92.5C 59.931,92.9766 61.2643,93.6433 62.5,94.5C 57.4477,97.9227 52.1144,100.756 46.5,103C 44.9371,103.759 43.9371,104.926 43.5,106.5C 43.5,106.833 43.5,107.167 43.5,107.5C 37.939,108.513 32.439,109.846 27,111.5C 26.5,111.167 26,110.833 25.5,110.5C 30.8847,104.835 36.8847,100.168 43.5,96.5C 43.5,95.1667 43.5,93.8333 43.5,92.5C 48.9411,94.5303 51.4411,92.5303 51,86.5C 56.8825,80.9669 61.5491,74.6336 65,67.5C 68.8774,65.2429 70.3774,61.9096 69.5,57.5C 69.5,57.1667 69.5,56.8333 69.5,56.5C 71.7865,55.0048 73.6198,53.0048 75,50.5C 75.6667,44.1667 75.6667,37.8333 75,31.5C 74.7216,30.5842 74.2216,29.9175 73.5,29.5C 72.7085,25.9217 71.3751,22.5884 69.5,19.5C 70.8333,19.5 72.1667,19.5 73.5,19.5C 74.7375,24.884 76.4042,30.2174 78.5,35.5C 79.4147,34.6721 80.0814,33.6721 80.5,32.5C 78.7672,28.3046 78.2672,23.9712 79,19.5C 81.6667,18.1667 84.3333,18.1667 87,19.5C 87.5677,24.6219 87.0677,29.6219 85.5,34.5C 85.8357,37.8413 86.1691,41.1746 86.5,44.5C 88.1667,44.5 89.8333,44.5 91.5,44.5C 91.5524,48.1981 91.8857,51.8648 92.5,55.5C 94.1992,55.3398 95.8659,55.5065 97.5,56C 96.2888,56.8928 96.2888,57.7261 97.5,58.5C 98.8498,59.9501 100.516,60.6168 102.5,60.5 Z"/></g>
<g><path style="opacity:1" fill="#a06356" d="M 107.5,57.5 C 110.327,58.3683 113.327,58.3683 116.5,57.5C 115.4,58.5585 114.066,59.3918 112.5,60C 113.056,60.3826 113.389,60.8826 113.5,61.5C 110.061,61.2529 106.728,61.5863 103.5,62.5C 104.279,60.323 105.613,58.6563 107.5,57.5 Z"/></g>
<g><path style="opacity:0.561" fill="#eac5c0" d="M 113.5,61.5 C 122.677,62.4208 131.01,65.5874 138.5,71C 142.148,74.8004 144.148,79.3004 144.5,84.5C 142.455,81.4212 140.622,78.0879 139,74.5C 129.209,65.0025 117.709,61.5025 104.5,64C 99.0734,71.097 92.74,77.097 85.5,82C 78.7198,89.5519 70.7198,95.3852 61.5,99.5C 61.5,99.1667 61.5,98.8333 61.5,98.5C 72.3434,91.6676 82.3434,83.6676 91.5,74.5C 92.4959,74.5858 93.3292,74.2524 94,73.5C 94.6695,71.4098 95.8361,69.7432 97.5,68.5C 99.1394,66.1939 101.139,64.1939 103.5,62.5C 106.728,61.5863 110.061,61.2529 113.5,61.5 Z"/></g>
<g><path style="opacity:1" fill="#8e302d" d="M 171.5,60.5 C 176.692,62.4258 180.692,65.7592 183.5,70.5C 182.127,70.6567 180.793,70.49 179.5,70C 177.059,66.472 174.393,63.3053 171.5,60.5 Z"/></g>
<g><path style="opacity:0.855" fill="#daaaa5" d="M 73.5,42.5 C 73.5701,47.617 72.2367,52.2837 69.5,56.5C 69.5,56.8333 69.5,57.1667 69.5,57.5C 66.042,61.1614 63.542,65.4947 62,70.5C 60.9609,71.7101 59.7942,72.7101 58.5,73.5C 61.1213,67.5968 64.288,61.9301 68,56.5C 70.1579,51.8413 71.9912,47.1746 73.5,42.5 Z"/></g>
<g><path style="opacity:0.416" fill="#aca9a8" d="M 419.5,82.5 C 419.821,88.0262 419.488,93.3595 418.5,98.5C 418.839,91.4264 418.339,84.4264 417,77.5C 411.642,72.1021 405.142,70.1021 397.5,71.5C 405.548,67.7327 412.382,69.3994 418,76.5C 418.813,78.4357 419.313,80.4357 419.5,82.5 Z"/></g>
<g><path style="opacity:1" fill="#b02822" d="M 120.5,56.5 C 121.5,56.5 122.5,56.5 123.5,56.5C 132.173,56.3336 140.84,56.5002 149.5,57C 156.677,59.0027 164.01,60.1693 171.5,60.5C 174.393,63.3053 177.059,66.472 179.5,70C 180.793,70.49 182.127,70.6567 183.5,70.5C 184.786,78.8298 184.786,87.1631 183.5,95.5C 181.801,95.3398 180.134,95.5065 178.5,96C 179.645,102.206 177.478,107.04 172,110.5C 171.503,112.81 171.337,115.143 171.5,117.5C 171.167,119.833 169.833,121.167 167.5,121.5C 164.961,123.677 161.961,125.177 158.5,126C 156.368,129.465 153.535,132.299 150,134.5C 148.869,136.605 147.703,138.605 146.5,140.5C 143.722,143.609 140.389,145.942 136.5,147.5C 128.911,150.628 121.578,154.294 114.5,158.5C 111.302,159.787 107.969,160.453 104.5,160.5C 104.933,157.715 106.266,155.381 108.5,153.5C 114.683,150.655 118.683,145.988 120.5,139.5C 123.81,139.539 126.476,138.206 128.5,135.5C 132.099,131.374 134.766,126.707 136.5,121.5C 137.309,119.708 137.809,117.708 138,115.5C 139.615,111.433 141.949,107.766 145,104.5C 146.244,94.8743 146.744,85.2076 146.5,75.5C 145.5,75.5 144.5,75.5 143.5,75.5C 141.797,71.2928 139.13,67.7928 135.5,65C 129.638,62.9914 123.638,61.4914 117.5,60.5C 118.524,59.1482 119.524,57.8149 120.5,56.5 Z"/></g>
<g><path style="opacity:1" fill="#9b3b3b" d="M 120.5,56.5 C 119.524,57.8149 118.524,59.1482 117.5,60.5C 123.638,61.4914 129.638,62.9914 135.5,65C 139.13,67.7928 141.797,71.2928 143.5,75.5C 144.5,75.5 145.5,75.5 146.5,75.5C 146.744,85.2076 146.244,94.8743 145,104.5C 141.949,107.766 139.615,111.433 138,115.5C 137.809,117.708 137.309,119.708 136.5,121.5C 135.833,121.5 135.167,121.5 134.5,121.5C 135.63,119.685 136.296,117.685 136.5,115.5C 138.415,111.336 140.581,107.336 143,103.5C 144.317,97.2425 144.817,90.9092 144.5,84.5C 144.148,79.3004 142.148,74.8004 138.5,71C 131.01,65.5874 122.677,62.4208 113.5,61.5C 113.389,60.8826 113.056,60.3826 112.5,60C 114.066,59.3918 115.4,58.5585 116.5,57.5C 117.833,57.1667 119.167,56.8333 120.5,56.5 Z"/></g>
<g><path style="opacity:1" fill="#1c1817" d="M 397.5,71.5 C 405.142,70.1021 411.642,72.1021 417,77.5C 418.339,84.4264 418.839,91.4264 418.5,98.5C 417.005,98.4148 416.005,99.0815 415.5,100.5C 416.694,106.812 416.694,113.145 415.5,119.5C 415.126,127.714 414.126,135.714 412.5,143.5C 409.167,143.5 405.833,143.5 402.5,143.5C 403.159,140.545 403.492,137.545 403.5,134.5C 403.437,129.797 403.771,125.13 404.5,120.5C 406.136,116.79 406.802,112.79 406.5,108.5C 407.48,100.856 407.647,93.1894 407,85.5C 403.647,81.362 399.48,80.5287 394.5,83C 389.333,86.8333 384.833,91.3333 381,96.5C 379.313,112.39 377.146,128.057 374.5,143.5C 371.167,143.5 367.833,143.5 364.5,143.5C 364.5,141.833 364.5,140.167 364.5,138.5C 367.008,116.44 369.674,94.4399 372.5,72.5C 376.167,72.5 379.833,72.5 383.5,72.5C 383.5,75.5 383.5,78.5 383.5,81.5C 386.468,81.3739 388.468,79.8739 389.5,77C 392.756,75.884 395.422,74.0507 397.5,71.5 Z"/></g>
<g><path style="opacity:0.62" fill="#c1bebd" d="M 460.5,69.5 C 467.304,69.0638 473.971,69.7305 480.5,71.5C 481.18,76.1202 481.18,80.7869 480.5,85.5C 463.257,81.5386 451.09,87.5386 444,103.5C 442.625,111.857 443.625,119.857 447,127.5C 453.54,132.999 460.707,133.832 468.5,130C 470.691,128.081 473.024,126.747 475.5,126C 476.137,128.243 476.47,130.576 476.5,133C 476.668,136.381 476.001,139.547 474.5,142.5C 465.96,146.37 456.96,147.536 447.5,146C 436.623,141.791 430.123,133.957 428,122.5C 425.768,105.399 430.602,90.7325 442.5,78.5C 448.089,74.5531 454.089,71.5531 460.5,69.5 Z"/></g>
<g><path style="opacity:1" fill="#1b1716" d="M 355.5,81.5 C 354.698,82.9516 354.198,84.6183 354,86.5C 352.806,84.3766 352.14,82.0432 352,79.5C 348.328,80.5117 346.995,82.845 348,86.5C 348.826,84.5946 349.993,84.2612 351.5,85.5C 350.596,88.4141 350.929,91.2474 352.5,94C 351.365,94.7494 350.365,94.5827 349.5,93.5C 350.491,91.8773 349.824,90.8773 347.5,90.5C 347.167,91.1667 346.833,91.8333 346.5,92.5C 347.872,95.3317 348.872,98.3317 349.5,101.5C 348.758,102.287 347.925,102.953 347,103.5C 346.667,108.167 346.333,112.833 346,117.5C 345.781,116.062 345.281,114.729 344.5,113.5C 343.808,114.025 343.308,114.692 343,115.5C 343.086,119.254 342.92,122.921 342.5,126.5C 340.857,126.48 339.524,127.147 338.5,128.5C 337.702,128.043 337.369,127.376 337.5,126.5C 338.301,124.958 338.634,123.292 338.5,121.5C 340.176,120.817 340.843,119.483 340.5,117.5C 342.228,110.399 343.228,103.066 343.5,95.5C 343.5,91.5 343.5,87.5 343.5,83.5C 335.976,82.8991 329.309,84.8991 323.5,89.5C 321.242,89.2249 320.908,88.2249 322.5,86.5C 321.998,85.479 321.332,85.3123 320.5,86C 317.04,89.2958 313.706,92.7958 310.5,96.5C 310.167,96.1667 309.833,95.8333 309.5,95.5C 313.018,90.7368 317.018,86.4034 321.5,82.5C 321,82.1667 320.5,81.8333 320,81.5C 318.217,83.3965 316.217,85.0632 314,86.5C 313.517,85.552 313.351,84.552 313.5,83.5C 315.978,81.1975 318.645,79.0308 321.5,77C 332.814,72.9592 344.481,71.4592 356.5,72.5C 356.632,75.5701 356.299,78.5701 355.5,81.5 Z"/></g>
<g><path style="opacity:1" fill="#1e1a18" d="M 461.5,71.5 C 467.523,71.502 473.523,71.8354 479.5,72.5C 479.5,76.1667 479.5,79.8333 479.5,83.5C 461.176,79.5753 448.676,86.242 442,103.5C 441.333,109.167 441.333,114.833 442,120.5C 444.204,129.371 449.87,133.704 459,133.5C 464.413,133.44 469.247,131.774 473.5,128.5C 474.66,132.459 474.827,136.459 474,140.5C 466.257,144.303 458.09,145.803 449.5,145C 438.644,140.808 432.144,132.975 430,121.5C 427.185,100.542 434.685,84.7089 452.5,74C 455.628,73.1588 458.628,72.3254 461.5,71.5 Z"/></g>
<g><path style="opacity:0.973" fill="#b8756e" d="M 54.5,79.5 C 51.9059,83.272 49.0726,86.9387 46,90.5C 45.3292,91.2524 44.4959,91.5858 43.5,91.5C 44.1667,90.5 44.8333,89.5 45.5,88.5C 48.1667,85.1667 51.1667,82.1667 54.5,79.5 Z"/></g>
<g><path style="opacity:0.655" fill="#bdb9b6" d="M 284.5,48.5 C 289.646,57.5749 289.813,66.9083 285,76.5C 282.833,80 280,82.8333 276.5,85C 287.76,90.8324 293.76,100.166 294.5,113C 294.579,116.451 293.913,119.618 292.5,122.5C 292.822,116.642 292.489,110.975 291.5,105.5C 289.44,97.4437 284.773,91.4437 277.5,87.5C 276.791,86.596 275.791,86.2627 274.5,86.5C 278.512,81.9667 282.012,76.9667 285,71.5C 287.093,63.7698 286.926,56.1032 284.5,48.5 Z"/></g>
<g><path style="opacity:0.851" fill="#b9b7b6" d="M 326.5,145.5 C 330.365,142.398 334.032,139.065 337.5,135.5C 338.449,138.126 338.449,140.792 337.5,143.5C 341.167,143.5 344.833,143.5 348.5,143.5C 350.427,122.789 352.76,102.122 355.5,81.5C 356.299,78.5701 356.632,75.5701 356.5,72.5C 344.481,71.4592 332.814,72.9592 321.5,77C 318.645,79.0308 315.978,81.1975 313.5,83.5C 310.261,86.9829 307.261,90.6496 304.5,94.5C 308.68,84.1536 316.014,76.9869 326.5,73C 336.765,70.521 347.098,70.021 357.5,71.5C 357.833,72.8333 358.167,74.1667 358.5,75.5C 355.559,98.1492 352.725,120.816 350,143.5C 348.938,144.899 347.605,145.899 346,146.5C 342.559,145.618 339.059,145.284 335.5,145.5C 335.762,144.022 335.429,142.689 334.5,141.5C 332.09,143.372 329.423,144.705 326.5,145.5 Z"/></g>
<g><path style="opacity:1" fill="#9c2c24" d="M 91.5,74.5 C 82.3434,83.6676 72.3434,91.6676 61.5,98.5C 55.5,101.167 49.5,103.833 43.5,106.5C 43.9371,104.926 44.9371,103.759 46.5,103C 52.1144,100.756 57.4477,97.9227 62.5,94.5C 61.2643,93.6433 59.931,92.9766 58.5,92.5C 57.52,89.9135 57.1866,87.2469 57.5,84.5C 59.8333,84.5 62.1667,84.5 64.5,84.5C 64.3379,86.5273 64.5045,88.5273 65,90.5C 66.13,91.1136 67.4634,91.1136 69,90.5C 75.0624,86.5441 80.8957,82.2108 86.5,77.5C 87.2811,76.2713 87.7811,74.938 88,73.5C 88.3333,74.1667 88.6667,74.8333 89,75.5C 89.6008,73.6412 90.4341,73.3079 91.5,74.5 Z"/></g>
<g><path style="opacity:0.361" fill="#b9b6b5" d="M 343.5,95.5 C 341.585,102.576 340.585,109.909 340.5,117.5C 340.843,119.483 340.176,120.817 338.5,121.5C 338.634,123.292 338.301,124.958 337.5,126.5C 333.816,133.34 328.149,135.84 320.5,134C 319.333,132.833 318.167,131.667 317,130.5C 315.641,127.276 314.141,124.276 312.5,121.5C 311.28,108.998 314.947,98.3312 323.5,89.5C 329.309,84.8991 335.976,82.8991 343.5,83.5C 343.5,87.5 343.5,91.5 343.5,95.5 Z M 338.5,121.5 C 336.124,127.54 331.79,131.54 325.5,133.5C 323.615,132.391 321.615,131.557 319.5,131C 313.061,120.042 312.895,108.876 319,97.5C 324.564,89.1344 332.397,85.1344 342.5,85.5C 340.776,97.4548 339.443,109.455 338.5,121.5 Z"/></g>
<g><path style="opacity:1" fill="#1a1616" d="M 277.5,87.5 C 284.773,91.4437 289.44,97.4437 291.5,105.5C 291.751,111.892 291.418,118.225 290.5,124.5C 288.241,131.386 283.908,136.386 277.5,139.5C 276.325,139.719 275.325,139.386 274.5,138.5C 275.833,137.833 277.167,137.167 278.5,136.5C 276.439,133.848 273.772,132.014 270.5,131C 273,130.329 274.667,128.829 275.5,126.5C 284.073,113.241 281.74,102.407 268.5,94C 264.93,92.6905 261.263,91.8572 257.5,91.5C 254.713,90.5233 251.713,90.19 248.5,90.5C 248.5,89.5 248.5,88.5 248.5,87.5C 253.16,86.8333 257.826,86.6666 262.5,87C 260.744,87.2022 259.078,87.7022 257.5,88.5C 258.667,88.8333 259.833,89.1667 261,89.5C 265.066,88.4005 269.066,88.4005 273,89.5C 274.049,87.8934 275.549,87.2267 277.5,87.5 Z"/></g>
<g><path style="opacity:0.882" fill="#bdbab9" d="M 500.5,144.5 C 492.627,141.11 487.793,135.11 486,126.5C 481.745,106.675 486.579,89.5079 500.5,75C 518.185,65.1179 531.352,69.2846 540,87.5C 543.279,102.789 541.612,117.456 535,131.5C 526.578,144.821 515.078,149.154 500.5,144.5 Z M 512.5,84.5 C 517.223,83.5531 521.056,84.8864 524,88.5C 527.474,101.017 526.807,113.35 522,125.5C 519.107,129.566 515.274,132.232 510.5,133.5C 507.345,132.85 504.845,131.183 503,128.5C 499.592,117.036 499.925,105.703 504,94.5C 506.353,90.6561 509.186,87.3227 512.5,84.5 Z"/></g>
<g><path style="opacity:0.612" fill="#bab6b5" d="M 257.5,91.5 C 261.263,91.8572 264.93,92.6905 268.5,94C 281.74,102.407 284.073,113.241 275.5,126.5C 272.064,128.777 268.398,130.611 264.5,132C 257.508,132.5 250.508,132.666 243.5,132.5C 244.458,120.126 245.792,107.792 247.5,95.5C 248.434,94.4324 248.768,93.099 248.5,91.5C 251.5,91.5 254.5,91.5 257.5,91.5 Z M 249.5,92.5 C 259.52,91.463 268.02,94.463 275,101.5C 279.309,108.613 279.643,115.946 276,123.5C 273.087,126.087 269.92,128.254 266.5,130C 260.137,130.247 253.804,130.747 247.5,131.5C 246.263,131.444 245.263,130.944 244.5,130C 247.512,117.726 249.179,105.226 249.5,92.5 Z"/></g>
<g><path style="opacity:1" fill="#191716" d="M 538.5,92.5 C 538.666,100.174 538.5,107.841 538,115.5C 537.667,113.5 537.333,111.5 537,109.5C 536.257,111.645 535.424,111.811 534.5,110C 538.167,105.468 538.501,100.634 535.5,95.5C 534.264,96.2458 532.93,96.5792 531.5,96.5C 531.82,105.435 530.487,114.101 527.5,122.5C 530.192,124.539 529.858,125.373 526.5,125C 525.663,123.989 525.33,122.822 525.5,121.5C 525.629,119.784 525.962,118.117 526.5,116.5C 528.033,112.104 528.7,107.437 528.5,102.5C 528.498,98.9825 528.165,95.6491 527.5,92.5C 524.26,81.5337 517.926,79.0337 508.5,85C 505.552,88.1099 503.219,91.6099 501.5,95.5C 500.624,95.6309 499.957,95.2975 499.5,94.5C 500.304,93.0589 500.971,91.5589 501.5,90C 499.976,88.8058 498.81,87.3058 498,85.5C 498.351,87.8859 498.185,90.2192 497.5,92.5C 496.322,89.6092 495.655,86.6092 495.5,83.5C 506.268,69.4472 518.768,67.7805 533,78.5C 536.041,82.6397 537.875,87.3064 538.5,92.5 Z"/></g>
<g><path style="opacity:0.876" fill="#797979" d="M 527.5,92.5 C 528.165,95.6491 528.498,98.9825 528.5,102.5C 528.7,107.437 528.033,112.104 526.5,116.5C 527.323,108.529 527.656,100.529 527.5,92.5 Z"/></g>
<g><path style="opacity:0.886" fill="#c8807f" d="M 61.5,98.5 C 61.5,98.8333 61.5,99.1667 61.5,99.5C 56.4189,102.707 51.0856,105.374 45.5,107.5C 44.8333,107.5 44.1667,107.5 43.5,107.5C 43.5,107.167 43.5,106.833 43.5,106.5C 49.5,103.833 55.5,101.167 61.5,98.5 Z"/></g>
<g><path style="opacity:1" fill="#99382f" d="M 69.5,57.5 C 70.3774,61.9096 68.8774,65.2429 65,67.5C 61.5491,74.6336 56.8825,80.9669 51,86.5C 51.4411,92.5303 48.9411,94.5303 43.5,92.5C 43.5,93.8333 43.5,95.1667 43.5,96.5C 36.8847,100.168 30.8847,104.835 25.5,110.5C 26,110.833 26.5,111.167 27,111.5C 32.439,109.846 37.939,108.513 43.5,107.5C 35.3236,111.914 26.6569,115.247 17.5,117.5C 17.5,115.833 17.5,114.167 17.5,112.5C 26.4576,106 35.1243,99.0002 43.5,91.5C 44.4959,91.5858 45.3292,91.2524 46,90.5C 49.0726,86.9387 51.9059,83.272 54.5,79.5C 55.4486,77.2228 56.7819,75.2228 58.5,73.5C 59.7942,72.7101 60.9609,71.7101 62,70.5C 63.542,65.4947 66.042,61.1614 69.5,57.5 Z"/></g>
<g><path style="opacity:1" fill="#9b302e" d="M 183.5,70.5 C 185.255,72.8035 186.422,75.4702 187,78.5C 187.348,93.7887 182.181,106.789 171.5,117.5C 171.337,115.143 171.503,112.81 172,110.5C 177.478,107.04 179.645,102.206 178.5,96C 180.134,95.5065 181.801,95.3398 183.5,95.5C 184.786,87.1631 184.786,78.8298 183.5,70.5 Z"/></g>
<g><path style="opacity:1" fill="#534e4b" d="M 343.5,95.5 C 343.228,103.066 342.228,110.399 340.5,117.5C 340.585,109.909 341.585,102.576 343.5,95.5 Z"/></g>
<g><path style="opacity:1" fill="#c1bdbc" d="M 397.5,71.5 C 395.422,74.0507 392.756,75.884 389.5,77C 388.468,79.8739 386.468,81.3739 383.5,81.5C 383.5,78.5 383.5,75.5 383.5,72.5C 379.833,72.5 376.167,72.5 372.5,72.5C 369.674,94.4399 367.008,116.44 364.5,138.5C 363.539,140.265 363.205,142.265 363.5,144.5C 367.371,144.815 371.038,144.482 374.5,143.5C 377.146,128.057 379.313,112.39 381,96.5C 384.833,91.3333 389.333,86.8333 394.5,83C 399.48,80.5287 403.647,81.362 407,85.5C 407.647,93.1894 407.48,100.856 406.5,108.5C 404.864,112.21 404.198,116.21 404.5,120.5C 403.771,125.13 403.437,129.797 403.5,134.5C 401.989,137.544 401.322,140.878 401.5,144.5C 405.371,144.815 409.038,144.482 412.5,143.5C 414.126,135.714 415.126,127.714 415.5,119.5C 417.713,112.818 418.713,105.818 418.5,98.5C 419.488,93.3595 419.821,88.0262 419.5,82.5C 420.886,85.2153 421.553,88.2153 421.5,91.5C 419.465,109.182 417.298,126.849 415,144.5C 413.915,145.293 412.748,145.96 411.5,146.5C 408.109,145.788 404.609,145.455 401,145.5C 402.116,127.118 403.949,108.784 406.5,90.5C 406.689,85.8534 404.522,83.8534 400,84.5C 397.7,84.4944 395.534,84.9944 393.5,86C 390.012,89.3222 386.679,92.8222 383.5,96.5C 380.891,112.476 378.391,128.476 376,144.5C 375.196,145.804 374.029,146.471 372.5,146.5C 369.87,146.464 367.203,146.464 364.5,146.5C 362.709,146.038 361.709,144.871 361.5,143C 364.831,119.517 367.998,96.0167 371,72.5C 375.271,70.5044 379.771,70.0044 384.5,71C 385.274,73.405 385.774,75.905 386,78.5C 389.21,75.1199 393.043,72.7866 397.5,71.5 Z"/></g>
<g><path style="opacity:1" fill="#393836" d="M 418.5,98.5 C 418.713,105.818 417.713,112.818 415.5,119.5C 416.694,113.145 416.694,106.812 415.5,100.5C 416.005,99.0815 417.005,98.4148 418.5,98.5 Z"/></g>
<g><path style="opacity:0.541" fill="#eac4c0" d="M 45.5,88.5 C 44.8333,89.5 44.1667,90.5 43.5,91.5C 35.1243,99.0002 26.4576,106 17.5,112.5C 13.018,114.909 8.68467,117.575 4.5,120.5C 5,120.833 5.5,121.167 6,121.5C 10.0272,120.379 13.8605,119.045 17.5,117.5C 26.6569,115.247 35.3236,111.914 43.5,107.5C 44.1667,107.5 44.8333,107.5 45.5,107.5C 36.8658,113.224 27.5325,117.724 17.5,121C 12.5722,121.426 7.9055,122.593 3.5,124.5C 2.26381,123.754 0.930472,123.421 -0.5,123.5C -0.5,122.833 -0.5,122.167 -0.5,121.5C 15.9668,112.026 31.3002,101.026 45.5,88.5 Z"/></g>
<g><path style="opacity:0.916" fill="#848280" d="M 500.5,101.5 C 499.669,108.131 499.336,114.798 499.5,121.5C 498.836,118.854 498.502,116.021 498.5,113C 498.286,108.867 498.952,105.034 500.5,101.5 Z"/></g>
<g><path style="opacity:1" fill="#81433d" d="M 17.5,112.5 C 17.5,114.167 17.5,115.833 17.5,117.5C 13.8605,119.045 10.0272,120.379 6,121.5C 5.5,121.167 5,120.833 4.5,120.5C 8.68467,117.575 13.018,114.909 17.5,112.5 Z"/></g>
<g><path style="opacity:1" fill="#1f1a1a" d="M 495.5,83.5 C 495.655,86.6092 496.322,89.6092 497.5,92.5C 498.185,90.2192 498.351,87.8859 498,85.5C 498.81,87.3058 499.976,88.8058 501.5,90C 500.971,91.5589 500.304,93.0589 499.5,94.5C 499.957,95.2975 500.624,95.6309 501.5,95.5C 500.659,97.3792 500.325,99.3792 500.5,101.5C 498.952,105.034 498.286,108.867 498.5,113C 498.502,116.021 498.836,118.854 499.5,121.5C 499.643,130.168 503.976,134.501 512.5,134.5C 509.972,135.166 507.306,135.832 504.5,136.5C 506.335,137.428 506.668,138.594 505.5,140C 503.5,140.333 501.5,140.667 499.5,141C 500.381,141.708 501.047,142.542 501.5,143.5C 501.167,143.5 500.833,143.5 500.5,143.5C 492.219,138.625 487.719,131.291 487,121.5C 485.03,107.604 487.864,94.9375 495.5,83.5 Z"/></g>
<g><path style="opacity:1" fill="#554c4d" d="M 406.5,108.5 C 406.802,112.79 406.136,116.79 404.5,120.5C 404.198,116.21 404.864,112.21 406.5,108.5 Z"/></g>
<g><path style="opacity:0.831" fill="#ceaba9" d="M 136.5,115.5 C 136.296,117.685 135.63,119.685 134.5,121.5C 133.833,121.5 133.167,121.5 132.5,121.5C 133.475,119.205 134.808,117.205 136.5,115.5 Z"/></g>
<g><path style="opacity:1" fill="#777473" d="M 291.5,105.5 C 292.489,110.975 292.822,116.642 292.5,122.5C 292.5,122.833 292.5,123.167 292.5,123.5C 291.833,123.833 291.167,124.167 290.5,124.5C 291.418,118.225 291.751,111.892 291.5,105.5 Z"/></g>
<g><path style="opacity:1" fill="#1e1a19" d="M 538.5,92.5 C 542.649,109.92 538.649,125.42 526.5,139C 523.3,141.099 519.967,142.933 516.5,144.5C 511.453,144.663 506.453,144.329 501.5,143.5C 501.047,142.542 500.381,141.708 499.5,141C 501.5,140.667 503.5,140.333 505.5,140C 506.668,138.594 506.335,137.428 504.5,136.5C 507.306,135.832 509.972,135.166 512.5,134.5C 519.199,132.467 523.533,128.134 525.5,121.5C 525.33,122.822 525.663,123.989 526.5,125C 529.858,125.373 530.192,124.539 527.5,122.5C 530.487,114.101 531.82,105.435 531.5,96.5C 532.93,96.5792 534.264,96.2458 535.5,95.5C 538.501,100.634 538.167,105.468 534.5,110C 535.424,111.811 536.257,111.645 537,109.5C 537.333,111.5 537.667,113.5 538,115.5C 538.5,107.841 538.666,100.174 538.5,92.5 Z"/></g>
<g><path style="opacity:1" fill="#9c3932" d="M 167.5,121.5 C 166.5,123.813 165.166,125.813 163.5,127.5C 159.193,131.472 154.859,135.472 150.5,139.5C 149.041,139.433 147.708,139.766 146.5,140.5C 147.703,138.605 148.869,136.605 150,134.5C 153.535,132.299 156.368,129.465 158.5,126C 161.961,125.177 164.961,123.677 167.5,121.5 Z"/></g>
<g><path style="opacity:1" fill="#a5554f" d="M 132.5,121.5 C 133.167,121.5 133.833,121.5 134.5,121.5C 131.229,127.102 127.229,132.102 122.5,136.5C 125.807,131.518 129.141,126.518 132.5,121.5 Z"/></g>
<g><path style="opacity:1" fill="#1d1918" d="M 323.5,89.5 C 314.947,98.3312 311.28,108.998 312.5,121.5C 312.502,124.826 311.502,127.826 309.5,130.5C 309.608,131.442 309.941,132.275 310.5,133C 306.815,133.914 307.148,134.581 311.5,135C 310.692,135.308 310.025,135.808 309.5,136.5C 311.743,140.402 314.91,141.402 319,139.5C 321.543,140.876 321.709,142.043 319.5,143C 321.811,142.845 324.144,142.845 326.5,143C 323.274,144.199 319.941,144.699 316.5,144.5C 308.847,141.009 303.847,135.175 301.5,127C 299.782,116.214 300.782,105.714 304.5,95.5C 304.5,95.1667 304.5,94.8333 304.5,94.5C 307.261,90.6496 310.261,86.9829 313.5,83.5C 313.351,84.552 313.517,85.552 314,86.5C 316.217,85.0632 318.217,83.3965 320,81.5C 320.5,81.8333 321,82.1667 321.5,82.5C 317.018,86.4034 313.018,90.7368 309.5,95.5C 309.833,95.8333 310.167,96.1667 310.5,96.5C 313.706,92.7958 317.04,89.2958 320.5,86C 321.332,85.3123 321.998,85.479 322.5,86.5C 320.908,88.2249 321.242,89.2249 323.5,89.5 Z"/></g>
<g><path style="opacity:1" fill="#1e1a18" d="M 355.5,81.5 C 352.76,102.122 350.427,122.789 348.5,143.5C 344.833,143.5 341.167,143.5 337.5,143.5C 338.449,140.792 338.449,138.126 337.5,135.5C 334.032,139.065 330.365,142.398 326.5,145.5C 325.5,145.5 324.5,145.5 323.5,145.5C 320.941,145.802 318.607,145.468 316.5,144.5C 319.941,144.699 323.274,144.199 326.5,143C 324.144,142.845 321.811,142.845 319.5,143C 321.709,142.043 321.543,140.876 319,139.5C 314.91,141.402 311.743,140.402 309.5,136.5C 310.025,135.808 310.692,135.308 311.5,135C 307.148,134.581 306.815,133.914 310.5,133C 309.941,132.275 309.608,131.442 309.5,130.5C 311.502,127.826 312.502,124.826 312.5,121.5C 314.141,124.276 315.641,127.276 317,130.5C 318.167,131.667 319.333,132.833 320.5,134C 328.149,135.84 333.816,133.34 337.5,126.5C 337.369,127.376 337.702,128.043 338.5,128.5C 339.524,127.147 340.857,126.48 342.5,126.5C 342.92,122.921 343.086,119.254 343,115.5C 343.308,114.692 343.808,114.025 344.5,113.5C 345.281,114.729 345.781,116.062 346,117.5C 346.333,112.833 346.667,108.167 347,103.5C 347.925,102.953 348.758,102.287 349.5,101.5C 348.872,98.3317 347.872,95.3317 346.5,92.5C 346.833,91.8333 347.167,91.1667 347.5,90.5C 349.824,90.8773 350.491,91.8773 349.5,93.5C 350.365,94.5827 351.365,94.7494 352.5,94C 350.929,91.2474 350.596,88.4141 351.5,85.5C 349.993,84.2612 348.826,84.5946 348,86.5C 346.995,82.845 348.328,80.5117 352,79.5C 352.14,82.0432 352.806,84.3766 354,86.5C 354.198,84.6183 354.698,82.9516 355.5,81.5 Z"/></g>
<g><path style="opacity:0.925" fill="#c7c5c4" d="M 527.5,92.5 C 527.656,100.529 527.323,108.529 526.5,116.5C 525.962,118.117 525.629,119.784 525.5,121.5C 523.533,128.134 519.199,132.467 512.5,134.5C 503.976,134.501 499.643,130.168 499.5,121.5C 499.336,114.798 499.669,108.131 500.5,101.5C 500.325,99.3792 500.659,97.3792 501.5,95.5C 503.219,91.6099 505.552,88.1099 508.5,85C 517.926,79.0337 524.26,81.5337 527.5,92.5 Z M 512.5,84.5 C 509.186,87.3227 506.353,90.6561 504,94.5C 499.925,105.703 499.592,117.036 503,128.5C 504.845,131.183 507.345,132.85 510.5,133.5C 515.274,132.232 519.107,129.566 522,125.5C 526.807,113.35 527.474,101.017 524,88.5C 521.056,84.8864 517.223,83.5531 512.5,84.5 Z"/></g>
<g><path style="opacity:0.533" fill="#bcb8b8" d="M 304.5,95.5 C 300.782,105.714 299.782,116.214 301.5,127C 303.847,135.175 308.847,141.009 316.5,144.5C 318.607,145.468 320.941,145.802 323.5,145.5C 315.888,147.633 309.722,145.299 305,138.5C 303.478,136.259 302.145,133.926 301,131.5C 299.495,122.887 299.161,114.22 300,105.5C 300.739,101.699 302.239,98.3657 304.5,95.5 Z"/></g>
<g><path style="opacity:1" fill="#1c1817" d="M 247.5,95.5 C 245.792,107.792 244.458,120.126 243.5,132.5C 250.508,132.666 257.508,132.5 264.5,132C 268.398,130.611 272.064,128.777 275.5,126.5C 274.667,128.829 273,130.329 270.5,131C 273.772,132.014 276.439,133.848 278.5,136.5C 277.167,137.167 275.833,137.833 274.5,138.5C 275.325,139.386 276.325,139.719 277.5,139.5C 275.497,141.982 272.831,142.982 269.5,142.5C 256.526,143.401 243.526,143.735 230.5,143.5C 230.947,136.144 231.614,128.811 232.5,121.5C 234.552,103.138 236.885,84.8051 239.5,66.5C 240.748,63.0584 241.581,59.3917 242,55.5C 242.334,61.3336 242.168,67.1669 241.5,73C 241.833,75.5 242.167,78 242.5,80.5C 245.144,81.741 245.977,83.741 245,86.5C 244.105,83.6253 243.272,83.2919 242.5,85.5C 243.865,88.6866 244.699,92.0199 245,95.5C 245.683,87.6796 246.516,87.6796 247.5,95.5 Z"/></g>
<g><path style="opacity:0.729" fill="#bfbbbb" d="M 292.5,123.5 C 288.582,136.422 279.915,143.422 266.5,144.5C 267.5,143.833 268.5,143.167 269.5,142.5C 272.831,142.982 275.497,141.982 277.5,139.5C 283.908,136.386 288.241,131.386 290.5,124.5C 291.167,124.167 291.833,123.833 292.5,123.5 Z"/></g>
<g><path style="opacity:0.973" fill="#6c6867" d="M 232.5,121.5 C 231.614,128.811 230.947,136.144 230.5,143.5C 229.648,138.336 229.648,133.003 230.5,127.5C 230.5,125.833 230.5,124.167 230.5,122.5C 231.167,122.167 231.833,121.833 232.5,121.5 Z"/></g>
<g><path style="opacity:1" fill="#7a7675" d="M 269.5,142.5 C 268.5,143.167 267.5,143.833 266.5,144.5C 266.5,145.167 266.167,145.5 265.5,145.5C 253.833,144.833 242.167,144.167 230.5,143.5C 243.526,143.735 256.526,143.401 269.5,142.5 Z"/></g>
<g><path style="opacity:1" fill="#75716e" d="M 364.5,138.5 C 364.5,140.167 364.5,141.833 364.5,143.5C 367.833,143.5 371.167,143.5 374.5,143.5C 371.038,144.482 367.371,144.815 363.5,144.5C 363.205,142.265 363.539,140.265 364.5,138.5 Z"/></g>
<g><path style="opacity:1" fill="#706c69" d="M 403.5,134.5 C 403.492,137.545 403.159,140.545 402.5,143.5C 405.833,143.5 409.167,143.5 412.5,143.5C 409.038,144.482 405.371,144.815 401.5,144.5C 401.322,140.878 401.989,137.544 403.5,134.5 Z"/></g>
<g><path style="opacity:0.65" fill="#d0cccb" d="M 230.5,127.5 C 229.648,133.003 229.648,138.336 230.5,143.5C 242.167,144.167 253.833,144.833 265.5,145.5C 253.167,145.5 240.833,145.5 228.5,145.5C 228.334,140.821 228.501,136.155 229,131.5C 229.21,129.942 229.71,128.609 230.5,127.5 Z"/></g>
<g><path style="opacity:1" fill="#645f5e" d="M 500.5,144.5 C 500.5,144.167 500.5,143.833 500.5,143.5C 500.833,143.5 501.167,143.5 501.5,143.5C 506.453,144.329 511.453,144.663 516.5,144.5C 511.297,145.757 505.964,145.757 500.5,144.5 Z"/></g>
<g><path style="opacity:0.902" fill="#d49493" d="M 150.5,139.5 C 143.549,146.106 135.549,151.106 126.5,154.5C 129.833,152.167 133.167,149.833 136.5,147.5C 140.389,145.942 143.722,143.609 146.5,140.5C 147.708,139.766 149.041,139.433 150.5,139.5 Z"/></g>
<g><path style="opacity:1" fill="#963c32" d="M 136.5,147.5 C 133.167,149.833 129.833,152.167 126.5,154.5C 122.155,156.901 117.822,159.401 113.5,162C 110.242,163.467 106.908,164.633 103.5,165.5C 107.263,163.352 110.93,161.019 114.5,158.5C 121.578,154.294 128.911,150.628 136.5,147.5 Z"/></g>
<g><path style="opacity:1" fill="#ab2a2a" d="M 134.5,121.5 C 135.167,121.5 135.833,121.5 136.5,121.5C 134.766,126.707 132.099,131.374 128.5,135.5C 126.476,138.206 123.81,139.539 120.5,139.5C 118.683,145.988 114.683,150.655 108.5,153.5C 106.266,155.381 104.933,157.715 104.5,160.5C 107.969,160.453 111.302,159.787 114.5,158.5C 110.93,161.019 107.263,163.352 103.5,165.5C 100.032,166.101 96.6988,167.101 93.5,168.5C 91.816,167.473 90.1494,166.473 88.5,165.5C 96.1368,159.676 103.803,153.842 111.5,148C 113.464,146.549 114.797,144.716 115.5,142.5C 117.833,140.5 120.167,138.5 122.5,136.5C 127.229,132.102 131.229,127.102 134.5,121.5 Z"/></g>
<g><path style="opacity:0.616" fill="#b57070" d="M 103.5,165.5 C 101.151,167.341 98.4848,168.674 95.5,169.5C 94.8333,169.5 94.1667,169.5 93.5,169.5C 93.5,169.167 93.5,168.833 93.5,168.5C 96.6988,167.101 100.032,166.101 103.5,165.5 Z"/></g>
<g><path style="opacity:1" fill="#933334" d="M 88.5,165.5 C 90.1494,166.473 91.816,167.473 93.5,168.5C 93.5,168.833 93.5,169.167 93.5,169.5C 90.6887,169.826 88.022,170.659 85.5,172C 82.8333,172.667 80.1667,172.667 77.5,172C 81.1619,169.835 84.8286,167.669 88.5,165.5 Z"/></g>
<g><path style="opacity:1" fill="#dbb5b9" d="M 115.5,142.5 C 114.797,144.716 113.464,146.549 111.5,148C 103.803,153.842 96.1368,159.676 88.5,165.5C 84.8286,167.669 81.1619,169.835 77.5,172C 80.1667,172.667 82.8333,172.667 85.5,172C 88.022,170.659 90.6887,169.826 93.5,169.5C 94.1667,169.5 94.8333,169.5 95.5,169.5C 94.3998,170.558 93.0664,171.392 91.5,172C 85.0777,173.53 78.7444,175.363 72.5,177.5C 70.8987,176.965 70.3987,175.965 71,174.5C 86.8282,165.165 101.662,154.498 115.5,142.5 Z"/></g>
<g><path style="opacity:0.369" fill="#c0bdbc" d="M 578.5,283.5 C 577.833,284.833 577.167,286.167 576.5,287.5C 577.249,281.176 577.915,274.843 578.5,268.5C 579.434,262.158 580.434,255.825 581.5,249.5C 583.561,239.395 584.894,229.061 585.5,218.5C 587.006,212.269 587.673,205.936 587.5,199.5C 583.833,199.5 580.167,199.5 576.5,199.5C 574.585,211.82 572.919,224.153 571.5,236.5C 571.5,237.833 571.5,239.167 571.5,240.5C 569.563,247.906 568.563,255.573 568.5,263.5C 568.5,264.167 568.5,264.833 568.5,265.5C 567.511,269.373 566.511,273.373 565.5,277.5C 564.614,276.675 564.281,275.675 564.5,274.5C 568.472,249.751 571.639,224.751 574,199.5C 574.5,199 575,198.5 575.5,198C 580.202,197.172 584.869,197.338 589.5,198.5C 586.507,226.829 582.841,255.162 578.5,283.5 Z"/></g>
<g><path style="opacity:0.357" fill="#c6c4c3" d="M 520.5,199.5 C 535.82,223.89 550.487,248.89 564.5,274.5C 563.13,274.144 562.13,273.31 561.5,272C 547.413,247.983 533.746,223.817 520.5,199.5 Z"/></g>
<g><path style="opacity:1" fill="#1f1a16" d="M 585.5,218.5 C 583.445,228.604 582.111,238.938 581.5,249.5C 580.434,255.825 579.434,262.158 578.5,268.5C 579.011,264.97 578.344,261.804 576.5,259C 577.167,258.333 577.833,257.667 578.5,257C 577.572,256.612 576.905,255.945 576.5,255C 577.517,252.213 577.684,249.38 577,246.5C 575.305,251.211 573.638,255.877 572,260.5C 571.092,256.511 571.759,252.845 574,249.5C 574.557,241.48 574.89,233.48 575,225.5C 573.832,229.224 572.665,232.891 571.5,236.5C 572.919,224.153 574.585,211.82 576.5,199.5C 580.167,199.5 583.833,199.5 587.5,199.5C 587.673,205.936 587.006,212.269 585.5,218.5 Z"/></g>
<g><path style="opacity:0.522" fill="#bcbab9" d="M 783.5,196.5 C 787.182,196.335 790.848,196.501 794.5,197C 795.517,198.049 795.684,199.216 795,200.5C 788.5,208.833 782,217.167 775.5,225.5C 772.554,226.655 769.554,226.821 766.5,226C 765.549,225.282 765.383,224.449 766,223.5C 771.238,215.365 776.238,207.032 781,198.5C 781.995,197.934 782.828,197.267 783.5,196.5 Z"/></g>
<g><path style="opacity:1" fill="#1c1918" d="M 782.5,198.5 C 786.182,198.335 789.848,198.501 793.5,199C 787.167,207.333 780.833,215.667 774.5,224C 772.421,224.808 770.421,224.641 768.5,223.5C 773.173,215.123 777.84,206.79 782.5,198.5 Z"/></g>
<g><path style="opacity:0.678" fill="#bfbdbd" d="M 520.5,199.5 C 517.946,198.612 515.279,198.279 512.5,198.5C 511.041,213.502 509.374,228.502 507.5,243.5C 503.679,264.205 501.012,285.205 499.5,306.5C 503.167,306.5 506.833,306.5 510.5,306.5C 512.211,302.119 512.877,297.453 512.5,292.5C 513.408,284.811 514.408,277.145 515.5,269.5C 516.167,267.167 516.833,264.833 517.5,262.5C 516.476,276.589 514.809,290.589 512.5,304.5C 513.047,306.712 512.047,308.379 509.5,309.5C 506.5,308.167 503.5,308.167 500.5,309.5C 496.387,308.326 495.553,305.993 498,302.5C 502.004,268.121 506.338,233.788 511,199.5C 512.353,198.296 514.019,197.629 516,197.5C 517.986,197.569 519.486,198.235 520.5,199.5 Z"/></g>
<g><path style="opacity:0.702" fill="#bdbdbd" d="M 729.5,204.5 C 738.008,204.833 741.175,209.166 739,217.5C 734.879,223.17 730.212,223.503 725,218.5C 723.19,212.519 724.69,207.852 729.5,204.5 Z"/></g>
<g><path style="opacity:1" fill="#1a1a1a" d="M 728.5,206.5 C 735.825,205.992 738.658,209.326 737,216.5C 733.521,221.757 729.854,221.757 726,216.5C 724.861,212.579 725.695,209.246 728.5,206.5 Z"/></g>
<g><path style="opacity:1" fill="#1e1919" d="M 266.5,223.5 C 264.918,231.624 263.918,239.958 263.5,248.5C 263.5,248.833 263.5,249.167 263.5,249.5C 263.167,249.5 262.833,249.5 262.5,249.5C 262.664,246.813 262.497,244.146 262,241.5C 261.808,243.577 261.308,245.577 260.5,247.5C 259.614,246.675 259.281,245.675 259.5,244.5C 257.208,244.756 255.041,244.423 253,243.5C 252.536,244.094 252.369,244.761 252.5,245.5C 241.957,244.717 232.957,248.051 225.5,255.5C 225.481,253.94 225.148,252.44 224.5,251C 224.833,250.5 225.167,250 225.5,249.5C 226.451,250.326 227.451,250.492 228.5,250C 226.564,247.958 224.897,245.791 223.5,243.5C 227.955,239.573 232.955,236.573 238.5,234.5C 243.797,233.725 249.13,233.392 254.5,233.5C 255.713,222.177 256.879,210.844 258,199.5C 261.73,198.54 265.563,198.207 269.5,198.5C 268.257,206.781 267.257,215.114 266.5,223.5 Z"/></g>
<g><path style="opacity:1" fill="#6e6c6b" d="M 585.5,218.5 C 584.894,229.061 583.561,239.395 581.5,249.5C 582.111,238.938 583.445,228.604 585.5,218.5 Z"/></g>
<g><path style="opacity:0.427" fill="#c5c2c1" d="M 265.5,241.5 C 265.833,235.5 266.167,229.5 266.5,223.5C 267.257,215.114 268.257,206.781 269.5,198.5C 265.563,198.207 261.73,198.54 258,199.5C 256.879,210.844 255.713,222.177 254.5,233.5C 249.13,233.392 243.797,233.725 238.5,234.5C 238.918,233.778 239.584,233.278 240.5,233C 244.486,232.501 248.486,232.334 252.5,232.5C 253.969,221.182 255.469,209.848 257,198.5C 261.413,197.368 265.913,197.201 270.5,198C 271.059,198.725 271.392,199.558 271.5,200.5C 269.731,214.343 267.731,228.01 265.5,241.5 Z"/></g>
<g><path style="opacity:0.388" fill="#c3c0bf" d="M 321.5,245.5 C 311.794,233.449 300.127,231.282 286.5,239C 282.583,243.405 278.916,247.905 275.5,252.5C 282.735,235.051 295.402,229.218 313.5,235C 317.511,237.543 320.178,241.043 321.5,245.5 Z"/></g>
<g><path style="opacity:0.867" fill="#dcdcda" d="M 701.5,233.5 C 697.298,233.183 693.298,233.517 689.5,234.5C 688.167,234.5 686.833,234.5 685.5,234.5C 688.356,232.994 691.523,232.328 695,232.5C 697.361,232.504 699.527,232.837 701.5,233.5 Z"/></g>
<g><path style="opacity:1" fill="#989695" d="M 689.5,234.5 C 693.298,233.517 697.298,233.183 701.5,233.5C 703.415,233.216 705.081,233.549 706.5,234.5C 707.791,238.601 707.791,242.601 706.5,246.5C 706.789,242.894 706.456,239.394 705.5,236C 700.246,234.729 694.913,234.229 689.5,234.5 Z"/></g>
<g><path style="opacity:0.756" fill="#b8b7b6" d="M 454.5,252.5 C 454.5,248.167 454.5,243.833 454.5,239.5C 454.5,238.5 454.5,237.5 454.5,236.5C 427.978,230.91 409.978,240.576 400.5,265.5C 399.335,274.147 399.168,282.814 400,291.5C 400.232,292.737 400.732,293.737 401.5,294.5C 409.75,310.667 420.417,312.667 433.5,300.5C 435.552,301.053 435.885,302.053 434.5,303.5C 434.5,304.833 434.5,306.167 434.5,307.5C 433.842,306.602 433.176,305.602 432.5,304.5C 417.327,314.19 406.16,310.523 399,293.5C 394.174,274.6 398.341,258.1 411.5,244C 416.918,239.125 423.251,236.125 430.5,235C 439.494,234.5 448.494,234.334 457.5,234.5C 456.493,240.631 455.493,246.631 454.5,252.5 Z"/></g>
<g><path style="opacity:0.696" fill="#c4c2c2" d="M 735.5,239.5 C 735.5,238.167 735.5,236.833 735.5,235.5C 731.298,235.183 727.298,235.517 723.5,236.5C 722.705,243.761 721.705,251.094 720.5,258.5C 719.833,260.5 719.167,262.5 718.5,264.5C 719.008,254.752 720.175,245.085 722,235.5C 726.88,234.157 731.713,233.823 736.5,234.5C 736.784,236.415 736.451,238.081 735.5,239.5 Z"/></g>
<g><path style="opacity:1" fill="#bbbbbb" d="M 685.5,234.5 C 683.898,236.074 681.898,236.741 679.5,236.5C 681.102,234.926 683.102,234.259 685.5,234.5 Z"/></g>
<g><path style="opacity:1" fill="#1e1a1a" d="M 321.5,245.5 C 322.15,247.435 322.483,249.435 322.5,251.5C 321.883,251.389 321.383,251.056 321,250.5C 318.922,259.631 317.755,259.298 317.5,249.5C 315.516,249.617 313.85,248.95 312.5,247.5C 311.893,247.624 311.56,247.957 311.5,248.5C 298.104,241.361 289.771,245.361 286.5,260.5C 295.167,260.5 303.833,260.5 312.5,260.5C 303.991,261.167 295.324,261.833 286.5,262.5C 289.704,263.204 292.871,263.87 296,264.5C 302.076,263.524 308.242,263.19 314.5,263.5C 314.5,264.5 314.5,265.5 314.5,266.5C 303.833,266.5 293.167,266.5 282.5,266.5C 282.228,272.882 281.228,273.048 279.5,267C 277.655,265.872 275.655,265.372 273.5,265.5C 273.952,261.454 274.619,257.454 275.5,253.5C 275.5,253.167 275.5,252.833 275.5,252.5C 278.916,247.905 282.583,243.405 286.5,239C 300.127,231.282 311.794,233.449 321.5,245.5 Z"/></g>
<g><path style="opacity:0.914" fill="#c2c0bf" d="M 238.5,234.5 C 232.955,236.573 227.955,239.573 223.5,243.5C 220.14,246.194 217.14,249.194 214.5,252.5C 219.345,242.325 227.345,236.325 238.5,234.5 Z"/></g>
<g><path style="opacity:1" fill="#777777" d="M 723.5,236.5 C 727.298,235.517 731.298,235.183 735.5,235.5C 735.5,236.833 735.5,238.167 735.5,239.5C 735.5,240.167 735.5,240.833 735.5,241.5C 734.833,242.5 734.167,243.5 733.5,244.5C 733.5,241.833 733.5,239.167 733.5,236.5C 730.167,236.5 726.833,236.5 723.5,236.5 Z"/></g>
<g><path style="opacity:0.455" fill="#938f8e" d="M 266.5,223.5 C 266.167,229.5 265.833,235.5 265.5,241.5C 265.5,243.167 265.5,244.833 265.5,246.5C 264.833,247.167 264.167,247.833 263.5,248.5C 263.918,239.958 264.918,231.624 266.5,223.5 Z"/></g>
<g><path style="opacity:0.549" fill="#b8b4b3" d="M 311.5,248.5 C 313.605,252.425 313.938,256.425 312.5,260.5C 303.833,260.5 295.167,260.5 286.5,260.5C 289.771,245.361 298.104,241.361 311.5,248.5 Z M 299.5,246.5 C 307.412,246.243 311.745,250.077 312.5,258C 304.5,258.667 296.5,258.667 288.5,258C 290.387,252.283 294.053,248.45 299.5,246.5 Z"/></g>
<g><path style="opacity:0.062" fill="#c3c0bf" d="M 252.5,245.5 C 250.969,250.692 250.303,256.026 250.5,261.5C 248.823,265.545 248.156,269.878 248.5,274.5C 247.846,280.81 247.346,287.143 247,293.5C 246.5,294.5 246,295.5 245.5,296.5C 236.903,299.301 229.737,297.301 224,290.5C 223.517,289.552 223.351,288.552 223.5,287.5C 223.167,287.5 222.833,287.5 222.5,287.5C 221.596,286.791 221.263,285.791 221.5,284.5C 220.806,279.195 220.472,273.862 220.5,268.5C 221.188,263.765 222.855,259.432 225.5,255.5C 232.957,248.051 241.957,244.717 252.5,245.5 Z M 223.5,287.5 C 220.596,277.518 221.429,267.851 226,258.5C 231.977,249.929 240.144,246.429 250.5,248C 247.97,263.737 245.97,279.57 244.5,295.5C 235.925,297.048 228.925,294.382 223.5,287.5 Z"/></g>
<g><path style="opacity:0.525" fill="#c6c4c2" d="M 679.5,236.5 C 675.121,239.7 671.121,243.367 667.5,247.5C 662.883,252.249 659.883,257.916 658.5,264.5C 658.167,264.5 657.833,264.5 657.5,264.5C 660.008,251.33 667.342,241.997 679.5,236.5 Z"/></g>
<g><path style="opacity:1" fill="#1a1818" d="M 685.5,234.5 C 686.833,234.5 688.167,234.5 689.5,234.5C 694.913,234.229 700.246,234.729 705.5,236C 706.456,239.394 706.789,242.894 706.5,246.5C 692.819,243.391 681.819,247.391 673.5,258.5C 671.589,258.426 670.422,257.426 670,255.5C 669.257,253.559 669.424,251.726 670.5,250C 669.004,249.493 667.837,249.993 667,251.5C 666.805,250.181 666.972,248.847 667.5,247.5C 671.121,243.367 675.121,239.7 679.5,236.5C 681.898,236.741 683.898,236.074 685.5,234.5 Z"/></g>
<g><path style="opacity:0.278" fill="#d3d0cf" d="M 520.5,238.5 C 520.346,246.417 519.346,254.083 517.5,261.5C 517.98,256.178 518.313,250.845 518.5,245.5C 517.99,242.612 518.656,240.279 520.5,238.5 Z"/></g>
<g><path style="opacity:0.631" fill="#bbb9b9" d="M 381.5,197.5 C 386.214,197.173 390.88,197.507 395.5,198.5C 395.833,199.167 396.167,199.833 396.5,200.5C 391.668,236.149 386.834,271.816 382,307.5C 381.261,308.574 380.261,309.241 379,309.5C 375.953,308.249 372.953,308.249 370,309.5C 366.466,307.895 365.8,305.561 368,302.5C 372.026,267.43 376.526,232.43 381.5,197.5 Z"/></g>
<g><path style="opacity:1" fill="#1c1815" d="M 393.5,205.5 C 390.844,223.107 388.51,240.774 386.5,258.5C 385.883,258.611 385.383,258.944 385,259.5C 384.502,256.183 384.335,252.85 384.5,249.5C 382.5,249.5 380.5,249.5 378.5,249.5C 378.235,253.853 377.735,258.187 377,262.5C 376.446,256.812 376.613,251.145 377.5,245.5C 379.208,230.491 380.875,215.491 382.5,200.5C 386.064,199.577 389.731,199.244 393.5,199.5C 393.5,201.5 393.5,203.5 393.5,205.5 Z"/></g>
<g><path style="opacity:1" fill="#6a6665" d="M 393.5,205.5 C 393.5,203.5 393.5,201.5 393.5,199.5C 389.731,199.244 386.064,199.577 382.5,200.5C 386.029,198.577 390.029,197.911 394.5,198.5C 394.802,201.059 394.468,203.393 393.5,205.5 Z"/></g>
<g><path style="opacity:0.192" fill="#d4d1ce" d="M 214.5,252.5 C 214.25,254.674 213.25,256.341 211.5,257.5C 211.592,255.152 212.592,253.486 214.5,252.5 Z"/></g>
<g><path style="opacity:1" fill="#1d1918" d="M 454.5,239.5 C 453.833,242.5 453.167,245.5 452.5,248.5C 452.649,247.448 452.483,246.448 452,245.5C 451.667,245.833 451.333,246.167 451,246.5C 450.667,249.833 450.333,253.167 450,256.5C 447.45,260.01 446.116,264.01 446,268.5C 444.203,266.326 444.036,263.993 445.5,261.5C 444.456,260.377 443.79,259.044 443.5,257.5C 444.268,254.846 444.434,252.179 444,249.5C 443.768,250.737 443.268,251.737 442.5,252.5C 442.5,250.5 442.5,248.5 442.5,246.5C 438.958,246.187 435.625,246.521 432.5,247.5C 415.6,253.944 408.433,266.278 411,284.5C 412.535,295.164 418.369,299.164 428.5,296.5C 428.389,297.117 428.056,297.617 427.5,298C 424.167,298.333 420.833,298.667 417.5,299C 416.107,301.683 414.774,301.85 413.5,299.5C 410.972,300.517 410.972,301.684 413.5,303C 413,303.167 412.5,303.333 412,303.5C 407.677,301.274 404.844,297.774 403.5,293C 403.548,291.967 403.881,291.634 404.5,292C 405.46,293.419 406.293,294.919 407,296.5C 407.27,293.776 407.77,291.109 408.5,288.5C 408.167,288.167 407.833,287.833 407.5,287.5C 406.742,288.811 405.742,289.311 404.5,289C 401.943,282.871 400.776,276.371 401,269.5C 400.295,277.861 400.462,286.194 401.5,294.5C 400.732,293.737 400.232,292.737 400,291.5C 399.168,282.814 399.335,274.147 400.5,265.5C 409.978,240.576 427.978,230.91 454.5,236.5C 454.5,237.5 454.5,238.5 454.5,239.5 Z"/></g>
<g><path style="opacity:1" fill="#6b6561" d="M 432.5,247.5 C 435.625,246.521 438.958,246.187 442.5,246.5C 442.5,248.5 442.5,250.5 442.5,252.5C 442.768,254.099 442.434,255.432 441.5,256.5C 441.5,253.5 441.5,250.5 441.5,247.5C 438.5,247.5 435.5,247.5 432.5,247.5 Z"/></g>
<g><path style="opacity:0.902" fill="#837f7d" d="M 518.5,245.5 C 518.313,250.845 517.98,256.178 517.5,261.5C 517.5,261.833 517.5,262.167 517.5,262.5C 516.833,264.833 516.167,267.167 515.5,269.5C 515.423,265.785 515.756,262.119 516.5,258.5C 516.438,253.924 517.105,249.591 518.5,245.5 Z"/></g>
<g><path style="opacity:0.259" fill="#d4d4d3" d="M 735.5,241.5 C 735.215,248.739 734.215,255.739 732.5,262.5C 732.586,258.143 732.92,253.81 733.5,249.5C 733.5,247.833 733.5,246.167 733.5,244.5C 734.167,243.5 734.833,242.5 735.5,241.5 Z"/></g>
<g><path style="opacity:1" fill="#4f4c4a" d="M 571.5,240.5 C 571.134,248.385 570.134,256.051 568.5,263.5C 568.563,255.573 569.563,247.906 571.5,240.5 Z"/></g>
<g><path style="opacity:0.992" fill="#857d7d" d="M 454.5,239.5 C 454.5,243.833 454.5,248.167 454.5,252.5C 454.5,252.833 454.5,253.167 454.5,253.5C 453.833,254.5 453.167,255.5 452.5,256.5C 452.5,253.833 452.5,251.167 452.5,248.5C 453.167,245.5 453.833,242.5 454.5,239.5 Z"/></g>
<g><path style="opacity:1" fill="#1b1816" d="M 667.5,247.5 C 666.972,248.847 666.805,250.181 667,251.5C 667.837,249.993 669.004,249.493 670.5,250C 669.424,251.726 669.257,253.559 670,255.5C 670.422,257.426 671.589,258.426 673.5,258.5C 667.014,269.373 666.847,280.373 673,291.5C 678.663,297.696 685.497,299.196 693.5,296C 696.4,294.899 699.067,293.399 701.5,291.5C 702.659,295.122 702.825,298.789 702,302.5C 687.135,311.951 673.801,310.285 662,297.5C 659.885,293.043 658.385,288.376 657.5,283.5C 657.347,277.131 657.68,270.797 658.5,264.5C 659.883,257.916 662.883,252.249 667.5,247.5 Z"/></g>
<g><path style="opacity:1" fill="#72716f" d="M 733.5,249.5 C 732.92,253.81 732.586,258.143 732.5,262.5C 732.167,262.5 731.833,262.5 731.5,262.5C 731.156,257.878 731.823,253.545 733.5,249.5 Z"/></g>
<g><path style="opacity:0.867" fill="#949391" d="M 262.5,249.5 C 262.833,249.5 263.167,249.5 263.5,249.5C 263.387,254.518 263.053,259.518 262.5,264.5C 262.5,265.167 262.5,265.833 262.5,266.5C 262.167,266.5 261.833,266.5 261.5,266.5C 261.76,260.828 262.093,255.161 262.5,249.5 Z"/></g>
<g><path style="opacity:1" fill="#1d1918" d="M 520.5,199.5 C 533.746,223.817 547.413,247.983 561.5,272C 562.13,273.31 563.13,274.144 564.5,274.5C 564.281,275.675 564.614,276.675 565.5,277.5C 566.511,273.373 567.511,269.373 568.5,265.5C 567.276,272.217 567.443,278.883 569,285.5C 570.342,284.098 571.176,284.431 571.5,286.5C 571.167,287.167 570.833,287.833 570.5,288.5C 568.5,285.833 566.5,285.833 564.5,288.5C 566.5,291.5 568.5,294.5 570.5,297.5C 571.946,299.618 572.613,301.951 572.5,304.5C 570.61,304.703 569.11,304.037 568,302.5C 567.362,299.796 566.696,297.129 566,294.5C 565.187,296.436 564.687,298.436 564.5,300.5C 551.291,277.431 537.791,254.431 524,231.5C 523.517,230.552 523.351,229.552 523.5,228.5C 522.5,228.5 521.5,228.5 520.5,228.5C 520.5,230.833 520.5,233.167 520.5,235.5C 520.5,236.5 520.5,237.5 520.5,238.5C 518.656,240.279 517.99,242.612 518.5,245.5C 517.105,249.591 516.438,253.924 516.5,258.5C 515.883,258.611 515.383,258.944 515,259.5C 514.822,256.458 513.988,253.625 512.5,251C 513.848,247.553 513.348,244.386 511,241.5C 510.502,243.527 510.669,245.527 511.5,247.5C 511.378,249.994 510.378,250.661 508.5,249.5C 507.534,247.604 507.201,245.604 507.5,243.5C 509.374,228.502 511.041,213.502 512.5,198.5C 515.279,198.279 517.946,198.612 520.5,199.5 Z"/></g>
<g><path style="opacity:1" fill="#1e1818" d="M 648.5,249.5 C 647.028,253.919 646.362,258.586 646.5,263.5C 644.604,275.77 643.271,288.103 642.5,300.5C 641.539,302.265 641.205,304.265 641.5,306.5C 637.833,306.5 634.167,306.5 630.5,306.5C 630.663,304.143 630.497,301.81 630,299.5C 624.297,307.309 617.13,309.642 608.5,306.5C 607.637,305.06 607.637,303.726 608.5,302.5C 607.975,301.808 607.308,301.308 606.5,301C 607.851,298.736 609.517,296.902 611.5,295.5C 620.083,299.632 626.416,297.299 630.5,288.5C 632.511,286.333 633.678,283.666 634,280.5C 634.435,275.816 634.935,271.149 635.5,266.5C 635.231,262.069 635.564,257.735 636.5,253.5C 637.468,251.393 637.802,249.059 637.5,246.5C 632.03,246.246 626.696,246.913 621.5,248.5C 620.957,248.44 620.624,248.107 620.5,247.5C 621.5,246.833 622.5,246.167 623.5,245.5C 622.667,245.167 621.833,244.833 621,244.5C 618.719,246.028 616.219,246.528 613.5,246C 611.069,244.568 611.069,243.068 613.5,241.5C 616.276,239.859 619.276,238.359 622.5,237C 631.494,236.5 640.494,236.334 649.5,236.5C 649.414,240.857 649.08,245.19 648.5,249.5 Z"/></g>
<g><path style="opacity:0.659" fill="#dfdedd" d="M 265.5,246.5 C 265.02,252.714 264.02,258.714 262.5,264.5C 263.053,259.518 263.387,254.518 263.5,249.5C 263.5,249.167 263.5,248.833 263.5,248.5C 264.167,247.833 264.833,247.167 265.5,246.5 Z"/></g>
<g><path style="opacity:1" fill="#1d1816" d="M 262.5,249.5 C 262.093,255.161 261.76,260.828 261.5,266.5C 260.732,267.263 260.232,268.263 260,269.5C 259.243,275.149 258.743,280.816 258.5,286.5C 257.252,293.323 256.252,300.156 255.5,307C 244.189,309.613 233.189,308.946 222.5,305C 220.76,303.483 219.094,301.983 217.5,300.5C 219.086,301.413 220.586,301.413 222,300.5C 222.311,298.444 222.811,296.444 223.5,294.5C 222.626,292.253 222.292,289.92 222.5,287.5C 222.833,287.5 223.167,287.5 223.5,287.5C 223.351,288.552 223.517,289.552 224,290.5C 229.737,297.301 236.903,299.301 245.5,296.5C 246,295.5 246.5,294.5 247,293.5C 247.346,287.143 247.846,280.81 248.5,274.5C 250.054,270.433 250.72,266.1 250.5,261.5C 250.303,256.026 250.969,250.692 252.5,245.5C 252.369,244.761 252.536,244.094 253,243.5C 255.041,244.423 257.208,244.756 259.5,244.5C 259.281,245.675 259.614,246.675 260.5,247.5C 261.308,245.577 261.808,243.577 262,241.5C 262.497,244.146 262.664,246.813 262.5,249.5 Z"/></g>
<g><path style="opacity:1" fill="#191515" d="M 578.5,268.5 C 577.915,274.843 577.249,281.176 576.5,287.5C 576.5,288.833 576.5,290.167 576.5,291.5C 574.855,296.234 574.189,301.234 574.5,306.5C 572.143,306.663 569.81,306.497 567.5,306C 566.777,303.982 565.777,302.148 564.5,300.5C 564.687,298.436 565.187,296.436 566,294.5C 566.696,297.129 567.362,299.796 568,302.5C 569.11,304.037 570.61,304.703 572.5,304.5C 572.613,301.951 571.946,299.618 570.5,297.5C 568.5,294.5 566.5,291.5 564.5,288.5C 566.5,285.833 568.5,285.833 570.5,288.5C 570.833,287.833 571.167,287.167 571.5,286.5C 571.176,284.431 570.342,284.098 569,285.5C 567.443,278.883 567.276,272.217 568.5,265.5C 568.5,264.833 568.5,264.167 568.5,263.5C 570.134,256.051 571.134,248.385 571.5,240.5C 571.5,239.167 571.5,237.833 571.5,236.5C 572.665,232.891 573.832,229.224 575,225.5C 574.89,233.48 574.557,241.48 574,249.5C 571.759,252.845 571.092,256.511 572,260.5C 573.638,255.877 575.305,251.211 577,246.5C 577.684,249.38 577.517,252.213 576.5,255C 576.905,255.945 577.572,256.612 578.5,257C 577.833,257.667 577.167,258.333 576.5,259C 578.344,261.804 579.011,264.97 578.5,268.5 Z"/></g>
<g><path style="opacity:1" fill="#1e1919" d="M 377.5,245.5 C 376.613,251.145 376.446,256.812 377,262.5C 377.735,258.187 378.235,253.853 378.5,249.5C 380.5,249.5 382.5,249.5 384.5,249.5C 384.335,252.85 384.502,256.183 385,259.5C 385.383,258.944 385.883,258.611 386.5,258.5C 384.575,274.487 382.575,290.487 380.5,306.5C 376.833,306.5 373.167,306.5 369.5,306.5C 371.304,285.909 373.97,265.576 377.5,245.5 Z"/></g>
<g><path style="opacity:0.4" fill="#ded9d9" d="M 454.5,253.5 C 454.084,260.719 453.084,267.719 451.5,274.5C 452.032,268.848 452.365,263.181 452.5,257.5C 452.5,257.167 452.5,256.833 452.5,256.5C 453.167,255.5 453.833,254.5 454.5,253.5 Z"/></g>
<g><path style="opacity:0.698" fill="#bfbcbb" d="M 863.5,247.5 C 863.5,252.167 863.5,256.833 863.5,261.5C 861.381,276.318 859.548,291.318 858,306.5C 856.981,307.687 855.814,308.687 854.5,309.5C 850.697,308.896 847.031,308.23 843.5,307.5C 847.702,307.817 851.702,307.483 855.5,306.5C 855.5,306.167 855.5,305.833 855.5,305.5C 857.414,302.316 858.08,298.649 857.5,294.5C 858.694,281.313 860.027,268.146 861.5,255C 861.569,250.415 861.069,245.915 860,241.5C 858.629,239.959 857.129,238.625 855.5,237.5C 851.757,234.577 847.424,233.743 842.5,235C 836.935,236.941 832.268,240.108 828.5,244.5C 826.612,242.012 825.945,239.012 826.5,235.5C 822.629,235.185 818.962,235.518 815.5,236.5C 813.718,242.226 812.718,248.226 812.5,254.5C 810.631,271.845 808.631,289.179 806.5,306.5C 810.167,306.5 813.833,306.5 817.5,306.5C 819.059,290.418 821.226,274.418 824,258.5C 828.074,253.921 832.574,249.921 837.5,246.5C 840.5,246.5 843.5,246.5 846.5,246.5C 847.71,246.932 848.71,247.599 849.5,248.5C 850.235,261.745 848.902,274.745 845.5,287.5C 846.677,274.819 847.51,262.152 848,249.5C 842.925,246.653 838.092,247.153 833.5,251C 830.628,253.537 828.128,256.37 826,259.5C 823.502,275.484 821.169,291.484 819,307.5C 818.311,308.357 817.478,309.023 816.5,309.5C 813.301,308.201 810.135,308.201 807,309.5C 806.333,308.833 805.667,308.167 805,307.5C 807.562,283.16 810.395,258.827 813.5,234.5C 818.395,234.146 823.395,234.146 828.5,234.5C 827.992,237.176 827.825,239.843 828,242.5C 834.507,234.999 842.673,231.832 852.5,233C 858.49,236.179 862.157,241.012 863.5,247.5 Z"/></g>
<g><path style="opacity:1" fill="#716d6b" d="M 815.5,236.5 C 815.282,242.774 814.282,248.774 812.5,254.5C 812.718,248.226 813.718,242.226 815.5,236.5 Z"/></g>
<g><path style="opacity:1" fill="#1b1614" d="M 855.5,237.5 C 855.349,240.718 854.516,241.051 853,238.5C 852.2,241.572 853.367,243.239 856.5,243.5C 856.415,245.929 855.415,247.929 853.5,249.5C 852.672,253.796 852.172,258.129 852,262.5C 852.114,257.394 851.28,252.727 849.5,248.5C 848.71,247.599 847.71,246.932 846.5,246.5C 845.848,245.275 844.681,244.608 843,244.5C 840.779,244.393 838.946,245.06 837.5,246.5C 832.574,249.921 828.074,253.921 824,258.5C 821.226,274.418 819.059,290.418 817.5,306.5C 813.833,306.5 810.167,306.5 806.5,306.5C 808.631,289.179 810.631,271.845 812.5,254.5C 814.282,248.774 815.282,242.774 815.5,236.5C 818.833,236.5 822.167,236.5 825.5,236.5C 825.549,239.374 825.216,242.208 824.5,245C 824.833,245.833 825.167,246.667 825.5,247.5C 826.548,246.452 827.548,245.452 828.5,244.5C 832.268,240.108 836.935,236.941 842.5,235C 847.424,233.743 851.757,234.577 855.5,237.5 Z"/></g>
<g><path style="opacity:0.973" fill="#827b75" d="M 846.5,246.5 C 843.5,246.5 840.5,246.5 837.5,246.5C 838.946,245.06 840.779,244.393 843,244.5C 844.681,244.608 845.848,245.275 846.5,246.5 Z"/></g>
<g><path style="opacity:1" fill="#66625f" d="M 815.5,236.5 C 818.962,235.518 822.629,235.185 826.5,235.5C 825.945,239.012 826.612,242.012 828.5,244.5C 827.548,245.452 826.548,246.452 825.5,247.5C 825.167,246.667 824.833,245.833 824.5,245C 825.216,242.208 825.549,239.374 825.5,236.5C 822.167,236.5 818.833,236.5 815.5,236.5 Z"/></g>
<g><path style="opacity:1" fill="#857d7e" d="M 452.5,257.5 C 452.365,263.181 452.032,268.848 451.5,274.5C 451.5,274.833 451.5,275.167 451.5,275.5C 450.833,276.5 450.167,277.5 449.5,278.5C 450.047,271.302 451.047,264.302 452.5,257.5 Z"/></g>
<g><path style="opacity:0.416" fill="#dbd9d7" d="M 261.5,266.5 C 261.833,266.5 262.167,266.5 262.5,266.5C 262.556,271.731 261.889,276.731 260.5,281.5C 260.413,276.463 260.746,271.463 261.5,266.5 Z"/></g>
<g><path style="opacity:0.985" fill="#9e9b9a" d="M 321.5,245.5 C 323.511,247.667 324.678,250.334 325,253.5C 325.818,259.349 325.652,265.015 324.5,270.5C 311.5,270.5 298.5,270.5 285.5,270.5C 285.5,272.167 285.5,273.833 285.5,275.5C 286.327,279.439 286.994,283.439 287.5,287.5C 286.069,287.119 285.236,286.119 285,284.5C 284.501,279.511 284.334,274.511 284.5,269.5C 297.5,269.5 310.5,269.5 323.5,269.5C 323.789,263.409 323.455,257.409 322.5,251.5C 322.483,249.435 322.15,247.435 321.5,245.5 Z"/></g>
<g><path style="opacity:1" fill="#1b1516" d="M 723.5,236.5 C 726.833,236.5 730.167,236.5 733.5,236.5C 733.5,239.167 733.5,241.833 733.5,244.5C 733.5,246.167 733.5,247.833 733.5,249.5C 731.823,253.545 731.156,257.878 731.5,262.5C 730.523,265.287 730.19,268.287 730.5,271.5C 728.573,282.991 726.906,294.658 725.5,306.5C 722.167,306.5 718.833,306.5 715.5,306.5C 715.5,304.5 715.5,302.5 715.5,300.5C 716.496,293.199 717.163,285.866 717.5,278.5C 718.268,277.737 718.768,276.737 719,275.5C 719.633,269.839 720.133,264.172 720.5,258.5C 721.705,251.094 722.705,243.761 723.5,236.5 Z"/></g>
<g><path style="opacity:0.189" fill="#f1eeed" d="M 324.5,270.5 C 312.011,271.495 299.344,271.829 286.5,271.5C 286.768,273.099 286.434,274.432 285.5,275.5C 285.5,273.833 285.5,272.167 285.5,270.5C 298.5,270.5 311.5,270.5 324.5,270.5 Z"/></g>
<g><path style="opacity:0.933" fill="#bfbebc" d="M 731.5,262.5 C 731.833,262.5 732.167,262.5 732.5,262.5C 732.211,269.178 731.711,275.844 731,282.5C 730.768,283.737 730.268,284.737 729.5,285.5C 730.229,280.87 730.563,276.203 730.5,271.5C 730.19,268.287 730.523,265.287 731.5,262.5 Z"/></g>
<g><path style="opacity:0.525" fill="#bcb9b8" d="M 642.5,307.5 C 642.5,305.167 642.5,302.833 642.5,300.5C 643.271,288.103 644.604,275.77 646.5,263.5C 648.104,259.1 648.771,254.434 648.5,249.5C 649.08,245.19 649.414,240.857 649.5,236.5C 640.494,236.334 631.494,236.5 622.5,237C 619.276,238.359 616.276,239.859 613.5,241.5C 603.547,247.8 597.547,256.8 595.5,268.5C 594.778,268.918 594.278,269.584 594,270.5C 593.501,276.491 593.334,282.491 593.5,288.5C 590.451,272.378 594.451,258.044 605.5,245.5C 609.853,241.315 614.853,238.148 620.5,236C 631.118,234.656 641.784,234.156 652.5,234.5C 649.092,258.958 645.759,283.292 642.5,307.5 Z"/></g>
<g><path style="opacity:0.545" fill="#dad3d3" d="M 636.5,249.5 C 636.5,250.833 636.5,252.167 636.5,253.5C 635.564,257.735 635.231,262.069 635.5,266.5C 634.833,267.167 634.167,267.833 633.5,268.5C 633.846,261.927 634.846,255.593 636.5,249.5 Z"/></g>
<g><path style="opacity:0.953" fill="#706f6d" d="M 648.5,249.5 C 648.771,254.434 648.104,259.1 646.5,263.5C 646.362,258.586 647.028,253.919 648.5,249.5 Z"/></g>
<g><path style="opacity:1" fill="#615b56" d="M 250.5,261.5 C 250.72,266.1 250.054,270.433 248.5,274.5C 248.156,269.878 248.823,265.545 250.5,261.5 Z"/></g>
<g><path style="opacity:0.922" fill="#cccccb" d="M 718.5,265.5 C 718.533,269.869 718.2,274.202 717.5,278.5C 717.163,285.866 716.496,293.199 715.5,300.5C 714.532,302.607 714.198,304.941 714.5,307.5C 718.371,307.815 722.038,307.482 725.5,306.5C 726.728,302.133 728.061,297.8 729.5,293.5C 729.001,297.49 728.501,301.49 728,305.5C 727.535,306.931 726.701,308.097 725.5,309C 722.356,309.035 719.023,309.202 715.5,309.5C 714.522,309.023 713.689,308.357 713,307.5C 713.898,293.286 715.731,279.286 718.5,265.5 Z"/></g>
<g><path style="opacity:1" fill="#817973" d="M 220.5,268.5 C 220.472,273.862 220.806,279.195 221.5,284.5C 220.065,281.45 219.398,278.117 219.5,274.5C 219.505,272.304 219.838,270.304 220.5,268.5 Z"/></g>
<g><path style="opacity:1" fill="#1d1815" d="M 516.5,258.5 C 515.756,262.119 515.423,265.785 515.5,269.5C 514.408,277.145 513.408,284.811 512.5,292.5C 511.356,296.964 510.69,301.63 510.5,306.5C 506.833,306.5 503.167,306.5 499.5,306.5C 501.012,285.205 503.679,264.205 507.5,243.5C 507.201,245.604 507.534,247.604 508.5,249.5C 510.378,250.661 511.378,249.994 511.5,247.5C 510.669,245.527 510.502,243.527 511,241.5C 513.348,244.386 513.848,247.553 512.5,251C 513.988,253.625 514.822,256.458 515,259.5C 515.383,258.944 515.883,258.611 516.5,258.5 Z"/></g>
<g><path style="opacity:1" fill="#837e7d" d="M 720.5,258.5 C 720.133,264.172 719.633,269.839 719,275.5C 718.768,276.737 718.268,277.737 717.5,278.5C 718.2,274.202 718.533,269.869 718.5,265.5C 718.5,265.167 718.5,264.833 718.5,264.5C 719.167,262.5 719.833,260.5 720.5,258.5 Z"/></g>
<g><path style="opacity:1" fill="#757471" d="M 595.5,268.5 C 594.243,276.187 594.243,283.853 595.5,291.5C 594.833,291.167 594.167,290.833 593.5,290.5C 593.5,289.833 593.5,289.167 593.5,288.5C 593.334,282.491 593.501,276.491 594,270.5C 594.278,269.584 594.778,268.918 595.5,268.5 Z"/></g>
<g><path style="opacity:1" fill="#6f716e" d="M 657.5,264.5 C 657.833,264.5 658.167,264.5 658.5,264.5C 657.68,270.797 657.347,277.131 657.5,283.5C 656.234,277.63 656.234,271.63 657.5,265.5C 657.5,265.167 657.5,264.833 657.5,264.5 Z"/></g>
<g><path style="opacity:0.596" fill="#b7b5b4" d="M 564.5,300.5 C 565.777,302.148 566.777,303.982 567.5,306C 569.81,306.497 572.143,306.663 574.5,306.5C 574.189,301.234 574.855,296.234 576.5,291.5C 576.313,296.845 575.98,302.178 575.5,307.5C 573.321,308.103 571.154,308.77 569,309.5C 553.684,286.219 539.35,262.219 526,237.5C 525,236.167 524,234.833 523,233.5C 522.292,234.381 521.458,235.047 520.5,235.5C 520.5,233.167 520.5,230.833 520.5,228.5C 521.5,228.5 522.5,228.5 523.5,228.5C 523.351,229.552 523.517,230.552 524,231.5C 537.791,254.431 551.291,277.431 564.5,300.5 Z"/></g>
<g><path style="opacity:0.863" fill="#8f8b8a" d="M 730.5,271.5 C 730.563,276.203 730.229,280.87 729.5,285.5C 729.5,288.167 729.5,290.833 729.5,293.5C 728.061,297.8 726.728,302.133 725.5,306.5C 726.906,294.658 728.573,282.991 730.5,271.5 Z"/></g>
<g><path style="opacity:1" fill="#1b1616" d="M 452.5,248.5 C 452.5,251.167 452.5,253.833 452.5,256.5C 452.5,256.833 452.5,257.167 452.5,257.5C 451.047,264.302 450.047,271.302 449.5,278.5C 449.5,279.5 449.5,280.5 449.5,281.5C 447.969,286.25 447.302,291.25 447.5,296.5C 447.5,296.833 447.5,297.167 447.5,297.5C 445.882,300.171 445.215,303.171 445.5,306.5C 442.102,306.82 438.768,306.487 435.5,305.5C 436.724,303.161 436.724,300.828 435.5,298.5C 434.478,298.855 433.811,299.522 433.5,300.5C 420.417,312.667 409.75,310.667 401.5,294.5C 400.462,286.194 400.295,277.861 401,269.5C 400.776,276.371 401.943,282.871 404.5,289C 405.742,289.311 406.742,288.811 407.5,287.5C 407.833,287.833 408.167,288.167 408.5,288.5C 407.77,291.109 407.27,293.776 407,296.5C 406.293,294.919 405.46,293.419 404.5,292C 403.881,291.634 403.548,291.967 403.5,293C 404.844,297.774 407.677,301.274 412,303.5C 412.5,303.333 413,303.167 413.5,303C 410.972,301.684 410.972,300.517 413.5,299.5C 414.774,301.85 416.107,301.683 417.5,299C 420.833,298.667 424.167,298.333 427.5,298C 428.056,297.617 428.389,297.117 428.5,296.5C 432.165,293.667 435.332,290.334 438,286.5C 439.495,276.532 440.662,266.532 441.5,256.5C 442.434,255.432 442.768,254.099 442.5,252.5C 443.268,251.737 443.768,250.737 444,249.5C 444.434,252.179 444.268,254.846 443.5,257.5C 443.79,259.044 444.456,260.377 445.5,261.5C 444.036,263.993 444.203,266.326 446,268.5C 446.116,264.01 447.45,260.01 450,256.5C 450.333,253.167 450.667,249.833 451,246.5C 451.333,246.167 451.667,245.833 452,245.5C 452.483,246.448 452.649,247.448 452.5,248.5 Z"/></g>
<g><path style="opacity:0.788" fill="#cacac8" d="M 451.5,275.5 C 451.283,281.36 450.617,287.027 449.5,292.5C 449.5,288.833 449.5,285.167 449.5,281.5C 449.5,280.5 449.5,279.5 449.5,278.5C 450.167,277.5 450.833,276.5 451.5,275.5 Z"/></g>
<g><path style="opacity:1" fill="#afadac" d="M 635.5,266.5 C 634.935,271.149 634.435,275.816 634,280.5C 633.678,283.666 632.511,286.333 630.5,288.5C 631.499,281.839 632.499,275.172 633.5,268.5C 634.167,267.833 634.833,267.167 635.5,266.5 Z"/></g>
<g><path style="opacity:1" fill="#807c79" d="M 261.5,266.5 C 260.746,271.463 260.413,276.463 260.5,281.5C 260.5,281.833 260.5,282.167 260.5,282.5C 259.833,283.833 259.167,285.167 258.5,286.5C 258.743,280.816 259.243,275.149 260,269.5C 260.232,268.263 260.732,267.263 261.5,266.5 Z"/></g>
<g><path style="opacity:0.725" fill="#b9b5b3" d="M 636.5,253.5 C 636.5,252.167 636.5,250.833 636.5,249.5C 625.348,248.058 616.848,252.391 611,262.5C 607.383,270.616 606.716,278.95 609,287.5C 611.104,294.264 615.604,296.764 622.5,295C 625.374,292.946 628.041,290.779 630.5,288.5C 626.416,297.299 620.083,299.632 611.5,295.5C 609.795,292.958 608.295,290.292 607,287.5C 603.086,271.058 607.92,258.058 621.5,248.5C 626.696,246.913 632.03,246.246 637.5,246.5C 637.802,249.059 637.468,251.393 636.5,253.5 Z"/></g>
<g><path style="opacity:1" fill="#1e1a16" d="M 613.5,241.5 C 611.069,243.068 611.069,244.568 613.5,246C 616.219,246.528 618.719,246.028 621,244.5C 621.833,244.833 622.667,245.167 623.5,245.5C 622.5,246.167 621.5,246.833 620.5,247.5C 620.624,248.107 620.957,248.44 621.5,248.5C 607.92,258.058 603.086,271.058 607,287.5C 608.295,290.292 609.795,292.958 611.5,295.5C 609.517,296.902 607.851,298.736 606.5,301C 607.308,301.308 607.975,301.808 608.5,302.5C 607.637,303.726 607.637,305.06 608.5,306.5C 601.742,303.733 597.409,298.733 595.5,291.5C 594.243,283.853 594.243,276.187 595.5,268.5C 597.547,256.8 603.547,247.8 613.5,241.5 Z"/></g>
<g><path style="opacity:1" fill="#b5b3b1" d="M 432.5,247.5 C 435.5,247.5 438.5,247.5 441.5,247.5C 441.5,250.5 441.5,253.5 441.5,256.5C 440.662,266.532 439.495,276.532 438,286.5C 435.332,290.334 432.165,293.667 428.5,296.5C 418.369,299.164 412.535,295.164 411,284.5C 408.433,266.278 415.6,253.944 432.5,247.5 Z M 433.5,248.5 C 435.833,248.5 438.167,248.5 440.5,248.5C 439.456,261.638 437.623,274.638 435,287.5C 429.344,296.788 422.678,297.788 415,290.5C 411.168,278.324 412.835,266.99 420,256.5C 424.196,253.098 428.696,250.432 433.5,248.5 Z"/></g>
<g><path style="opacity:0.427" fill="#dbd9d8" d="M 578.5,283.5 C 578.411,291.755 577.411,299.755 575.5,307.5C 575.98,302.178 576.313,296.845 576.5,291.5C 576.5,290.167 576.5,288.833 576.5,287.5C 577.167,286.167 577.833,284.833 578.5,283.5 Z"/></g>
<g><path style="opacity:0.569" fill="#c2c2c2" d="M 275.5,253.5 C 274.619,257.454 273.952,261.454 273.5,265.5C 270.812,278.06 273.145,289.727 280.5,300.5C 283.286,303.62 286.62,305.954 290.5,307.5C 296.828,308.596 303.161,308.596 309.5,307.5C 291.626,313.35 279.126,307.35 272,289.5C 270,279.5 270,269.5 272,259.5C 272.876,257.242 274.043,255.242 275.5,253.5 Z"/></g>
<g><path style="opacity:0.894" fill="#bbbaba" d="M 309.5,307.5 C 312.332,304.822 315.499,302.488 319,300.5C 319.282,296.961 319.782,293.461 320.5,290C 320.167,289.5 319.833,289 319.5,288.5C 312.368,295.044 304.035,297.877 294.5,297C 290.569,294.958 288.236,291.791 287.5,287.5C 292.607,295.363 299.607,297.53 308.5,294C 312.089,292.086 315.422,289.752 318.5,287C 320.025,285.991 321.692,285.491 323.5,285.5C 322.871,290.903 321.871,296.236 320.5,301.5C 317.536,304.815 313.87,306.815 309.5,307.5 Z"/></g>
<g><path style="opacity:1" fill="#807f7d" d="M 449.5,281.5 C 449.5,285.167 449.5,288.833 449.5,292.5C 448.833,293.833 448.167,295.167 447.5,296.5C 447.302,291.25 447.969,286.25 449.5,281.5 Z"/></g>
<g><path style="opacity:0.596" fill="#bfbebd" d="M 765.5,234.5 C 780.287,230.164 790.787,235.164 797,249.5C 801.176,265.043 799.842,280.043 793,294.5C 785.022,306.91 773.855,311.743 759.5,309C 751.062,305.563 745.895,299.396 744,290.5C 739.377,271.346 743.544,254.513 756.5,240C 759.139,237.517 762.139,235.684 765.5,234.5 Z M 784.5,258.5 C 784.946,268.489 783.446,278.156 780,287.5C 775.993,295.275 770.159,297.442 762.5,294C 759.056,288.887 757.723,283.221 758.5,277C 758.667,273.5 758.833,270 759,266.5C 759.994,258.856 763.494,252.689 769.5,248C 772.964,247.183 776.298,247.517 779.5,249C 781.653,251.995 783.319,255.162 784.5,258.5 Z"/></g>
<g><path style="opacity:1" fill="#191615" d="M 758.5,259.5 C 757.85,261.435 757.517,263.435 757.5,265.5C 756.03,268.886 755.363,272.553 755.5,276.5C 755.363,280.447 756.03,284.114 757.5,287.5C 757.433,288.959 757.766,290.292 758.5,291.5C 757.374,293.5 757.207,295.5 758,297.5C 755.32,295.124 753.987,292.124 754,288.5C 753.075,289.047 752.242,289.713 751.5,290.5C 752.979,293.602 754.645,296.602 756.5,299.5C 756.167,300.167 755.833,300.833 755.5,301.5C 759.268,304.58 763.602,306.414 768.5,307C 765.151,307.388 761.817,307.221 758.5,306.5C 750.192,301.56 745.692,294.226 745,284.5C 743.374,273.288 744.874,262.621 749.5,252.5C 751.173,251.657 752.34,250.324 753,248.5C 756.389,251.389 758.222,255.056 758.5,259.5 Z"/></g>
<g><path style="opacity:1" fill="#64605f" d="M 757.5,265.5 C 756.386,272.846 756.386,280.179 757.5,287.5C 756.03,284.114 755.363,280.447 755.5,276.5C 755.363,272.553 756.03,268.886 757.5,265.5 Z"/></g>
<g><path style="opacity:0.835" fill="#616161" d="M 783.5,251.5 C 785.13,253.026 785.963,255.026 786,257.5C 786.818,263.349 786.652,269.015 785.5,274.5C 785.821,268.974 785.488,263.64 784.5,258.5C 784.552,256.097 784.219,253.764 783.5,251.5 Z"/></g>
<g><path style="opacity:1" fill="#1d1919" d="M 765.5,234.5 C 781.545,232.371 792.045,239.038 797,254.5C 800.279,271.883 796.446,287.383 785.5,301C 777.362,307.927 768.362,309.761 758.5,306.5C 761.817,307.221 765.151,307.388 768.5,307C 763.602,306.414 759.268,304.58 755.5,301.5C 755.833,300.833 756.167,300.167 756.5,299.5C 754.645,296.602 752.979,293.602 751.5,290.5C 752.242,289.713 753.075,289.047 754,288.5C 753.987,292.124 755.32,295.124 758,297.5C 757.207,295.5 757.374,293.5 758.5,291.5C 761.873,297.208 766.873,299.042 773.5,297C 781.009,291.262 785.009,283.762 785.5,274.5C 786.652,269.015 786.818,263.349 786,257.5C 785.963,255.026 785.13,253.026 783.5,251.5C 776.79,243.517 769.956,243.517 763,251.5C 761.499,254.286 759.999,256.953 758.5,259.5C 758.222,255.056 756.389,251.389 753,248.5C 752.34,250.324 751.173,251.657 749.5,252.5C 750.809,249.222 752.642,246.222 755,243.5C 758.372,240.29 761.872,237.29 765.5,234.5 Z"/></g>
<g><path style="opacity:1" fill="#1d1818" d="M 855.5,237.5 C 857.129,238.625 858.629,239.959 860,241.5C 861.069,245.915 861.569,250.415 861.5,255C 860.027,268.146 858.694,281.313 857.5,294.5C 856.313,297.946 855.646,301.613 855.5,305.5C 855.5,305.833 855.5,306.167 855.5,306.5C 851.833,306.5 848.167,306.5 844.5,306.5C 845.19,300.19 845.524,293.857 845.5,287.5C 848.902,274.745 850.235,261.745 849.5,248.5C 851.28,252.727 852.114,257.394 852,262.5C 852.172,258.129 852.672,253.796 853.5,249.5C 855.415,247.929 856.415,245.929 856.5,243.5C 853.367,243.239 852.2,241.572 853,238.5C 854.516,241.051 855.349,240.718 855.5,237.5 Z"/></g>
<g><path style="opacity:0.773" fill="#bdb9b9" d="M 783.5,251.5 C 784.219,253.764 784.552,256.097 784.5,258.5C 785.488,263.64 785.821,268.974 785.5,274.5C 785.009,283.762 781.009,291.262 773.5,297C 766.873,299.042 761.873,297.208 758.5,291.5C 757.766,290.292 757.433,288.959 757.5,287.5C 756.386,280.179 756.386,272.846 757.5,265.5C 757.517,263.435 757.85,261.435 758.5,259.5C 759.999,256.953 761.499,254.286 763,251.5C 769.956,243.517 776.79,243.517 783.5,251.5 Z M 784.5,258.5 C 783.319,255.162 781.653,251.995 779.5,249C 776.298,247.517 772.964,247.183 769.5,248C 763.494,252.689 759.994,258.856 759,266.5C 758.833,270 758.667,273.5 758.5,277C 757.723,283.221 759.056,288.887 762.5,294C 770.159,297.442 775.993,295.275 780,287.5C 783.446,278.156 784.946,268.489 784.5,258.5 Z"/></g>
<g><path style="opacity:0.365" fill="#bab9b7" d="M 706.5,234.5 C 707.5,234.5 708.5,234.5 709.5,234.5C 708.996,239.058 708.329,243.558 707.5,248C 679.429,245.741 667.595,258.574 672,286.5C 677.141,294.582 684.308,297.082 693.5,294C 696.632,292.365 699.632,290.532 702.5,288.5C 703.086,288.709 703.586,289.043 704,289.5C 707.682,300.654 703.849,307.154 692.5,309C 673.743,312.714 661.577,305.547 656,287.5C 655.333,280.5 655.333,273.5 656,266.5C 656.383,265.944 656.883,265.611 657.5,265.5C 656.234,271.63 656.234,277.63 657.5,283.5C 658.385,288.376 659.885,293.043 662,297.5C 673.801,310.285 687.135,311.951 702,302.5C 702.825,298.789 702.659,295.122 701.5,291.5C 699.067,293.399 696.4,294.899 693.5,296C 685.497,299.196 678.663,297.696 673,291.5C 666.847,280.373 667.014,269.373 673.5,258.5C 681.819,247.391 692.819,243.391 706.5,246.5C 707.791,242.601 707.791,238.601 706.5,234.5 Z"/></g>
<g><path style="opacity:1" fill="#1c1714" d="M 223.5,243.5 C 224.897,245.791 226.564,247.958 228.5,250C 227.451,250.492 226.451,250.326 225.5,249.5C 225.167,250 224.833,250.5 224.5,251C 225.148,252.44 225.481,253.94 225.5,255.5C 222.855,259.432 221.188,263.765 220.5,268.5C 219.838,270.304 219.505,272.304 219.5,274.5C 219.398,278.117 220.065,281.45 221.5,284.5C 221.263,285.791 221.596,286.791 222.5,287.5C 222.292,289.92 222.626,292.253 223.5,294.5C 222.811,296.444 222.311,298.444 222,300.5C 220.586,301.413 219.086,301.413 217.5,300.5C 213.59,297.03 210.924,292.697 209.5,287.5C 207.795,277.289 208.461,267.289 211.5,257.5C 213.25,256.341 214.25,254.674 214.5,252.5C 217.14,249.194 220.14,246.194 223.5,243.5 Z"/></g>
<g><path style="opacity:0.91" fill="#74716f" d="M 512.5,292.5 C 512.877,297.453 512.211,302.119 510.5,306.5C 510.69,301.63 511.356,296.964 512.5,292.5 Z"/></g>
<g><path style="opacity:1" fill="#1b1918" d="M 322.5,251.5 C 323.455,257.409 323.789,263.409 323.5,269.5C 310.5,269.5 297.5,269.5 284.5,269.5C 284.334,274.511 284.501,279.511 285,284.5C 285.236,286.119 286.069,287.119 287.5,287.5C 288.236,291.791 290.569,294.958 294.5,297C 304.035,297.877 312.368,295.044 319.5,288.5C 319.833,289 320.167,289.5 320.5,290C 319.782,293.461 319.282,296.961 319,300.5C 315.499,302.488 312.332,304.822 309.5,307.5C 303.161,308.596 296.828,308.596 290.5,307.5C 286.62,305.954 283.286,303.62 280.5,300.5C 273.145,289.727 270.812,278.06 273.5,265.5C 275.655,265.372 277.655,265.872 279.5,267C 281.228,273.048 282.228,272.882 282.5,266.5C 293.167,266.5 303.833,266.5 314.5,266.5C 314.5,265.5 314.5,264.5 314.5,263.5C 308.242,263.19 302.076,263.524 296,264.5C 292.871,263.87 289.704,263.204 286.5,262.5C 295.324,261.833 303.991,261.167 312.5,260.5C 313.938,256.425 313.605,252.425 311.5,248.5C 311.56,247.957 311.893,247.624 312.5,247.5C 313.85,248.95 315.516,249.617 317.5,249.5C 317.755,259.298 318.922,259.631 321,250.5C 321.383,251.056 321.883,251.389 322.5,251.5 Z"/></g>
<g><path style="opacity:0.539" fill="#aeaead" d="M 845.5,287.5 C 845.524,293.857 845.19,300.19 844.5,306.5C 848.167,306.5 851.833,306.5 855.5,306.5C 851.702,307.483 847.702,307.817 843.5,307.5C 842.903,307.265 842.57,306.765 842.5,306C 843.115,299.64 844.115,293.473 845.5,287.5 Z"/></g>
<g><path style="opacity:0.851" fill="#979696" d="M 857.5,294.5 C 858.08,298.649 857.414,302.316 855.5,305.5C 855.646,301.613 856.313,297.946 857.5,294.5 Z"/></g>
<g><path style="opacity:0.32" fill="#c9c8c8" d="M 449.5,292.5 C 449.48,297.954 448.48,302.954 446.5,307.5C 446.833,304.167 447.167,300.833 447.5,297.5C 447.5,297.167 447.5,296.833 447.5,296.5C 448.167,295.167 448.833,293.833 449.5,292.5 Z"/></g>
<g><path style="opacity:1" fill="#656565" d="M 447.5,297.5 C 447.167,300.833 446.833,304.167 446.5,307.5C 442.5,307.5 438.5,307.5 434.5,307.5C 434.5,306.167 434.5,304.833 434.5,303.5C 435.885,302.053 435.552,301.053 433.5,300.5C 433.811,299.522 434.478,298.855 435.5,298.5C 436.724,300.828 436.724,303.161 435.5,305.5C 438.768,306.487 442.102,306.82 445.5,306.5C 445.215,303.171 445.882,300.171 447.5,297.5 Z"/></g>
<g><path style="opacity:1" fill="#7a7979" d="M 642.5,300.5 C 642.5,302.833 642.5,305.167 642.5,307.5C 638.298,307.817 634.298,307.483 630.5,306.5C 634.167,306.5 637.833,306.5 641.5,306.5C 641.205,304.265 641.539,302.265 642.5,300.5 Z"/></g>
<g><path style="opacity:1" fill="#676868" d="M 715.5,300.5 C 715.5,302.5 715.5,304.5 715.5,306.5C 718.833,306.5 722.167,306.5 725.5,306.5C 722.038,307.482 718.371,307.815 714.5,307.5C 714.198,304.941 714.532,302.607 715.5,300.5 Z"/></g>
<g><path style="opacity:0.435" fill="#dcdcdc" d="M 434.5,307.5 C 438.5,307.5 442.5,307.5 446.5,307.5C 446.217,308.289 445.717,308.956 445,309.5C 441.397,308.865 437.897,308.198 434.5,307.5 Z"/></g>
<g><path style="opacity:0.737" fill="#c1bebe" d="M 211.5,257.5 C 208.461,267.289 207.795,277.289 209.5,287.5C 210.924,292.697 213.59,297.03 217.5,300.5C 219.094,301.983 220.76,303.483 222.5,305C 233.189,308.946 244.189,309.613 255.5,307C 256.252,300.156 257.252,293.323 258.5,286.5C 259.167,285.167 259.833,283.833 260.5,282.5C 260.182,291.536 258.849,300.369 256.5,309C 244.482,311.758 232.816,310.758 221.5,306C 207.505,295.449 203.005,281.616 208,264.5C 208.898,261.931 210.065,259.598 211.5,257.5 Z"/></g>
<g><path style="opacity:0.612" fill="#c4c0c1" d="M 593.5,290.5 C 594.167,290.833 594.833,291.167 595.5,291.5C 597.409,298.733 601.742,303.733 608.5,306.5C 617.13,309.642 624.297,307.309 630,299.5C 630.497,301.81 630.663,304.143 630.5,306.5C 634.298,307.483 638.298,307.817 642.5,307.5C 639.305,308.236 635.971,308.903 632.5,309.5C 629.763,308.931 628.263,307.264 628,304.5C 617.829,312.721 608.162,312.054 599,302.5C 596.871,298.602 595.038,294.602 593.5,290.5 Z"/></g>
<g><path style="opacity:0.031" fill="#e3e4e3" d="M 566.5,311.5 C 565.833,311.5 565.167,311.5 564.5,311.5C 565.548,309.067 566.214,309.067 566.5,311.5 Z"/></g>
</svg>
