<?xml version="1.0" encoding="UTF-8"?>
<!DOCTYPE svg PUBLIC "-//W3C//DTD SVG 1.1//EN" "http://www.w3.org/Graphics/SVG/1.1/DTD/svg11.dtd">
<svg xmlns="http://www.w3.org/2000/svg" version="1.1" width="5001px" height="1786px" style="shape-rendering:geometricPrecision; text-rendering:geometricPrecision; image-rendering:optimizeQuality; fill-rule:evenodd; clip-rule:evenodd" xmlns:xlink="http://www.w3.org/1999/xlink">
<g><path style="opacity:0.998" fill="#04407c" d="M 846.5,165.5 C 1945.17,165.333 3043.83,165.5 4142.5,166C 4283.24,175.771 4395.74,236.604 4480,348.5C 4549.19,448.287 4575.53,558.62 4559,679.5C 4535.18,825.895 4459.02,935.395 4330.5,1008C 4268.25,1040.81 4201.91,1058.15 4131.5,1060C 3040.17,1060.67 1948.83,1060.67 857.5,1060C 703.63,1052.51 583.464,985.675 497,859.5C 435.606,761.206 413.606,654.539 431,539.5C 456.066,398.869 529.899,292.702 652.5,221C 713.062,187.862 777.729,169.362 846.5,165.5 Z"/></g>
<g><path style="opacity:1" fill="#f0c907" d="M 1270.5,293.5 C 1284.02,292.231 1297.69,292.231 1311.5,293.5C 1283,311.918 1254.66,330.585 1226.5,349.5C 1213.71,349.106 1201.04,350.106 1188.5,352.5C 1218.1,333.024 1247.77,313.524 1277.5,294C 1275.19,293.503 1272.86,293.337 1270.5,293.5 Z"/></g>
<g><path style="opacity:1" fill="#f5d004" d="M 1270.5,293.5 C 1272.86,293.337 1275.19,293.503 1277.5,294C 1247.77,313.524 1218.1,333.024 1188.5,352.5C 1168.94,355.91 1150.27,361.91 1132.5,370.5C 1134.99,367.561 1137.99,365.061 1141.5,363C 1174,342.249 1206.34,321.249 1238.5,300C 1237.55,299.517 1236.55,299.351 1235.5,299.5C 1246.81,296.115 1258.47,294.115 1270.5,293.5 Z"/></g>
<g><path style="opacity:1" fill="#ebbf09" d="M 1311.5,293.5 C 1325.9,295.241 1339.57,299.241 1352.5,305.5C 1324.35,324.657 1295.68,342.99 1266.5,360.5C 1253.91,354.311 1240.57,350.645 1226.5,349.5C 1254.66,330.585 1283,311.918 1311.5,293.5 Z"/></g>
<g><path style="opacity:1" fill="#f8d605" d="M 1235.5,299.5 C 1236.55,299.351 1237.55,299.517 1238.5,300C 1206.34,321.249 1174,342.249 1141.5,363C 1137.99,365.061 1134.99,367.561 1132.5,370.5C 1104.81,383.664 1078.81,399.33 1054.5,417.5C 1054.5,413.167 1054.5,408.833 1054.5,404.5C 1052.26,404.795 1050.26,404.461 1048.5,403.5C 1093.27,363.76 1143.6,332.594 1199.5,310C 1211.25,305.583 1223.25,302.083 1235.5,299.5 Z"/></g>
<g><path style="opacity:1" fill="#e3b50c" d="M 1352.5,305.5 C 1360,309.082 1367,313.415 1373.5,318.5C 1373.44,320.592 1372.44,322.092 1370.5,323C 1356.2,331.153 1342.2,339.819 1328.5,349C 1315.69,358.105 1302.69,366.938 1289.5,375.5C 1288.13,374.193 1286.8,374.193 1285.5,375.5C 1279.67,369.766 1273.34,364.766 1266.5,360.5C 1295.68,342.99 1324.35,324.657 1352.5,305.5 Z"/></g>
<g><path style="opacity:1" fill="#e8bf4c" d="M 1379.5,323.5 C 1381.83,325.167 1383.83,327.167 1385.5,329.5C 1356.06,349.92 1326.06,369.586 1295.5,388.5C 1293.48,386.469 1291.81,384.135 1290.5,381.5C 1291.85,382.028 1293.18,382.195 1294.5,382C 1323.17,363.333 1351.83,344.667 1380.5,326C 1379.75,325.329 1379.41,324.496 1379.5,323.5 Z"/></g>
<g><path style="opacity:1" fill="#efcf7d" d="M 1390.5,335.5 C 1392.54,336.579 1393.88,338.246 1394.5,340.5C 1394.59,341.496 1394.25,342.329 1393.5,343C 1363.17,363.187 1332.51,382.687 1301.5,401.5C 1299.85,398.193 1298.18,394.86 1296.5,391.5C 1297.58,391.539 1298.58,391.873 1299.5,392.5C 1303,389.917 1306.66,387.584 1310.5,385.5C 1311.09,385.709 1311.59,386.043 1312,386.5C 1337.94,369.116 1364.11,352.116 1390.5,335.5 Z"/></g>
<g><path style="opacity:1" fill="#e4b727" d="M 1373.5,318.5 C 1375.5,320.167 1377.5,321.833 1379.5,323.5C 1379.41,324.496 1379.75,325.329 1380.5,326C 1351.83,344.667 1323.17,363.333 1294.5,382C 1293.18,382.195 1291.85,382.028 1290.5,381.5C 1288.86,379.525 1287.2,377.525 1285.5,375.5C 1286.8,374.193 1288.13,374.193 1289.5,375.5C 1302.69,366.938 1315.69,358.105 1328.5,349C 1342.2,339.819 1356.2,331.153 1370.5,323C 1372.44,322.092 1373.44,320.592 1373.5,318.5 Z"/></g>
<g><path style="opacity:1" fill="#05407b" d="M 1226.5,349.5 C 1240.57,350.645 1253.91,354.311 1266.5,360.5C 1273.34,364.766 1279.67,369.766 1285.5,375.5C 1287.2,377.525 1288.86,379.525 1290.5,381.5C 1291.81,384.135 1293.48,386.469 1295.5,388.5C 1295.56,389.609 1295.89,390.609 1296.5,391.5C 1298.18,394.86 1299.85,398.193 1301.5,401.5C 1302.17,403.5 1302.83,405.5 1303.5,407.5C 1304.17,409.833 1304.83,412.167 1305.5,414.5C 1306.58,417.402 1307.24,420.402 1307.5,423.5C 1308.17,427.833 1308.83,432.167 1309.5,436.5C 1309.5,442.167 1309.5,447.833 1309.5,453.5C 1309.39,458.518 1309.05,463.518 1308.5,468.5C 1308.5,470.833 1308.5,473.167 1308.5,475.5C 1307.74,478.791 1307.08,482.124 1306.5,485.5C 1306.04,488.221 1305.37,490.888 1304.5,493.5C 1304.6,496.692 1303.93,499.692 1302.5,502.5C 1301.08,509.249 1299.42,515.915 1297.5,522.5C 1296.1,525.699 1295.1,529.032 1294.5,532.5C 1292.31,536.217 1290.65,540.217 1289.5,544.5C 1287.36,549.344 1285.36,554.344 1283.5,559.5C 1281.98,561.216 1280.98,563.216 1280.5,565.5C 1279.5,511.669 1279.17,457.669 1279.5,403.5C 1257.83,403.5 1236.17,403.5 1214.5,403.5C 1214.5,443.5 1214.5,483.5 1214.5,523.5C 1161.17,523.5 1107.83,523.5 1054.5,523.5C 1054.5,488.167 1054.5,452.833 1054.5,417.5C 1078.81,399.33 1104.81,383.664 1132.5,370.5C 1150.27,361.91 1168.94,355.91 1188.5,352.5C 1201.04,350.106 1213.71,349.106 1226.5,349.5 Z"/></g>
<g><path style="opacity:1" fill="#f4e0ab" d="M 1397.5,344.5 C 1399.66,346.822 1401.33,349.489 1402.5,352.5C 1370.31,373.427 1337.97,394.094 1305.5,414.5C 1304.83,412.167 1304.17,409.833 1303.5,407.5C 1335.28,387.562 1366.95,367.395 1398.5,347C 1397.75,346.329 1397.41,345.496 1397.5,344.5 Z"/></g>
<g><path style="opacity:1" fill="#ecc765" d="M 1385.5,329.5 C 1387.63,331.091 1389.3,333.091 1390.5,335.5C 1364.11,352.116 1337.94,369.116 1312,386.5C 1311.59,386.043 1311.09,385.709 1310.5,385.5C 1306.66,387.584 1303,389.917 1299.5,392.5C 1298.58,391.873 1297.58,391.539 1296.5,391.5C 1295.89,390.609 1295.56,389.609 1295.5,388.5C 1326.06,369.586 1356.06,349.92 1385.5,329.5 Z"/></g>
<g><path style="opacity:1" fill="#faf3db" d="M 1406.5,359.5 C 1408.95,362.74 1410.62,366.407 1411.5,370.5C 1377.77,392.894 1343.77,414.894 1309.5,436.5C 1308.83,432.167 1308.17,427.833 1307.5,423.5C 1341.02,402.911 1374.02,381.578 1406.5,359.5 Z"/></g>
<g><path style="opacity:1" fill="#faecc4" d="M 1411.5,370.5 C 1412.74,372.649 1413.74,374.982 1414.5,377.5C 1380.05,399.229 1345.72,421.229 1311.5,443.5C 1310.51,446.768 1310.18,450.102 1310.5,453.5C 1310.17,453.5 1309.83,453.5 1309.5,453.5C 1309.5,447.833 1309.5,442.167 1309.5,436.5C 1343.77,414.894 1377.77,392.894 1411.5,370.5 Z"/></g>
<g><path style="opacity:1" fill="#fdfdfe" d="M 2505.5,372.5 C 2537.25,372.701 2568.25,377.368 2598.5,386.5C 2600.02,400.943 2599.35,415.276 2596.5,429.5C 2564.69,410.86 2530.36,404.026 2493.5,409C 2471.29,411.116 2451.63,419.116 2434.5,433C 2418.97,448.6 2412.8,467.433 2416,489.5C 2421.15,510.657 2433.65,525.824 2453.5,535C 2493.13,548.91 2532.79,548.91 2572.5,535C 2580.91,531.629 2588.91,527.462 2596.5,522.5C 2597.82,537.397 2597.82,552.23 2596.5,567C 2538.16,587.667 2479.83,587.667 2421.5,567C 2394.57,556.639 2373.74,539.139 2359,514.5C 2342.9,474.716 2350.73,440.549 2382.5,412C 2409.79,390.742 2440.79,378.408 2475.5,375C 2485.69,374.575 2495.69,373.742 2505.5,372.5 Z"/></g>
<g><path style="opacity:1" fill="#fdfdfe" d="M 2778.5,373.5 C 2816.93,371.485 2853.26,378.985 2887.5,396C 2904.73,404.9 2919.23,417.066 2931,432.5C 2951.2,465.363 2949.86,497.363 2927,528.5C 2902.15,554.512 2871.98,571.012 2836.5,578C 2787.58,587.344 2740.58,581.677 2695.5,561C 2676.99,551.82 2661.49,538.986 2649,522.5C 2628.36,489.411 2630.03,457.411 2654,426.5C 2677.57,401.96 2706.07,386.127 2739.5,379C 2752.48,375.979 2765.48,374.146 2778.5,373.5 Z"/></g>
<g><path style="opacity:1" fill="#f2d895" d="M 1394.5,340.5 C 1395.97,341.436 1396.97,342.77 1397.5,344.5C 1397.41,345.496 1397.75,346.329 1398.5,347C 1366.95,367.395 1335.28,387.562 1303.5,407.5C 1302.83,405.5 1302.17,403.5 1301.5,401.5C 1332.51,382.687 1363.17,363.187 1393.5,343C 1394.25,342.329 1394.59,341.496 1394.5,340.5 Z"/></g>
<g><path style="opacity:1" fill="#fcfdfd" d="M 1485.5,377.5 C 1527.2,376.947 1568.87,377.781 1610.5,380C 1629.02,381.286 1646.02,386.952 1661.5,397C 1680.51,412.88 1683.67,431.38 1671,452.5C 1657.9,463.538 1642.74,470.038 1625.5,472C 1634.81,474.097 1644.14,476.43 1653.5,479C 1668.54,483.583 1679.7,492.749 1687,506.5C 1692.35,529.109 1685.18,546.609 1665.5,559C 1644.49,569.627 1622.15,575.294 1598.5,576C 1560.85,577.291 1523.18,577.791 1485.5,577.5C 1485.5,510.833 1485.5,444.167 1485.5,377.5 Z"/></g>
<g><path style="opacity:1" fill="#fdfdfe" d="M 2010.5,575.5 C 1987.01,576.498 1963.34,576.831 1939.5,576.5C 1932.22,562.784 1924.56,549.284 1916.5,536C 1879.17,535.333 1841.83,535.333 1804.5,536C 1797.4,549.357 1790.74,562.857 1784.5,576.5C 1761.99,576.831 1739.66,576.497 1717.5,575.5C 1753.99,509.861 1790.49,444.194 1827,378.5C 1851.1,377.173 1875.27,377.173 1899.5,378.5C 1936.77,444.032 1973.77,509.699 2010.5,575.5 Z"/></g>
<g><path style="opacity:1" fill="#fdfdfe" d="M 2040.5,377.5 C 2062.51,377.167 2084.51,377.5 2106.5,378.5C 2147.18,420.015 2187.68,461.681 2228,503.5C 2233.06,510.228 2237.73,517.228 2242,524.5C 2241.78,518.508 2241.11,512.508 2240,506.5C 2239.5,463.501 2239.33,420.501 2239.5,377.5C 2259.5,377.5 2279.5,377.5 2299.5,377.5C 2299.5,444.167 2299.5,510.833 2299.5,577.5C 2278.83,577.667 2258.16,577.5 2237.5,577C 2196.33,535.167 2155.17,493.333 2114,451.5C 2108.28,444.109 2102.94,436.443 2098,428.5C 2098.74,433.402 2099.41,438.402 2100,443.5C 2100.5,488.165 2100.67,532.832 2100.5,577.5C 2080.5,577.5 2060.5,577.5 2040.5,577.5C 2040.5,510.833 2040.5,444.167 2040.5,377.5 Z"/></g>
<g><path style="opacity:1" fill="#fce5ab" d="M 1414.5,377.5 C 1415.7,380.421 1416.7,383.421 1417.5,386.5C 1416.21,385.499 1414.88,385.666 1413.5,387C 1379.45,409.686 1345.12,431.853 1310.5,453.5C 1310.18,450.102 1310.51,446.768 1311.5,443.5C 1345.72,421.229 1380.05,399.229 1414.5,377.5 Z"/></g>
<g><path style="opacity:1" fill="#fbde92" d="M 1417.5,386.5 C 1417.86,389.267 1418.52,391.933 1419.5,394.5C 1382.63,417.189 1346.13,440.522 1310,464.5C 1309.79,466.058 1309.29,467.391 1308.5,468.5C 1309.05,463.518 1309.39,458.518 1309.5,453.5C 1309.83,453.5 1310.17,453.5 1310.5,453.5C 1345.12,431.853 1379.45,409.686 1413.5,387C 1414.88,385.666 1416.21,385.499 1417.5,386.5 Z"/></g>
<g><path style="opacity:1" fill="#fdd979" d="M 1419.5,394.5 C 1420.3,397.43 1420.63,400.43 1420.5,403.5C 1382.92,427.079 1345.58,451.079 1308.5,475.5C 1308.5,473.167 1308.5,470.833 1308.5,468.5C 1309.29,467.391 1309.79,466.058 1310,464.5C 1346.13,440.522 1382.63,417.189 1419.5,394.5 Z"/></g>
<g><path style="opacity:1" fill="#819fbd" d="M 1047.5,403.5 C 1028.67,404.497 1009.67,404.83 990.5,404.5C 990.5,423.167 990.5,441.833 990.5,460.5C 990.167,460.5 989.833,460.5 989.5,460.5C 989.5,441.5 989.5,422.5 989.5,403.5C 1008.83,403.5 1028.17,403.5 1047.5,403.5 Z"/></g>
<g><path style="opacity:1" fill="#fefefe" d="M 1047.5,403.5 C 1047.83,403.5 1048.17,403.5 1048.5,403.5C 1050.26,404.461 1052.26,404.795 1054.5,404.5C 1054.5,408.833 1054.5,413.167 1054.5,417.5C 1054.5,452.833 1054.5,488.167 1054.5,523.5C 1107.83,523.5 1161.17,523.5 1214.5,523.5C 1215.5,484.004 1215.83,444.337 1215.5,404.5C 1236.5,404.5 1257.5,404.5 1278.5,404.5C 1278.17,459.003 1278.5,513.336 1279.5,567.5C 1279.5,567.833 1279.5,568.167 1279.5,568.5C 1278.44,574.997 1276.44,581.33 1273.5,587.5C 1270.53,593.435 1267.53,599.435 1264.5,605.5C 1260.07,612.595 1256.07,619.929 1252.5,627.5C 1249.08,631.323 1246.42,635.657 1244.5,640.5C 1241.76,642.975 1239.76,645.975 1238.5,649.5C 1235.68,652.475 1233.34,655.808 1231.5,659.5C 1228.4,662.275 1226.06,665.608 1224.5,669.5C 1221.53,672.642 1218.7,675.975 1216,679.5C 1215.82,676.635 1215.32,673.969 1214.5,671.5C 1214.5,640.5 1214.5,609.5 1214.5,578.5C 1161.17,578.5 1107.83,578.5 1054.5,578.5C 1054.5,619.833 1054.5,661.167 1054.5,702.5C 1033.17,702.5 1011.83,702.5 990.5,702.5C 990.832,692.478 990.499,682.478 989.5,672.5C 988.893,672.624 988.56,672.957 988.5,673.5C 975.057,685.555 959.39,693.388 941.5,697C 915.77,702.067 889.77,704.567 863.5,704.5C 855.981,704.175 848.648,704.508 841.5,705.5C 815.833,705.5 790.167,705.5 764.5,705.5C 764.5,627.5 764.5,549.5 764.5,471.5C 802.501,471.333 840.501,471.5 878.5,472C 899.411,472.916 920.077,475.582 940.5,480C 948.878,482.361 956.878,485.528 964.5,489.5C 966.86,491.853 969.527,493.853 972.5,495.5C 979.253,500.993 984.587,507.659 988.5,515.5C 988.461,516.756 988.961,517.756 990,518.5C 990.5,504.504 990.667,490.504 990.5,476.5C 990.5,471.167 990.5,465.833 990.5,460.5C 990.5,441.833 990.5,423.167 990.5,404.5C 1009.67,404.83 1028.67,404.497 1047.5,403.5 Z"/></g>
<g><path style="opacity:1" fill="#819fbd" d="M 1280.5,565.5 C 1280.17,566.167 1279.83,566.833 1279.5,567.5C 1278.5,513.336 1278.17,459.003 1278.5,404.5C 1257.5,404.5 1236.5,404.5 1215.5,404.5C 1215.83,444.337 1215.5,484.004 1214.5,523.5C 1214.5,483.5 1214.5,443.5 1214.5,403.5C 1236.17,403.5 1257.83,403.5 1279.5,403.5C 1279.17,457.669 1279.5,511.669 1280.5,565.5 Z"/></g>
<g><path style="opacity:1" fill="#f8eac6" d="M 1402.5,352.5 C 1404.59,354.336 1405.92,356.669 1406.5,359.5C 1374.02,381.578 1341.02,402.911 1307.5,423.5C 1307.24,420.402 1306.58,417.402 1305.5,414.5C 1337.97,394.094 1370.31,373.427 1402.5,352.5 Z"/></g>
<g><path style="opacity:1" fill="#fdd361" d="M 1420.5,403.5 C 1421.92,405.515 1422.59,407.848 1422.5,410.5C 1383.83,435.5 1345.17,460.5 1306.5,485.5C 1307.08,482.124 1307.74,478.791 1308.5,475.5C 1345.58,451.079 1382.92,427.079 1420.5,403.5 Z"/></g>
<g><path style="opacity:1" fill="#05407c" d="M 1548.5,411.5 C 1561.5,411.333 1574.5,411.5 1587.5,412C 1599.51,411.361 1609.67,415.194 1618,423.5C 1624.06,440.549 1618.22,451.049 1600.5,455C 1583.24,457.046 1565.9,457.88 1548.5,457.5C 1548.5,442.167 1548.5,426.833 1548.5,411.5 Z"/></g>
<g><path style="opacity:1" fill="#05407c" d="M 2775.5,411.5 C 2795.75,409.661 2815.42,412.161 2834.5,419C 2855.6,427.104 2870.44,441.604 2879,462.5C 2884.59,489.084 2876.42,510.25 2854.5,526C 2828.78,542.181 2800.78,547.848 2770.5,543C 2746.89,540.112 2727.06,529.946 2711,512.5C 2695.09,488.269 2695.76,464.602 2713,441.5C 2730.65,424.592 2751.48,414.592 2775.5,411.5 Z"/></g>
<g><path style="opacity:1" fill="#fcce4c" d="M 1422.5,410.5 C 1423.09,413.127 1423.42,415.794 1423.5,418.5C 1386.43,441.213 1349.76,464.713 1313.5,489C 1310.59,490.761 1307.59,492.261 1304.5,493.5C 1305.37,490.888 1306.04,488.221 1306.5,485.5C 1345.17,460.5 1383.83,435.5 1422.5,410.5 Z"/></g>
<g><path style="opacity:1" fill="#fdcb34" d="M 1423.5,418.5 C 1424.11,422.135 1424.45,425.802 1424.5,429.5C 1423.84,428.282 1423.17,426.949 1422.5,425.5C 1416.93,430.285 1410.6,433.452 1403.5,435C 1390.05,446.053 1375.39,455.053 1359.5,462C 1343.34,472.915 1327,483.582 1310.5,494C 1309.21,496.087 1308.04,498.254 1307,500.5C 1305.67,501.582 1304.17,502.249 1302.5,502.5C 1303.93,499.692 1304.6,496.692 1304.5,493.5C 1307.59,492.261 1310.59,490.761 1313.5,489C 1349.76,464.713 1386.43,441.213 1423.5,418.5 Z"/></g>
<g><path style="opacity:1" fill="#06407c" d="M 1892.5,499.5 C 1866.83,500.833 1841.17,500.833 1815.5,499.5C 1824.03,481.43 1832.87,463.43 1842,445.5C 1846.05,436.694 1849.72,427.694 1853,418.5C 1865.63,445.767 1878.8,472.767 1892.5,499.5 Z"/></g>
<g><path style="opacity:1" fill="#fece46" d="M 1424.5,440.5 C 1424.5,443.167 1424.5,445.833 1424.5,448.5C 1380.92,476.08 1337.58,504.08 1294.5,532.5C 1295.1,529.032 1296.1,525.699 1297.5,522.5C 1339.69,494.907 1382.02,467.574 1424.5,440.5 Z"/></g>
<g><path style="opacity:1" fill="#fdd361" d="M 1424.5,448.5 C 1424.81,452.042 1424.48,455.375 1423.5,458.5C 1378.76,487.82 1334.09,516.487 1289.5,544.5C 1290.65,540.217 1292.31,536.217 1294.5,532.5C 1337.58,504.08 1380.92,476.08 1424.5,448.5 Z"/></g>
<g><path style="opacity:1" fill="#fec91e" d="M 1424.5,429.5 C 1424.5,433.167 1424.5,436.833 1424.5,440.5C 1382.02,467.574 1339.69,494.907 1297.5,522.5C 1299.42,515.915 1301.08,509.249 1302.5,502.5C 1304.17,502.249 1305.67,501.582 1307,500.5C 1308.04,498.254 1309.21,496.087 1310.5,494C 1327,483.582 1343.34,472.915 1359.5,462C 1375.39,455.053 1390.05,446.053 1403.5,435C 1410.6,433.452 1416.93,430.285 1422.5,425.5C 1423.17,426.949 1423.84,428.282 1424.5,429.5 Z"/></g>
<g><path style="opacity:1" fill="#f3cf16" d="M 989.5,460.5 C 989.833,460.5 990.167,460.5 990.5,460.5C 990.5,465.833 990.5,471.167 990.5,476.5C 989.833,476.5 989.5,476.833 989.5,477.5C 983.833,483.5 978.167,489.5 972.5,495.5C 969.527,493.853 966.86,491.853 964.5,489.5C 972.459,479.538 980.793,469.872 989.5,460.5 Z"/></g>
<g><path style="opacity:1" fill="#fdd97a" d="M 1423.5,458.5 C 1423.5,462.167 1423.5,465.833 1423.5,469.5C 1377.08,499.921 1330.42,529.921 1283.5,559.5C 1285.36,554.344 1287.36,549.344 1289.5,544.5C 1334.09,516.487 1378.76,487.82 1423.5,458.5 Z"/></g>
<g><path style="opacity:1" fill="#809ebd" d="M 990.5,476.5 C 990.667,490.504 990.5,504.504 990,518.5C 988.961,517.756 988.461,516.756 988.5,515.5C 989.495,503.011 989.829,490.344 989.5,477.5C 989.5,476.833 989.833,476.5 990.5,476.5 Z"/></g>
<g><path style="opacity:1" fill="#0c417b" d="M 989.5,477.5 C 989.829,490.344 989.495,503.011 988.5,515.5C 984.587,507.659 979.253,500.993 972.5,495.5C 978.167,489.5 983.833,483.5 989.5,477.5 Z"/></g>
<g><path style="opacity:1" fill="#fcdf92" d="M 1423.5,469.5 C 1423.45,473.198 1423.11,476.865 1422.5,480.5C 1375.57,511.974 1328.24,542.974 1280.5,573.5C 1279.55,571.955 1279.21,570.288 1279.5,568.5C 1279.5,568.167 1279.5,567.833 1279.5,567.5C 1279.83,566.833 1280.17,566.167 1280.5,565.5C 1280.98,563.216 1281.98,561.216 1283.5,559.5C 1330.42,529.921 1377.08,499.921 1423.5,469.5 Z"/></g>
<g><path style="opacity:1" fill="#05407c" d="M 1548.5,490.5 C 1563.17,490.333 1577.84,490.5 1592.5,491C 1604.11,491.865 1614.28,496.032 1623,503.5C 1631.2,522.943 1625.03,535.443 1604.5,541C 1599.56,542.085 1594.56,542.752 1589.5,543C 1575.84,543.5 1562.17,543.667 1548.5,543.5C 1548.5,525.833 1548.5,508.167 1548.5,490.5 Z"/></g>
<g><path style="opacity:1" fill="#fce6ab" d="M 1422.5,480.5 C 1421.93,485.183 1421.26,489.85 1420.5,494.5C 1371.6,525.387 1322.93,556.72 1274.5,588.5C 1273.89,588.376 1273.56,588.043 1273.5,587.5C 1276.44,581.33 1278.44,574.997 1279.5,568.5C 1279.21,570.288 1279.55,571.955 1280.5,573.5C 1328.24,542.974 1375.57,511.974 1422.5,480.5 Z"/></g>
<g><path style="opacity:1" fill="#fcedc3" d="M 1420.5,494.5 C 1419.37,498.804 1418.37,503.137 1417.5,507.5C 1366.44,540.116 1315.61,573.116 1265,606.5C 1264.6,606.272 1264.43,605.938 1264.5,605.5C 1267.53,599.435 1270.53,593.435 1273.5,587.5C 1273.56,588.043 1273.89,588.376 1274.5,588.5C 1322.93,556.72 1371.6,525.387 1420.5,494.5 Z"/></g>
<g><path style="opacity:1" fill="#809ebd" d="M 1815.5,499.5 C 1841.17,500.833 1866.83,500.833 1892.5,499.5C 1893.04,499.56 1893.38,499.893 1893.5,500.5C 1867.17,501.833 1840.83,501.833 1814.5,500.5C 1814.62,499.893 1814.96,499.56 1815.5,499.5 Z"/></g>
<g><path style="opacity:1" fill="#06407c" d="M 841.5,510.5 C 854.504,510.333 867.504,510.5 880.5,511C 891.456,511.322 901.789,513.989 911.5,519C 921.306,528.043 923.139,538.543 917,550.5C 909.313,557.737 900.146,561.904 889.5,563C 873.522,564.196 857.522,564.696 841.5,564.5C 841.5,546.5 841.5,528.5 841.5,510.5 Z"/></g>
<g><path style="opacity:1" fill="#fbf4de" d="M 1417.5,507.5 C 1417.08,513.497 1415.75,519.164 1413.5,524.5C 1413.57,524.062 1413.4,523.728 1413,523.5C 1359.62,558.39 1306.12,593.056 1252.5,627.5C 1256.07,619.929 1260.07,612.595 1264.5,605.5C 1264.43,605.938 1264.6,606.272 1265,606.5C 1315.61,573.116 1366.44,540.116 1417.5,507.5 Z"/></g>
<g><path style="opacity:1" fill="#f9efd2" d="M 1413.5,524.5 C 1413.32,527.727 1412.66,530.727 1411.5,533.5C 1411.57,533.062 1411.4,532.728 1411,532.5C 1355.62,568.723 1300.12,604.723 1244.5,640.5C 1246.42,635.657 1249.08,631.323 1252.5,627.5C 1306.12,593.056 1359.62,558.39 1413,523.5C 1413.4,523.728 1413.57,524.062 1413.5,524.5 Z"/></g>
<g><path style="opacity:1" fill="#f7e8c0" d="M 1411.5,533.5 C 1411.12,535.698 1410.46,537.698 1409.5,539.5C 1352.48,576.193 1295.48,612.86 1238.5,649.5C 1239.76,645.975 1241.76,642.975 1244.5,640.5C 1300.12,604.723 1355.62,568.723 1411,532.5C 1411.4,532.728 1411.57,533.062 1411.5,533.5 Z"/></g>
<g><path style="opacity:1" fill="#f6e3b3" d="M 1409.5,539.5 C 1409.2,542.373 1408.53,545.039 1407.5,547.5C 1405.69,547.491 1404.02,547.991 1402.5,549C 1345.78,586.353 1288.78,623.186 1231.5,659.5C 1233.34,655.808 1235.68,652.475 1238.5,649.5C 1295.48,612.86 1352.48,576.193 1409.5,539.5 Z"/></g>
<g><path style="opacity:1" fill="#819fbd" d="M 988.5,604.5 C 989.833,585.833 989.833,567.167 988.5,548.5C 988.783,547.711 989.283,547.044 990,546.5C 990.833,566.175 990.666,585.842 989.5,605.5C 988.893,605.376 988.56,605.043 988.5,604.5 Z"/></g>
<g><path style="opacity:1" fill="#08417d" d="M 988.5,548.5 C 989.833,567.167 989.833,585.833 988.5,604.5C 980.726,598.947 972.393,594.447 963.5,591C 950.744,586.982 937.744,583.982 924.5,582C 940.7,580.096 956.033,575.429 970.5,568C 978.455,563.215 984.455,556.715 988.5,548.5 Z"/></g>
<g><path style="opacity:1" fill="#f4dfa7" d="M 1407.5,547.5 C 1407.2,549.403 1406.54,551.07 1405.5,552.5C 1345,591.251 1284.66,630.251 1224.5,669.5C 1226.06,665.608 1228.4,662.275 1231.5,659.5C 1288.78,623.186 1345.78,586.353 1402.5,549C 1404.02,547.991 1405.69,547.491 1407.5,547.5 Z"/></g>
<g><path style="opacity:1" fill="#f1d58e" d="M 1403.5,559.5 C 1402.83,561.833 1402.17,564.167 1401.5,566.5C 1334.72,609.397 1268.05,652.563 1201.5,696C 1196.9,698.804 1192.23,701.304 1187.5,703.5C 1190.86,699.808 1194.2,696.141 1197.5,692.5C 1266.18,648.787 1334.85,604.454 1403.5,559.5 Z"/></g>
<g><path style="opacity:1" fill="#efd081" d="M 1401.5,566.5 C 1400.74,570.133 1399.4,573.466 1397.5,576.5C 1397.44,575.957 1397.11,575.624 1396.5,575.5C 1321.73,624.28 1246.73,672.613 1171.5,720.5C 1176.83,714.833 1182.17,709.167 1187.5,703.5C 1192.23,701.304 1196.9,698.804 1201.5,696C 1268.05,652.563 1334.72,609.397 1401.5,566.5 Z"/></g>
<g><path style="opacity:1" fill="#f3da9b" d="M 1405.5,552.5 C 1405.23,554.965 1404.57,557.299 1403.5,559.5C 1334.85,604.454 1266.18,648.787 1197.5,692.5C 1203.55,685.79 1209.21,678.79 1214.5,671.5C 1215.32,673.969 1215.82,676.635 1216,679.5C 1218.7,675.975 1221.53,672.642 1224.5,669.5C 1284.66,630.251 1345,591.251 1405.5,552.5 Z"/></g>
<g><path style="opacity:1" fill="#809ebd" d="M 1717.5,575.5 C 1739.66,576.497 1761.99,576.831 1784.5,576.5C 1762,577.829 1739.33,577.829 1716.5,576.5C 1716.62,575.893 1716.96,575.56 1717.5,575.5 Z"/></g>
<g><path style="opacity:1" fill="#809ebd" d="M 2010.5,575.5 C 2011.04,575.56 2011.38,575.893 2011.5,576.5C 1987.34,577.829 1963.34,577.829 1939.5,576.5C 1963.34,576.831 1987.01,576.498 2010.5,575.5 Z"/></g>
<g><path style="opacity:1" fill="#04407c" d="M 1214.5,671.5 C 1209.21,678.79 1203.55,685.79 1197.5,692.5C 1194.2,696.141 1190.86,699.808 1187.5,703.5C 1182.17,709.167 1176.83,714.833 1171.5,720.5C 1165.83,725.5 1160.5,730.833 1155.5,736.5C 1148.14,742.862 1140.81,749.196 1133.5,755.5C 1105.22,779.106 1074.55,799.106 1041.5,815.5C 1028.59,821.404 1015.26,826.404 1001.5,830.5C 994.937,832.594 988.27,834.26 981.5,835.5C 975.428,836.129 969.428,837.129 963.5,838.5C 958.167,838.5 952.833,838.5 947.5,838.5C 943.566,837.64 939.566,837.307 935.5,837.5C 928.826,836.269 922.159,834.602 915.5,832.5C 913.412,831.799 911.412,830.799 909.5,829.5C 906.622,827.895 903.622,826.561 900.5,825.5C 898.853,823.674 896.853,822.34 894.5,821.5C 892.451,818.45 889.784,816.117 886.5,814.5C 884.518,811.19 882.185,808.19 879.5,805.5C 877.467,802.477 875.467,799.477 873.5,796.5C 870.888,790.943 868.554,785.276 866.5,779.5C 865.25,776.994 864.584,774.327 864.5,771.5C 864.167,770.167 863.833,768.833 863.5,767.5C 862.617,762.868 861.95,758.202 861.5,753.5C 861.002,748.848 860.669,744.181 860.5,739.5C 860.5,736.167 860.5,732.833 860.5,729.5C 861.489,723.678 862.156,717.678 862.5,711.5C 863.219,709.236 863.552,706.903 863.5,704.5C 889.77,704.567 915.77,702.067 941.5,697C 959.39,693.388 975.057,685.555 988.5,673.5C 989.167,683.167 989.833,692.833 990.5,702.5C 1011.83,702.5 1033.17,702.5 1054.5,702.5C 1054.5,661.167 1054.5,619.833 1054.5,578.5C 1107.83,578.5 1161.17,578.5 1214.5,578.5C 1214.5,609.5 1214.5,640.5 1214.5,671.5 Z"/></g>
<g><path style="opacity:1" fill="#edcc75" d="M 1397.5,576.5 C 1397.1,579.486 1396.1,582.152 1394.5,584.5C 1394.26,583.903 1393.76,583.57 1393,583.5C 1313.88,634.64 1234.71,685.64 1155.5,736.5C 1160.5,730.833 1165.83,725.5 1171.5,720.5C 1246.73,672.613 1321.73,624.28 1396.5,575.5C 1397.11,575.624 1397.44,575.957 1397.5,576.5 Z"/></g>
<g><path style="opacity:1" fill="#ecc868" d="M 1394.5,584.5 C 1394.6,586.553 1393.93,588.22 1392.5,589.5C 1309.23,642.807 1226.23,696.641 1143.5,751C 1140.46,753.22 1137.13,754.72 1133.5,755.5C 1140.81,749.196 1148.14,742.862 1155.5,736.5C 1234.71,685.64 1313.88,634.64 1393,583.5C 1393.76,583.57 1394.26,583.903 1394.5,584.5 Z"/></g>
<g><path style="opacity:1" fill="#eac45d" d="M 1392.5,589.5 C 1392.02,592.443 1391.02,595.11 1389.5,597.5C 1389.44,596.957 1389.11,596.624 1388.5,596.5C 1214.52,709.166 1040.86,822.166 867.5,935.5C 865.833,934.5 864.5,933.167 863.5,931.5C 918.947,896.271 974.28,860.771 1029.5,825C 1034.01,822.304 1038.01,819.137 1041.5,815.5C 1074.55,799.106 1105.22,779.106 1133.5,755.5C 1137.13,754.72 1140.46,753.22 1143.5,751C 1226.23,696.641 1309.23,642.807 1392.5,589.5 Z"/></g>
<g><path style="opacity:1" fill="#eac14f" d="M 1389.5,597.5 C 1388.68,599.987 1387.68,602.321 1386.5,604.5C 1386.1,603.475 1385.44,603.308 1384.5,604C 1212.99,715.363 1041.66,826.863 870.5,938.5C 869.167,937.833 868.167,936.833 867.5,935.5C 1040.86,822.166 1214.52,709.166 1388.5,596.5C 1389.11,596.624 1389.44,596.957 1389.5,597.5 Z"/></g>
<g><path style="opacity:1" fill="#05407b" d="M 885.5,604.5 C 877.369,619.096 870.035,634.096 863.5,649.5C 860.796,654.591 858.463,659.924 856.5,665.5C 851.5,665.5 846.5,665.5 841.5,665.5C 841.5,644.833 841.5,624.167 841.5,603.5C 856.18,603.389 870.847,603.723 885.5,604.5 Z"/></g>
<g><path style="opacity:1" fill="#08417c" d="M 897.5,606.5 C 911.81,607.72 921.976,614.72 928,627.5C 930.288,643.085 924.122,653.919 909.5,660C 897.801,663.758 885.801,665.591 873.5,665.5C 875.788,657.634 878.454,649.967 881.5,642.5C 886.253,630.321 891.586,618.321 897.5,606.5 Z"/></g>
<g><path style="opacity:1" fill="#e7bd41" d="M 1386.5,604.5 C 1385.54,607.739 1384.2,610.739 1382.5,613.5C 1382.57,613.062 1382.4,612.728 1382,612.5C 1212.61,721.926 1043.78,831.926 875.5,942.5C 873.809,941.136 872.142,939.803 870.5,938.5C 1041.66,826.863 1212.99,715.363 1384.5,604C 1385.44,603.308 1386.1,603.475 1386.5,604.5 Z"/></g>
<g><path style="opacity:1" fill="#fdfefe" d="M 3342.5,617.5 C 3367.43,616.51 3392.43,616.177 3417.5,616.5C 3456.39,701.958 3495.06,787.624 3533.5,873.5C 3508.83,874.833 3484.17,874.833 3459.5,873.5C 3451.63,855.592 3443.63,837.759 3435.5,820C 3396.83,819.167 3358.16,819.333 3319.5,820.5C 3312.69,838.28 3305.69,855.946 3298.5,873.5C 3274.64,874.818 3250.81,874.818 3227,873.5C 3180.31,886.006 3134.48,883.506 3089.5,866C 3025.57,836.306 2998.73,786.472 3009,716.5C 3018,681.679 3037.83,654.846 3068.5,636C 3109.57,613.041 3153.57,604.708 3200.5,611C 3222.28,613.786 3243.28,619.286 3263.5,627.5C 3263.83,628.667 3264.17,629.833 3264.5,631C 3263.62,648.503 3262.62,666.003 3261.5,683.5C 3228.01,657.881 3190.34,649.047 3148.5,657C 3088.88,672.355 3064.71,710.522 3076,771.5C 3084.69,799.862 3103.19,818.695 3131.5,828C 3173.65,839.274 3213.31,833.608 3250.5,811C 3253.94,808.861 3257.11,806.361 3260,803.5C 3287.6,741.512 3315.1,679.512 3342.5,617.5 Z"/></g>
<g><path style="opacity:1" fill="#fdfefe" d="M 2303.5,610.5 C 2353.82,606.972 2398.49,620.805 2437.5,652C 2482.76,695.144 2492.6,745.311 2467,802.5C 2448.11,833.724 2421.61,855.891 2387.5,869C 2332.66,888.448 2279.66,884.448 2228.5,857C 2173.14,823.91 2151.64,775.743 2164,712.5C 2173.11,683.789 2189.95,660.622 2214.5,643C 2241.33,624.335 2271,613.502 2303.5,610.5 Z"/></g>
<g><path style="opacity:1" fill="#fdfefe" d="M 4057.5,609.5 C 4102.04,608.154 4142.04,620.654 4177.5,647C 4218.94,681.215 4234.1,724.715 4223,777.5C 4215.59,802.811 4201.76,823.978 4181.5,841C 4135.38,876.03 4083.71,888.03 4026.5,877C 3983.52,867.61 3949.35,845.11 3924,809.5C 3898.2,763.978 3899.54,719.311 3928,675.5C 3952.18,644.144 3983.68,623.977 4022.5,615C 4034.28,612.924 4045.95,611.091 4057.5,609.5 Z"/></g>
<g><path style="opacity:1" fill="#e6b931" d="M 1382.5,613.5 C 1382.01,615.819 1381.01,617.819 1379.5,619.5C 1379.1,618.475 1378.44,618.308 1377.5,619C 1210.95,727.437 1044.28,835.603 877.5,943.5C 876.508,943.672 875.842,943.338 875.5,942.5C 1043.78,831.926 1212.61,721.926 1382,612.5C 1382.4,612.728 1382.57,613.062 1382.5,613.5 Z"/></g>
<g><path style="opacity:1" fill="#819fbd" d="M 2494.5,616.5 C 2575.66,615.501 2657,615.167 2738.5,615.5C 2738.83,631.675 2738.5,647.675 2737.5,663.5C 2737.5,647.833 2737.5,632.167 2737.5,616.5C 2656.5,616.5 2575.5,616.5 2494.5,616.5 Z"/></g>
<g><path style="opacity:1" fill="#819fbd" d="M 3417.5,616.5 C 3392.43,616.177 3367.43,616.51 3342.5,617.5C 3354.65,616.168 3367.15,615.501 3380,615.5C 3392.67,615.5 3405.17,615.833 3417.5,616.5 Z"/></g>
<g><path style="opacity:1" fill="#819fbd" d="M 1543.5,616.5 C 1522.17,616.5 1500.83,616.5 1479.5,616.5C 1479.5,702.5 1479.5,788.5 1479.5,874.5C 1478.5,788.335 1478.17,702.002 1478.5,615.5C 1500.34,615.169 1522.01,615.503 1543.5,616.5 Z"/></g>
<g><path style="opacity:1" fill="#fefefe" d="M 1479.5,874.5 C 1479.5,788.5 1479.5,702.5 1479.5,616.5C 1500.83,616.5 1522.17,616.5 1543.5,616.5C 1543.5,650.833 1543.5,685.167 1543.5,719.5C 1586.83,719.5 1630.17,719.5 1673.5,719.5C 1673.5,684.833 1673.5,650.167 1673.5,615.5C 1695.17,615.5 1716.83,615.5 1738.5,615.5C 1738.5,701.833 1738.5,788.167 1738.5,874.5C 1716.83,874.5 1695.17,874.5 1673.5,874.5C 1673.5,838.5 1673.5,802.5 1673.5,766.5C 1630.17,766.5 1586.83,766.5 1543.5,766.5C 1543.5,802.5 1543.5,838.5 1543.5,874.5C 1522.17,874.5 1500.83,874.5 1479.5,874.5 Z"/></g>
<g><path style="opacity:1" fill="#819fbd" d="M 1870.5,616.5 C 1849.17,616.5 1827.83,616.5 1806.5,616.5C 1806.5,702.5 1806.5,788.5 1806.5,874.5C 1805.5,788.335 1805.17,702.002 1805.5,615.5C 1827.34,615.169 1849.01,615.503 1870.5,616.5 Z"/></g>
<g><path style="opacity:1" fill="#fefffe" d="M 1870.5,616.5 C 1870.5,702.5 1870.5,788.5 1870.5,874.5C 1849.17,874.5 1827.83,874.5 1806.5,874.5C 1806.5,788.5 1806.5,702.5 1806.5,616.5C 1827.83,616.5 1849.17,616.5 1870.5,616.5 Z"/></g>
<g><path style="opacity:1" fill="#fdfefe" d="M 1938.5,615.5 C 1969.17,615.333 1999.84,615.5 2030.5,616C 2047.6,616.628 2064.27,619.628 2080.5,625C 2117.58,639.963 2133.41,667.463 2128,707.5C 2124.26,730.471 2112.43,747.971 2092.5,760C 2076.88,768.393 2060.22,773.393 2042.5,775C 2029.51,775.928 2016.51,776.428 2003.5,776.5C 2003.5,809.167 2003.5,841.833 2003.5,874.5C 1981.83,874.5 1960.17,874.5 1938.5,874.5C 1938.5,788.167 1938.5,701.833 1938.5,615.5 Z"/></g>
<g><path style="opacity:1" fill="#fcfdfd" d="M 2494.5,616.5 C 2575.5,616.5 2656.5,616.5 2737.5,616.5C 2737.5,632.167 2737.5,647.833 2737.5,663.5C 2708.17,663.5 2678.83,663.5 2649.5,663.5C 2649.5,733.833 2649.5,804.167 2649.5,874.5C 2627.5,874.5 2605.5,874.5 2583.5,874.5C 2583.5,804.167 2583.5,733.833 2583.5,663.5C 2553.83,663.5 2524.17,663.5 2494.5,663.5C 2494.5,647.833 2494.5,632.167 2494.5,616.5 Z"/></g>
<g><path style="opacity:1" fill="#fcfdfd" d="M 2779.5,615.5 C 2843.83,615.5 2908.17,615.5 2972.5,615.5C 2972.5,631.5 2972.5,647.5 2972.5,663.5C 2929.83,663.5 2887.17,663.5 2844.5,663.5C 2844.5,680.833 2844.5,698.167 2844.5,715.5C 2887.17,715.5 2929.83,715.5 2972.5,715.5C 2972.5,731.5 2972.5,747.5 2972.5,763.5C 2929.83,763.5 2887.17,763.5 2844.5,763.5C 2844.5,784.5 2844.5,805.5 2844.5,826.5C 2887.17,826.5 2929.83,826.5 2972.5,826.5C 2972.5,842.5 2972.5,858.5 2972.5,874.5C 2908.17,874.5 2843.83,874.5 2779.5,874.5C 2779.5,788.167 2779.5,701.833 2779.5,615.5 Z"/></g>
<g><path style="opacity:1" fill="#fefefe" d="M 3553.5,615.5 C 3590.17,615.333 3626.83,615.5 3663.5,616C 3688.09,616.638 3710.75,623.305 3731.5,636C 3744.61,646.387 3752.45,659.887 3755,676.5C 3759,711.339 3745.17,736.172 3713.5,751C 3708.2,753.149 3702.87,754.983 3697.5,756.5C 3715.23,762.386 3729.39,773.053 3740,788.5C 3757.32,815.294 3770.48,843.961 3779.5,874.5C 3754.5,874.5 3729.5,874.5 3704.5,874.5C 3693.4,833.798 3674.07,797.632 3646.5,766C 3637.17,765.5 3627.84,765.334 3618.5,765.5C 3618.5,801.833 3618.5,838.167 3618.5,874.5C 3596.83,874.5 3575.17,874.5 3553.5,874.5C 3553.5,788.167 3553.5,701.833 3553.5,615.5 Z"/></g>
<g><path style="opacity:1" fill="#819fbd" d="M 3874.5,616.5 C 3853.17,616.5 3831.83,616.5 3810.5,616.5C 3810.5,702.5 3810.5,788.5 3810.5,874.5C 3809.5,788.335 3809.17,702.002 3809.5,615.5C 3831.34,615.169 3853.01,615.503 3874.5,616.5 Z"/></g>
<g><path style="opacity:1" fill="#fefffe" d="M 3874.5,616.5 C 3874.5,702.5 3874.5,788.5 3874.5,874.5C 3853.17,874.5 3831.83,874.5 3810.5,874.5C 3810.5,788.5 3810.5,702.5 3810.5,616.5C 3831.83,616.5 3853.17,616.5 3874.5,616.5 Z"/></g>
<g><path style="opacity:1" fill="#dfb313" d="M 885.5,604.5 C 889.79,604.198 893.79,604.864 897.5,606.5C 891.586,618.321 886.253,630.321 881.5,642.5C 880.127,642.343 878.793,642.51 877.5,643C 878.214,644.343 877.88,645.676 876.5,647C 872.464,650.18 868.131,652.513 863.5,654C 864.167,653.333 864.833,652.667 865.5,652C 864.244,651.583 863.577,650.75 863.5,649.5C 870.035,634.096 877.369,619.096 885.5,604.5 Z"/></g>
<g><path style="opacity:1" fill="#e3b30c" d="M 1373.5,632.5 C 1372.01,636.818 1370.01,640.818 1367.5,644.5C 1367.44,643.957 1367.11,643.624 1366.5,643.5C 1207.93,746.275 1049.6,849.275 891.5,952.5C 889.517,951.529 887.517,950.529 885.5,949.5C 885.369,948.761 885.536,948.094 886,947.5C 906.326,932.741 927.16,918.574 948.5,905C 1077,821.916 1205.34,738.582 1333.5,655C 1346.76,648.369 1359.42,640.703 1371.5,632C 1372.44,631.308 1373.1,631.475 1373.5,632.5 Z"/></g>
<g><path style="opacity:1" fill="#e6b80a" d="M 1367.5,644.5 C 1363.58,653.353 1358.91,661.687 1353.5,669.5C 1352.28,668.535 1350.95,668.702 1349.5,670C 1201.77,766.191 1054.1,862.357 906.5,958.5C 901.169,957.28 896.169,955.28 891.5,952.5C 1049.6,849.275 1207.93,746.275 1366.5,643.5C 1367.11,643.624 1367.44,643.957 1367.5,644.5 Z"/></g>
<g><path style="opacity:1" fill="#06407c" d="M 2003.5,657.5 C 2017.47,656.587 2031.13,658.087 2044.5,662C 2056.82,668.808 2062.82,679.308 2062.5,693.5C 2062.58,714.59 2052.25,727.09 2031.5,731C 2022.18,731.832 2012.85,732.332 2003.5,732.5C 2003.5,707.5 2003.5,682.5 2003.5,657.5 Z"/></g>
<g><path style="opacity:1" fill="#e4ba41" d="M 881.5,642.5 C 878.454,649.967 875.788,657.634 873.5,665.5C 867.703,666.762 862.037,666.762 856.5,665.5C 858.463,659.924 860.796,654.591 863.5,649.5C 863.577,650.75 864.244,651.583 865.5,652C 864.833,652.667 864.167,653.333 863.5,654C 868.131,652.513 872.464,650.18 876.5,647C 877.88,645.676 878.214,644.343 877.5,643C 878.793,642.51 880.127,642.343 881.5,642.5 Z"/></g>
<g><path style="opacity:1" fill="#04407c" d="M 2310.5,659.5 C 2352.72,656.188 2384.55,672.521 2406,708.5C 2419.18,739.908 2416.18,769.575 2397,797.5C 2372.74,824.124 2342.57,835.291 2306.5,831C 2266.38,825.713 2240.21,803.88 2228,765.5C 2221.2,715.928 2241.03,682.094 2287.5,664C 2295.16,661.705 2302.83,660.205 2310.5,659.5 Z"/></g>
<g><path style="opacity:1" fill="#04407c" d="M 4056.5,659.5 C 4096.71,656.189 4127.87,671.189 4150,704.5C 4163.57,731.328 4163.9,758.328 4151,785.5C 4129.11,819.319 4097.94,834.486 4057.5,831C 4019.5,828.436 3992.67,809.936 3977,775.5C 3964.21,731.282 3977.04,696.782 4015.5,672C 4028.41,664.995 4042.07,660.828 4056.5,659.5 Z"/></g>
<g><path style="opacity:1" fill="#06407c" d="M 3618.5,664.5 C 3632.83,665.353 3647.16,665.52 3661.5,665C 3673.86,669.717 3679.19,678.717 3677.5,692C 3677.99,705.361 3672.32,715.028 3660.5,721C 3646.77,724.883 3632.77,726.383 3618.5,725.5C 3618.5,705.167 3618.5,684.833 3618.5,664.5 Z"/></g>
<g><path style="opacity:1" fill="#eabe07" d="M 1353.5,669.5 C 1348.33,679.174 1342.67,688.508 1336.5,697.5C 1336.57,697.062 1336.4,696.728 1336,696.5C 1198.51,785.484 1061.35,874.817 924.5,964.5C 918.231,963.077 912.231,961.077 906.5,958.5C 1054.1,862.357 1201.77,766.191 1349.5,670C 1350.95,668.702 1352.28,668.535 1353.5,669.5 Z"/></g>
<g><path style="opacity:1" fill="#06407c" d="M 3378.5,671.5 C 3392.13,706.042 3405.8,740.709 3419.5,775.5C 3392.49,775.833 3365.49,775.5 3338.5,774.5C 3351.92,740.124 3365.25,705.791 3378.5,671.5 Z"/></g>
<g><path style="opacity:1" fill="#809ebc" d="M 988.5,673.5 C 988.56,672.957 988.893,672.624 989.5,672.5C 990.499,682.478 990.832,692.478 990.5,702.5C 989.833,692.833 989.167,683.167 988.5,673.5 Z"/></g>
<g><path style="opacity:1" fill="#eec406" d="M 1336.5,697.5 C 1329.65,708.552 1322.31,719.218 1314.5,729.5C 1314.1,728.475 1313.44,728.308 1312.5,729C 1190.32,808.363 1068.32,887.863 946.5,967.5C 939.086,966.99 931.752,965.99 924.5,964.5C 1061.35,874.817 1198.51,785.484 1336,696.5C 1336.4,696.728 1336.57,697.062 1336.5,697.5 Z"/></g>
<g><path style="opacity:1" fill="#f8f0da" d="M 862.5,711.5 C 862.156,717.678 861.489,723.678 860.5,729.5C 853.101,733.074 845.768,737.574 838.5,743C 835.89,744.481 833.223,745.648 830.5,746.5C 832.05,740.71 833.717,735.044 835.5,729.5C 835.435,729.938 835.601,730.272 836,730.5C 845.614,725.022 854.447,718.689 862.5,711.5 Z"/></g>
<g><path style="opacity:1" fill="#f6e7c1" d="M 863.5,704.5 C 863.552,706.903 863.219,709.236 862.5,711.5C 854.447,718.689 845.614,725.022 836,730.5C 835.601,730.272 835.435,729.938 835.5,729.5C 836.904,721.357 838.904,713.357 841.5,705.5C 848.648,704.508 855.981,704.175 863.5,704.5 Z"/></g>
<g><path style="opacity:1" fill="#f2ca04" d="M 1314.5,729.5 C 1305.23,743.094 1295.23,756.094 1284.5,768.5C 1284.44,767.957 1284.11,767.624 1283.5,767.5C 1181.44,833.857 1079.44,900.191 977.5,966.5C 967.249,967.475 956.915,967.808 946.5,967.5C 1068.32,887.863 1190.32,808.363 1312.5,729C 1313.44,728.308 1314.1,728.475 1314.5,729.5 Z"/></g>
<g><path style="opacity:1" fill="#fcebbe" d="M 860.5,729.5 C 860.5,732.833 860.5,736.167 860.5,739.5C 849.585,745.744 838.918,752.411 828.5,759.5C 829.425,755.21 830.091,750.876 830.5,746.5C 833.223,745.648 835.89,744.481 838.5,743C 845.768,737.574 853.101,733.074 860.5,729.5 Z"/></g>
<g><path style="opacity:1" fill="#f8e1a4" d="M 860.5,739.5 C 860.669,744.181 861.002,748.848 861.5,753.5C 860.698,752.048 860.198,750.382 860,748.5C 849.221,756.449 838.055,763.782 826.5,770.5C 826.931,766.663 827.598,762.997 828.5,759.5C 838.918,752.411 849.585,745.744 860.5,739.5 Z"/></g>
<g><path style="opacity:1" fill="#fada85" d="M 861.5,753.5 C 861.95,758.202 862.617,762.868 863.5,767.5C 862.778,767.082 862.278,766.416 862,765.5C 849.667,773.5 837.333,781.5 825,789.5C 824.79,791.058 824.29,792.391 823.5,793.5C 824.562,785.801 825.562,778.135 826.5,770.5C 838.055,763.782 849.221,756.449 860,748.5C 860.198,750.382 860.698,752.048 861.5,753.5 Z"/></g>
<g><path style="opacity:1" fill="#fdd467" d="M 863.5,767.5 C 863.833,768.833 864.167,770.167 864.5,771.5C 850.692,779.906 837.026,788.573 823.5,797.5C 823.5,796.167 823.5,794.833 823.5,793.5C 824.29,792.391 824.79,791.058 825,789.5C 837.333,781.5 849.667,773.5 862,765.5C 862.278,766.416 862.778,767.082 863.5,767.5 Z"/></g>
<g><path style="opacity:1" fill="#f6d102" d="M 1284.5,768.5 C 1273.92,782.42 1262.25,795.42 1249.5,807.5C 1171.15,857.672 1093.15,908.338 1015.5,959.5C 1003.23,963.352 990.565,965.685 977.5,966.5C 1079.44,900.191 1181.44,833.857 1283.5,767.5C 1284.11,767.624 1284.44,767.957 1284.5,768.5 Z"/></g>
<g><path style="opacity:1" fill="#e3b51d" d="M 1379.5,619.5 C 1378.26,624.25 1376.26,628.584 1373.5,632.5C 1373.1,631.475 1372.44,631.308 1371.5,632C 1359.42,640.703 1346.76,648.369 1333.5,655C 1205.34,738.582 1077,821.916 948.5,905C 927.16,918.574 906.326,932.741 886,947.5C 885.536,948.094 885.369,948.761 885.5,949.5C 882.527,947.853 879.86,945.853 877.5,943.5C 1044.28,835.603 1210.95,727.437 1377.5,619C 1378.44,618.308 1379.1,618.475 1379.5,619.5 Z"/></g>
<g><path style="opacity:1" fill="#fdcf4e" d="M 864.5,771.5 C 864.584,774.327 865.25,776.994 866.5,779.5C 865.577,778.697 864.577,778.53 863.5,779C 850.28,787.771 836.946,796.271 823.5,804.5C 823.5,803.167 823.5,801.833 823.5,800.5C 823.5,799.5 823.5,798.5 823.5,797.5C 837.026,788.573 850.692,779.906 864.5,771.5 Z"/></g>
<g><path style="opacity:1" fill="#feca29" d="M 866.5,779.5 C 868.554,785.276 870.888,790.943 873.5,796.5C 857.816,808.197 841.483,819.197 824.5,829.5C 823.502,821.193 823.169,812.86 823.5,804.5C 836.946,796.271 850.28,787.771 863.5,779C 864.577,778.53 865.577,778.697 866.5,779.5 Z"/></g>
<g><path style="opacity:1" fill="#f8cd52" d="M 873.5,796.5 C 875.467,799.477 877.467,802.477 879.5,805.5C 861.781,818.03 843.614,830.03 825,841.5C 824.79,839.942 824.29,838.609 823.5,837.5C 822.312,825.01 822.312,812.677 823.5,800.5C 823.5,801.833 823.5,803.167 823.5,804.5C 823.169,812.86 823.502,821.193 824.5,829.5C 841.483,819.197 857.816,808.197 873.5,796.5 Z"/></g>
<g><path style="opacity:1" fill="#f9d602" d="M 1249.5,807.5 C 1198.31,863.924 1138.31,908.424 1069.5,941C 1052.07,948.694 1034.07,954.861 1015.5,959.5C 1093.15,908.338 1171.15,857.672 1249.5,807.5 Z"/></g>
<g><path style="opacity:1" fill="#fcd56f" d="M 879.5,805.5 C 882.185,808.19 884.518,811.19 886.5,814.5C 866.44,827.887 846.106,840.887 825.5,853.5C 824.67,848.193 824.003,842.859 823.5,837.5C 824.29,838.609 824.79,839.942 825,841.5C 843.614,830.03 861.781,818.03 879.5,805.5 Z"/></g>
<g><path style="opacity:1" fill="#fcdd8c" d="M 886.5,814.5 C 889.784,816.117 892.451,818.45 894.5,821.5C 872.335,835.75 850.002,849.75 827.5,863.5C 826.706,860.198 826.04,856.865 825.5,853.5C 846.106,840.887 866.44,827.887 886.5,814.5 Z"/></g>
<g><path style="opacity:1" fill="#fce2a0" d="M 894.5,821.5 C 896.853,822.34 898.853,823.674 900.5,825.5C 877.004,841.082 853.337,856.416 829.5,871.5C 829.142,868.733 828.475,866.067 827.5,863.5C 850.002,849.75 872.335,835.75 894.5,821.5 Z"/></g>
<g><path style="opacity:1" fill="#edcb71" d="M 1041.5,815.5 C 1038.01,819.137 1034.01,822.304 1029.5,825C 974.28,860.771 918.947,896.271 863.5,931.5C 861.5,930.167 859.833,928.5 858.5,926.5C 858.414,925.504 858.748,924.671 859.5,924C 901.663,896.417 943.997,869.084 986.5,842C 991.998,838.611 996.998,834.777 1001.5,830.5C 1015.26,826.404 1028.59,821.404 1041.5,815.5 Z"/></g>
<g><path style="opacity:1" fill="#fbe9b8" d="M 900.5,825.5 C 903.622,826.561 906.622,827.895 909.5,829.5C 906.018,833.129 902.018,836.296 897.5,839C 875.805,852.844 854.138,866.677 832.5,880.5C 831.632,877.551 830.632,874.551 829.5,871.5C 853.337,856.416 877.004,841.082 900.5,825.5 Z"/></g>
<g><path style="opacity:1" fill="#fbedc8" d="M 909.5,829.5 C 911.412,830.799 913.412,831.799 915.5,832.5C 888.793,850.526 861.793,868.193 834.5,885.5C 833.833,883.833 833.167,882.167 832.5,880.5C 854.138,866.677 875.805,852.844 897.5,839C 902.018,836.296 906.018,833.129 909.5,829.5 Z"/></g>
<g><path style="opacity:1" fill="#faf2dc" d="M 915.5,832.5 C 922.159,834.602 928.826,836.269 935.5,837.5C 932.411,838.739 929.411,840.239 926.5,842C 900.971,858.928 875.304,875.595 849.5,892C 846.31,894.364 843.31,896.864 840.5,899.5C 837.542,895.309 835.542,890.642 834.5,885.5C 861.793,868.193 888.793,850.526 915.5,832.5 Z"/></g>
<g><path style="opacity:1" fill="#f0d287" d="M 1001.5,830.5 C 996.998,834.777 991.998,838.611 986.5,842C 943.997,869.084 901.663,896.417 859.5,924C 858.748,924.671 858.414,925.504 858.5,926.5C 856.367,924.909 854.701,922.909 853.5,920.5C 856.982,916.871 860.982,913.704 865.5,911C 904.402,886.058 943.069,860.892 981.5,835.5C 988.27,834.26 994.937,832.594 1001.5,830.5 Z"/></g>
<g><path style="opacity:1" fill="#f7e9c4" d="M 935.5,837.5 C 939.566,837.307 943.566,837.64 947.5,838.5C 913.167,861.167 878.833,883.833 844.5,906.5C 842.412,904.664 841.079,902.331 840.5,899.5C 843.31,896.864 846.31,894.364 849.5,892C 875.304,875.595 900.971,858.928 926.5,842C 929.411,840.239 932.411,838.739 935.5,837.5 Z"/></g>
<g><path style="opacity:1" fill="#f2da9a" d="M 981.5,835.5 C 943.069,860.892 904.402,886.058 865.5,911C 860.982,913.704 856.982,916.871 853.5,920.5C 851.478,918.469 849.811,916.135 848.5,913.5C 887.126,888.86 925.459,863.86 963.5,838.5C 969.428,837.129 975.428,836.129 981.5,835.5 Z"/></g>
<g><path style="opacity:1" fill="#f5e1ac" d="M 947.5,838.5 C 952.833,838.5 958.167,838.5 963.5,838.5C 925.459,863.86 887.126,888.86 848.5,913.5C 846.412,911.664 845.079,909.331 844.5,906.5C 878.833,883.833 913.167,861.167 947.5,838.5 Z"/></g>
<g><path style="opacity:0.956" fill="#c5d942" d="M 4518.5,1158.5 C 4518.5,1110.17 4518.5,1061.83 4518.5,1013.5C 4530.14,995.154 4544.47,978.987 4561.5,965C 4560.83,964.333 4560.17,964.333 4559.5,965C 4545.7,976.299 4532.37,988.132 4519.5,1000.5C 4518.51,993.352 4518.18,986.019 4518.5,978.5C 4536.1,970.703 4552.43,960.869 4567.5,949C 4571.8,946.655 4574.47,947.821 4575.5,952.5C 4574.76,957.305 4572.93,961.638 4570,965.5C 4557.2,976.948 4546.7,990.115 4538.5,1005C 4541.97,1016.7 4539.8,1027.2 4532,1036.5C 4532.2,1042.15 4532.2,1047.82 4532,1053.5C 4530.67,1058.17 4529.33,1062.83 4528,1067.5C 4527.8,1077.54 4527.13,1087.54 4526,1097.5C 4524.54,1100.75 4523.37,1104.08 4522.5,1107.5C 4523.09,1110.68 4523.75,1113.85 4524.5,1117C 4521.05,1129.23 4519.55,1141.73 4520,1154.5C 4519.79,1156.06 4519.29,1157.39 4518.5,1158.5 Z"/></g>
<g><path style="opacity:0.993" fill="#b4d144" d="M 4518.5,978.5 C 4518.18,986.019 4518.51,993.352 4519.5,1000.5C 4508.39,1011.94 4498.06,1023.94 4488.5,1036.5C 4487.5,1021.01 4487.17,1005.34 4487.5,989.5C 4497.07,983.852 4507.41,980.185 4518.5,978.5 Z"/></g>
<g><path style="opacity:0.994" fill="#a6ca45" d="M 4487.5,989.5 C 4487.17,1005.34 4487.5,1021.01 4488.5,1036.5C 4482.92,1044.66 4477.58,1053 4472.5,1061.5C 4471.17,1064.17 4469.83,1066.83 4468.5,1069.5C 4467.5,1046.01 4467.17,1022.34 4467.5,998.5C 4474.12,995.51 4480.79,992.51 4487.5,989.5 Z"/></g>
<g><path style="opacity:0.994" fill="#95c246" d="M 4467.5,998.5 C 4467.17,1022.34 4467.5,1046.01 4468.5,1069.5C 4464.68,1076.47 4460.85,1083.47 4457,1090.5C 4455.74,1075.49 4455.57,1060.49 4456.5,1045.5C 4456.81,1042.29 4455.64,1041.29 4453,1042.5C 4451.87,1045.38 4451.21,1048.38 4451,1051.5C 4450.83,1057.83 4450.67,1064.17 4450.5,1070.5C 4450.28,1079.09 4450.95,1087.59 4452.5,1096C 4448.14,1105.53 4443.14,1114.69 4437.5,1123.5C 4436.5,1090.34 4436.17,1057 4436.5,1023.5C 4439.87,1018.3 4444.54,1014.8 4450.5,1013C 4456.68,1008.6 4462.35,1003.77 4467.5,998.5 Z"/></g>
<g><path style="opacity:0.998" fill="#86bd47" d="M 4436.5,1023.5 C 4436.17,1057 4436.5,1090.34 4437.5,1123.5C 4431.01,1133.81 4424.51,1144.14 4418,1154.5C 4414.21,1148.58 4411.21,1142.25 4409,1135.5C 4408.5,1129 4408,1122.5 4407.5,1116C 4408.77,1102.16 4408.77,1088.33 4407.5,1074.5C 4407.5,1063.17 4407.5,1051.83 4407.5,1040.5C 4409.02,1040.49 4410.18,1039.82 4411,1038.5C 4412.64,1035.38 4414.14,1032.21 4415.5,1029C 4422.46,1026.95 4429.46,1025.12 4436.5,1023.5 Z"/></g>
<g><path style="opacity:1" fill="#39a348" d="M 4518.5,1013.5 C 4501.61,1037.25 4487.44,1062.58 4476,1089.5C 4487.07,1083.27 4498.91,1079.27 4511.5,1077.5C 4511.92,1080.32 4510.92,1082.49 4508.5,1084C 4505.11,1086.18 4501.45,1087.68 4497.5,1088.5C 4488.75,1090.63 4480.75,1094.3 4473.5,1099.5C 4473.83,1086.66 4473.5,1073.99 4472.5,1061.5C 4477.58,1053 4482.92,1044.66 4488.5,1036.5C 4498.06,1023.94 4508.39,1011.94 4519.5,1000.5C 4532.37,988.132 4545.7,976.299 4559.5,965C 4560.17,964.333 4560.83,964.333 4561.5,965C 4544.47,978.987 4530.14,995.154 4518.5,1013.5 Z"/></g>
<g><path style="opacity:0.997" fill="#74b648" d="M 4407.5,1040.5 C 4407.5,1051.83 4407.5,1063.17 4407.5,1074.5C 4405.09,1067.58 4403.59,1067.92 4403,1075.5C 4402.65,1090.84 4402.15,1106.17 4401.5,1121.5C 4402.18,1137.05 4404.84,1152.22 4409.5,1167C 4408.61,1168.61 4407.61,1170.11 4406.5,1171.5C 4401.76,1178.64 4396.76,1185.64 4391.5,1192.5C 4390.5,1142.67 4390.17,1092.67 4390.5,1042.5C 4395.99,1040.79 4401.66,1040.12 4407.5,1040.5 Z"/></g>
<g><path style="opacity:0.997" fill="#66b248" d="M 4390.5,1042.5 C 4390.17,1092.67 4390.5,1142.67 4391.5,1192.5C 4386.08,1200.34 4380.41,1208.01 4374.5,1215.5C 4372.69,1217.76 4370.85,1220.1 4369,1222.5C 4367.36,1211.5 4365.86,1200.5 4364.5,1189.5C 4364.5,1149.17 4364.5,1108.83 4364.5,1068.5C 4365.72,1067.97 4366.89,1067.31 4368,1066.5C 4372.1,1060.64 4375.93,1054.64 4379.5,1048.5C 4383.03,1046.23 4386.7,1044.23 4390.5,1042.5 Z"/></g>
<g><path style="opacity:0.997" fill="#50ab48" d="M 4364.5,1068.5 C 4364.5,1108.83 4364.5,1149.17 4364.5,1189.5C 4354.55,1167.02 4351.55,1143.52 4355.5,1119C 4355.33,1116.98 4354.66,1115.15 4353.5,1113.5C 4352.91,1113.71 4352.41,1114.04 4352,1114.5C 4346.56,1134.9 4345.23,1155.56 4348,1176.5C 4351.31,1189.86 4353.81,1203.36 4355.5,1217C 4354.78,1227.48 4352.62,1237.65 4349,1247.5C 4346.96,1249.37 4345.13,1251.37 4343.5,1253.5C 4342.5,1197.67 4342.17,1141.67 4342.5,1085.5C 4348.16,1082.36 4353.16,1078.19 4357.5,1073C 4359.72,1071.28 4362.05,1069.78 4364.5,1068.5 Z"/></g>
<g><path style="opacity:0.989" fill="#b9d344" d="M 4518.5,1013.5 C 4518.5,1061.83 4518.5,1110.17 4518.5,1158.5C 4516.95,1161.56 4514.78,1164.23 4512,1166.5C 4508.6,1175.37 4505.6,1184.37 4503,1193.5C 4501.88,1196.76 4500.05,1199.42 4497.5,1201.5C 4497.5,1181.83 4497.5,1162.17 4497.5,1142.5C 4499.09,1139.57 4501.09,1136.9 4503.5,1134.5C 4503.17,1134.17 4502.83,1133.83 4502.5,1133.5C 4501.15,1134.52 4499.81,1135.52 4498.5,1136.5C 4497.5,1120.68 4497.17,1104.68 4497.5,1088.5C 4501.45,1087.68 4505.11,1086.18 4508.5,1084C 4510.92,1082.49 4511.92,1080.32 4511.5,1077.5C 4498.91,1079.27 4487.07,1083.27 4476,1089.5C 4487.44,1062.58 4501.61,1037.25 4518.5,1013.5 Z"/></g>
<g><path style="opacity:0.994" fill="#38a748" d="M 4342.5,1085.5 C 4342.17,1141.67 4342.5,1197.67 4343.5,1253.5C 4339.4,1258.69 4335.07,1263.69 4330.5,1268.5C 4323.19,1276.15 4315.85,1283.81 4308.5,1291.5C 4302.56,1260.43 4298.9,1229.09 4297.5,1197.5C 4298.24,1183.84 4298.41,1170.17 4298,1156.5C 4288.42,1173.95 4285.09,1192.62 4288,1212.5C 4291.31,1232.74 4293.81,1253.08 4295.5,1273.5C 4295.55,1287.61 4292.55,1300.94 4286.5,1313.5C 4262.99,1332 4240.66,1352 4219.5,1373.5C 4220.08,1370.33 4220.75,1367.16 4221.5,1364C 4218.51,1340.6 4216.68,1317.1 4216,1293.5C 4213.63,1282.25 4211.79,1270.92 4210.5,1259.5C 4211.07,1249.04 4214.9,1240.04 4222,1232.5C 4222.86,1230.91 4223.53,1229.25 4224,1227.5C 4224.33,1220.17 4224.67,1212.83 4225,1205.5C 4231.07,1199 4236.4,1192 4241,1184.5C 4243.2,1179.58 4245.2,1174.58 4247,1169.5C 4248,1168.83 4249,1168.17 4250,1167.5C 4252.54,1168.88 4254.54,1168.21 4256,1165.5C 4258.58,1157.92 4260.92,1150.26 4263,1142.5C 4264.95,1140.11 4267.45,1138.61 4270.5,1138C 4275.58,1137.83 4280.58,1137.16 4285.5,1136C 4288.73,1130.1 4292.73,1124.77 4297.5,1120C 4301.79,1118.58 4305.63,1116.41 4309,1113.5C 4311.79,1108.47 4313.79,1103.13 4315,1097.5C 4317.81,1093.34 4321.64,1090.51 4326.5,1089C 4331.83,1087.77 4337.17,1086.6 4342.5,1085.5 Z"/></g>
<g><path style="opacity:1" fill="#a9cc45" d="M 4497.5,1088.5 C 4497.17,1104.68 4497.5,1120.68 4498.5,1136.5C 4486.54,1145.14 4473.21,1151.14 4458.5,1154.5C 4458.5,1143.83 4458.5,1133.17 4458.5,1122.5C 4461.31,1116.89 4464.14,1111.22 4467,1105.5C 4469.34,1103.6 4471.5,1101.6 4473.5,1099.5C 4480.75,1094.3 4488.75,1090.63 4497.5,1088.5 Z"/></g>
<g><path style="opacity:1" fill="#1d8842" d="M 4364.5,1189.5 C 4365.86,1200.5 4367.36,1211.5 4369,1222.5C 4370.85,1220.1 4372.69,1217.76 4374.5,1215.5C 4375.49,1226.65 4375.83,1237.99 4375.5,1249.5C 4367.94,1250.44 4362.28,1254.11 4358.5,1260.5C 4349.5,1270.5 4340.5,1280.5 4331.5,1290.5C 4331.82,1282.98 4331.49,1275.65 4330.5,1268.5C 4335.07,1263.69 4339.4,1258.69 4343.5,1253.5C 4345.13,1251.37 4346.96,1249.37 4349,1247.5C 4352.62,1237.65 4354.78,1227.48 4355.5,1217C 4353.81,1203.36 4351.31,1189.86 4348,1176.5C 4345.23,1155.56 4346.56,1134.9 4352,1114.5C 4352.41,1114.04 4352.91,1113.71 4353.5,1113.5C 4354.66,1115.15 4355.33,1116.98 4355.5,1119C 4351.55,1143.52 4354.55,1167.02 4364.5,1189.5 Z"/></g>
<g><path style="opacity:1" fill="#96c346" d="M 4458.5,1122.5 C 4458.5,1133.17 4458.5,1143.83 4458.5,1154.5C 4450.28,1157.87 4442.95,1162.7 4436.5,1169C 4434.23,1170.56 4431.9,1170.72 4429.5,1169.5C 4439.94,1154.27 4449.61,1138.6 4458.5,1122.5 Z"/></g>
<g><path style="opacity:1" fill="#2e9846" d="M 4468.5,1069.5 C 4469.83,1066.83 4471.17,1064.17 4472.5,1061.5C 4473.5,1073.99 4473.83,1086.66 4473.5,1099.5C 4471.5,1101.6 4469.34,1103.6 4467,1105.5C 4464.14,1111.22 4461.31,1116.89 4458.5,1122.5C 4449.61,1138.6 4439.94,1154.27 4429.5,1169.5C 4431.9,1170.72 4434.23,1170.56 4436.5,1169C 4442.95,1162.7 4450.28,1157.87 4458.5,1154.5C 4473.21,1151.14 4486.54,1145.14 4498.5,1136.5C 4499.81,1135.52 4501.15,1134.52 4502.5,1133.5C 4502.83,1133.83 4503.17,1134.17 4503.5,1134.5C 4501.09,1136.9 4499.09,1139.57 4497.5,1142.5C 4492.7,1146.8 4488.04,1151.3 4483.5,1156C 4481.14,1157.18 4478.81,1158.35 4476.5,1159.5C 4466.18,1164.32 4456.18,1169.66 4446.5,1175.5C 4437.39,1179.44 4428.06,1182.78 4418.5,1185.5C 4414.83,1190.17 4411.17,1194.83 4407.5,1199.5C 4407.83,1189.99 4407.49,1180.65 4406.5,1171.5C 4407.61,1170.11 4408.61,1168.61 4409.5,1167C 4404.84,1152.22 4402.18,1137.05 4401.5,1121.5C 4402.15,1106.17 4402.65,1090.84 4403,1075.5C 4403.59,1067.92 4405.09,1067.58 4407.5,1074.5C 4408.77,1088.33 4408.77,1102.16 4407.5,1116C 4408,1122.5 4408.5,1129 4409,1135.5C 4411.21,1142.25 4414.21,1148.58 4418,1154.5C 4424.51,1144.14 4431.01,1133.81 4437.5,1123.5C 4443.14,1114.69 4448.14,1105.53 4452.5,1096C 4450.95,1087.59 4450.28,1079.09 4450.5,1070.5C 4450.67,1064.17 4450.83,1057.83 4451,1051.5C 4451.21,1048.38 4451.87,1045.38 4453,1042.5C 4455.64,1041.29 4456.81,1042.29 4456.5,1045.5C 4455.57,1060.49 4455.74,1075.49 4457,1090.5C 4460.85,1083.47 4464.68,1076.47 4468.5,1069.5 Z"/></g>
<g><path style="opacity:0.991" fill="#accd45" d="M 4497.5,1142.5 C 4497.5,1162.17 4497.5,1181.83 4497.5,1201.5C 4495.53,1204.22 4494.03,1207.22 4493,1210.5C 4491.33,1218.84 4489.67,1227.17 4488,1235.5C 4485.03,1240.96 4481.53,1245.96 4477.5,1250.5C 4476.5,1237.01 4476.17,1223.34 4476.5,1209.5C 4479.53,1207.47 4481.86,1204.8 4483.5,1201.5C 4481.19,1200.42 4478.86,1200.42 4476.5,1201.5C 4476.5,1187.5 4476.5,1173.5 4476.5,1159.5C 4478.81,1158.35 4481.14,1157.18 4483.5,1156C 4488.04,1151.3 4492.7,1146.8 4497.5,1142.5 Z"/></g>
<g><path style="opacity:1" fill="#9cc646" d="M 4476.5,1159.5 C 4476.5,1173.5 4476.5,1187.5 4476.5,1201.5C 4467.65,1208.1 4457.98,1213.43 4447.5,1217.5C 4446.5,1203.68 4446.17,1189.68 4446.5,1175.5C 4456.18,1169.66 4466.18,1164.32 4476.5,1159.5 Z"/></g>
<g><path style="opacity:1" fill="#8dbf47" d="M 4446.5,1175.5 C 4446.17,1189.68 4446.5,1203.68 4447.5,1217.5C 4438.59,1221.8 4429.26,1225.14 4419.5,1227.5C 4418.5,1213.68 4418.17,1199.68 4418.5,1185.5C 4428.06,1182.78 4437.39,1179.44 4446.5,1175.5 Z"/></g>
<g><path style="opacity:1" fill="#279144" d="M 4406.5,1171.5 C 4407.49,1180.65 4407.83,1189.99 4407.5,1199.5C 4399.75,1209.98 4391.75,1220.32 4383.5,1230.5C 4385,1230.83 4386.5,1231.17 4388,1231.5C 4398.63,1230.07 4409.13,1228.74 4419.5,1227.5C 4429.26,1225.14 4438.59,1221.8 4447.5,1217.5C 4457.98,1213.43 4467.65,1208.1 4476.5,1201.5C 4478.86,1200.42 4481.19,1200.42 4483.5,1201.5C 4481.86,1204.8 4479.53,1207.47 4476.5,1209.5C 4461.74,1221.05 4445.41,1229.71 4427.5,1235.5C 4418.42,1239.05 4409.08,1241.72 4399.5,1243.5C 4393.59,1245.22 4387.59,1246.55 4381.5,1247.5C 4379.42,1247.97 4377.42,1248.64 4375.5,1249.5C 4375.83,1237.99 4375.49,1226.65 4374.5,1215.5C 4380.41,1208.01 4386.08,1200.34 4391.5,1192.5C 4396.76,1185.64 4401.76,1178.64 4406.5,1171.5 Z"/></g>
<g><path style="opacity:1" fill="#7bb948" d="M 4418.5,1185.5 C 4418.17,1199.68 4418.5,1213.68 4419.5,1227.5C 4409.13,1228.74 4398.63,1230.07 4388,1231.5C 4386.5,1231.17 4385,1230.83 4383.5,1230.5C 4391.75,1220.32 4399.75,1209.98 4407.5,1199.5C 4411.17,1194.83 4414.83,1190.17 4418.5,1185.5 Z"/></g>
<g><path style="opacity:0.995" fill="#96c346" d="M 4476.5,1209.5 C 4476.17,1223.34 4476.5,1237.01 4477.5,1250.5C 4475.24,1255.43 4473.08,1260.43 4471,1265.5C 4467.29,1269.38 4463.46,1273.04 4459.5,1276.5C 4462.82,1281.9 4463.32,1287.57 4461,1293.5C 4455.93,1295.42 4451.26,1298.08 4447,1301.5C 4444.21,1307.65 4441.88,1313.98 4440,1320.5C 4436.39,1324.38 4432.23,1327.38 4427.5,1329.5C 4427.5,1316.83 4427.5,1304.17 4427.5,1291.5C 4430.59,1288.78 4433.92,1286.28 4437.5,1284C 4441.06,1280.94 4444.06,1277.44 4446.5,1273.5C 4446.33,1273.17 4446.17,1272.83 4446,1272.5C 4440.39,1277.71 4434.22,1282.05 4427.5,1285.5C 4427.5,1268.83 4427.5,1252.17 4427.5,1235.5C 4445.41,1229.71 4461.74,1221.05 4476.5,1209.5 Z"/></g>
<g><path style="opacity:1" fill="#7fba47" d="M 4427.5,1235.5 C 4427.5,1252.17 4427.5,1268.83 4427.5,1285.5C 4418.48,1290.18 4408.81,1293.18 4398.5,1294.5C 4398.18,1277.42 4398.51,1260.42 4399.5,1243.5C 4409.08,1241.72 4418.42,1239.05 4427.5,1235.5 Z"/></g>
<g><path style="opacity:1" fill="#6fb548" d="M 4399.5,1243.5 C 4398.51,1260.42 4398.18,1277.42 4398.5,1294.5C 4393.22,1295.76 4387.89,1296.76 4382.5,1297.5C 4381.5,1281.01 4381.17,1264.34 4381.5,1247.5C 4387.59,1246.55 4393.59,1245.22 4399.5,1243.5 Z"/></g>
<g><path style="opacity:1" fill="#148140" d="M 4330.5,1268.5 C 4331.49,1275.65 4331.82,1282.98 4331.5,1290.5C 4327.06,1295.21 4322.72,1300.04 4318.5,1305C 4330.48,1306.35 4342.15,1305.02 4353.5,1301C 4356.48,1300.5 4359.48,1300.34 4362.5,1300.5C 4363.77,1303.06 4363.77,1305.73 4362.5,1308.5C 4358.38,1308.54 4354.38,1309.21 4350.5,1310.5C 4327.2,1313.6 4305.87,1321.6 4286.5,1334.5C 4286.5,1327.5 4286.5,1320.5 4286.5,1313.5C 4292.55,1300.94 4295.55,1287.61 4295.5,1273.5C 4293.81,1253.08 4291.31,1232.74 4288,1212.5C 4285.09,1192.62 4288.42,1173.95 4298,1156.5C 4298.41,1170.17 4298.24,1183.84 4297.5,1197.5C 4298.9,1229.09 4302.56,1260.43 4308.5,1291.5C 4315.85,1283.81 4323.19,1276.15 4330.5,1268.5 Z"/></g>
<g><path style="opacity:1" fill="#5fb048" d="M 4381.5,1247.5 C 4381.17,1264.34 4381.5,1281.01 4382.5,1297.5C 4376,1298.38 4369.33,1299.05 4362.5,1299.5C 4361.17,1299.5 4359.83,1299.5 4358.5,1299.5C 4358.5,1286.5 4358.5,1273.5 4358.5,1260.5C 4362.28,1254.11 4367.94,1250.44 4375.5,1249.5C 4377.42,1248.64 4379.42,1247.97 4381.5,1247.5 Z"/></g>
<g><path style="opacity:1" fill="#4caa48" d="M 4358.5,1260.5 C 4358.5,1273.5 4358.5,1286.5 4358.5,1299.5C 4359.83,1299.5 4361.17,1299.5 4362.5,1299.5C 4362.5,1299.83 4362.5,1300.17 4362.5,1300.5C 4359.48,1300.34 4356.48,1300.5 4353.5,1301C 4342.15,1305.02 4330.48,1306.35 4318.5,1305C 4322.72,1300.04 4327.06,1295.21 4331.5,1290.5C 4340.5,1280.5 4349.5,1270.5 4358.5,1260.5 Z"/></g>
<g><path style="opacity:0.981" fill="#000000" d="M 3613.5,1276.5 C 3635.58,1275.99 3657.25,1278.65 3678.5,1284.5C 3678.83,1298.85 3678.5,1313.18 3677.5,1327.5C 3652.12,1305.49 3623.46,1299.66 3591.5,1310C 3576.29,1316.58 3570.13,1328.08 3573,1344.5C 3576.31,1353.94 3582.14,1361.44 3590.5,1367C 3615.7,1381.1 3641.36,1394.43 3667.5,1407C 3702.61,1429.95 3709.44,1459.45 3688,1495.5C 3665,1522.74 3635.5,1536.08 3599.5,1535.5C 3582.27,1535.12 3565.27,1532.96 3548.5,1529C 3543.1,1527.76 3537.93,1525.92 3533,1523.5C 3529.29,1507.94 3525.46,1492.44 3521.5,1477C 3522.17,1476.33 3522.83,1476.33 3523.5,1477C 3552.94,1501.93 3586.61,1510.93 3624.5,1504C 3634.89,1500.94 3643.72,1495.44 3651,1487.5C 3660.51,1469.79 3657.67,1454.29 3642.5,1441C 3638.17,1438 3633.83,1435 3629.5,1432C 3603.53,1419.69 3578.2,1406.35 3553.5,1392C 3528.53,1370.29 3522.37,1344.13 3535,1313.5C 3543.25,1300.43 3554.75,1291.27 3569.5,1286C 3583.85,1280.7 3598.52,1277.53 3613.5,1276.5 Z"/></g>
<g><path style="opacity:0.98" fill="#000000" d="M 1666.5,1280.5 C 1667.33,1292.83 1668,1305.33 1668.5,1318C 1668.17,1320.5 1667.83,1323 1667.5,1325.5C 1659.64,1317.26 1649.98,1312.76 1638.5,1312C 1620.77,1310.13 1603.1,1310.63 1585.5,1313.5C 1585.5,1336.17 1585.5,1358.83 1585.5,1381.5C 1604.17,1381.67 1622.84,1381.5 1641.5,1381C 1642.87,1380.6 1644.21,1380.1 1645.5,1379.5C 1646.49,1393.17 1646.99,1406.84 1647,1420.5C 1643.31,1414.91 1638.14,1411.74 1631.5,1411C 1616.2,1409.64 1600.87,1409.14 1585.5,1409.5C 1585.5,1438.83 1585.5,1468.17 1585.5,1497.5C 1603.31,1499.06 1621.15,1500.4 1639,1501.5C 1662.58,1502.09 1683.24,1494.75 1701,1479.5C 1701.67,1480.83 1701.67,1482.17 1701,1483.5C 1695.65,1498.7 1690.82,1514.04 1686.5,1529.5C 1634.16,1529.83 1581.83,1529.5 1529.5,1528.5C 1539.19,1523.14 1544.36,1514.81 1545,1503.5C 1546.14,1470.86 1546.64,1438.19 1546.5,1405.5C 1546.63,1372.48 1546.13,1339.48 1545,1306.5C 1544.11,1296.21 1538.94,1289.05 1529.5,1285C 1572.49,1283.79 1615.49,1283.12 1658.5,1283C 1661.46,1282.72 1664.12,1281.89 1666.5,1280.5 Z"/></g>
<g><path style="opacity:0.976" fill="#000000" d="M 2172.5,1280.5 C 2173.3,1281.95 2173.8,1283.62 2174,1285.5C 2174.67,1298.83 2174.67,1312.17 2174,1325.5C 2166.13,1317.65 2156.63,1313.15 2145.5,1312C 2127.76,1310.13 2110.1,1310.63 2092.5,1313.5C 2092.5,1336.17 2092.5,1358.83 2092.5,1381.5C 2110.84,1381.67 2129.17,1381.5 2147.5,1381C 2148.87,1380.6 2150.21,1380.1 2151.5,1379.5C 2153.39,1393.11 2153.89,1406.78 2153,1420.5C 2149.62,1415.22 2144.78,1412.05 2138.5,1411C 2123.2,1409.64 2107.87,1409.14 2092.5,1409.5C 2092.5,1438.83 2092.5,1468.17 2092.5,1497.5C 2105.85,1498.46 2119.18,1499.62 2132.5,1501C 2160.3,1504.55 2184.96,1497.55 2206.5,1480C 2207.48,1479.41 2208.15,1479.74 2208.5,1481C 2203.27,1496.87 2197.93,1512.7 2192.5,1528.5C 2140.5,1529.83 2088.5,1529.83 2036.5,1528.5C 2046.58,1522.01 2051.75,1512.67 2052,1500.5C 2052.67,1436.83 2052.67,1373.17 2052,1309.5C 2051.98,1297.93 2046.81,1289.76 2036.5,1285C 2079.49,1283.85 2122.49,1283.18 2165.5,1283C 2168.19,1282.84 2170.52,1282.01 2172.5,1280.5 Z"/></g>
<g><path style="opacity:0.98" fill="#000000" d="M 3476.5,1280.5 C 3478.42,1295.3 3478.92,1310.3 3478,1325.5C 3470.15,1317.66 3460.65,1313.16 3449.5,1312C 3431.43,1310.17 3413.43,1310.67 3395.5,1313.5C 3395.5,1336.17 3395.5,1358.83 3395.5,1381.5C 3414.17,1381.67 3432.84,1381.5 3451.5,1381C 3452.87,1380.6 3454.21,1380.1 3455.5,1379.5C 3457.14,1393.13 3457.64,1406.8 3457,1420.5C 3453.52,1415.36 3448.68,1412.2 3442.5,1411C 3426.87,1409.64 3411.2,1409.14 3395.5,1409.5C 3395.5,1438.83 3395.5,1468.17 3395.5,1497.5C 3409.18,1498.4 3422.85,1499.56 3436.5,1501C 3464.3,1504.55 3488.96,1497.55 3510.5,1480C 3511.33,1479.31 3512,1479.48 3512.5,1480.5C 3506.97,1496.44 3501.63,1512.44 3496.5,1528.5C 3444.17,1529.67 3391.84,1529.83 3339.5,1529C 3350.55,1522.42 3356.05,1512.58 3356,1499.5C 3356.67,1436.83 3356.67,1374.17 3356,1311.5C 3356.18,1299 3350.68,1290.17 3339.5,1285C 3382.49,1283.86 3425.49,1283.19 3468.5,1283C 3471.52,1282.9 3474.19,1282.07 3476.5,1280.5 Z"/></g>
<g><path style="opacity:0.98" fill="#000000" d="M 997.5,1283.5 C 1017.84,1283.33 1038.17,1283.5 1058.5,1284C 1052.67,1286.5 1048.5,1290.67 1046,1296.5C 1043.77,1303.33 1042.43,1310.33 1042,1317.5C 1041.33,1377.5 1041.33,1437.5 1042,1497.5C 1059.26,1499.1 1076.59,1500.43 1094,1501.5C 1118.07,1501.15 1139.4,1493.48 1158,1478.5C 1158.32,1480.55 1157.99,1482.55 1157,1484.5C 1151.19,1499.42 1145.69,1514.42 1140.5,1529.5C 1089.16,1529.83 1037.83,1529.5 986.5,1528.5C 996.874,1521.76 1002.04,1512.09 1002,1499.5C 1002.67,1436.83 1002.67,1374.17 1002,1311.5C 1002.08,1299.48 996.915,1290.65 986.5,1285C 990.356,1284.82 994.023,1284.32 997.5,1283.5 Z"/></g>
<g><path style="opacity:0.982" fill="#000000" d="M 1189.5,1283.5 C 1209.5,1283.33 1229.5,1283.5 1249.5,1284C 1241.1,1288.29 1236.27,1295.12 1235,1304.5C 1233.96,1311.13 1233.29,1317.79 1233,1324.5C 1232.33,1378.83 1232.33,1433.17 1233,1487.5C 1232.63,1498.65 1234.63,1509.31 1239,1519.5C 1241.71,1523.1 1245.21,1525.6 1249.5,1527C 1248.5,1527.33 1247.5,1527.67 1246.5,1528C 1224.82,1528.21 1203.15,1528.71 1181.5,1529.5C 1180.17,1529.17 1178.83,1528.83 1177.5,1528.5C 1187.48,1522.89 1192.65,1514.22 1193,1502.5C 1193.67,1438.17 1193.67,1373.83 1193,1309.5C 1192.98,1297.93 1187.81,1289.76 1177.5,1285C 1181.69,1284.82 1185.69,1284.32 1189.5,1283.5 Z"/></g>
<g><path style="opacity:0.983" fill="#000000" d="M 1289.5,1283.5 C 1321.84,1283.33 1354.17,1283.5 1386.5,1284C 1424.47,1286.24 1455.97,1301.4 1481,1329.5C 1499.89,1355.73 1507.56,1385.07 1504,1417.5C 1496.58,1470.47 1467.42,1505.31 1416.5,1522C 1401.79,1526.17 1386.79,1528.51 1371.5,1529C 1339.16,1529.83 1306.83,1529.67 1274.5,1528.5C 1282.16,1522.19 1286.99,1514.19 1289,1504.5C 1290.14,1471.03 1290.64,1437.53 1290.5,1404C 1290.33,1373.17 1290.17,1342.33 1290,1311.5C 1289.72,1302.98 1286.88,1295.48 1281.5,1289C 1279.33,1287.41 1277,1286.08 1274.5,1285C 1279.68,1284.83 1284.68,1284.33 1289.5,1283.5 Z M 1358.5,1310.5 C 1424.8,1309.81 1459.14,1342.47 1461.5,1408.5C 1460.87,1452.3 1439.87,1481.13 1398.5,1495C 1376.1,1501.89 1353.43,1503.06 1330.5,1498.5C 1329.5,1437.17 1329.17,1375.84 1329.5,1314.5C 1339.28,1312.96 1348.94,1311.63 1358.5,1310.5 Z"/></g>
<g><path style="opacity:0.981" fill="#000000" d="M 1736.5,1283.5 C 1769.2,1283.05 1801.87,1283.55 1834.5,1285C 1876.06,1293.55 1893.56,1318.71 1887,1360.5C 1880.95,1377.55 1870.12,1390.72 1854.5,1400C 1846.85,1403.81 1839.19,1407.31 1831.5,1410.5C 1849.67,1433.5 1867.83,1456.5 1886,1479.5C 1903.45,1498.63 1922.95,1515.13 1944.5,1529C 1928.14,1529.85 1911.8,1529.52 1895.5,1528C 1887.04,1526.41 1879.38,1523.07 1872.5,1518C 1839.84,1481.85 1810.84,1443.02 1785.5,1401.5C 1802.8,1398.57 1818.8,1392.4 1833.5,1383C 1849.17,1369.17 1853.67,1352.34 1847,1332.5C 1839.34,1318.53 1827.5,1310.37 1811.5,1308C 1800.14,1306.9 1788.97,1307.74 1778,1310.5C 1777.33,1372.5 1777.33,1434.5 1778,1496.5C 1778.27,1504.16 1779.93,1511.5 1783,1518.5C 1785.99,1522.49 1789.82,1525.32 1794.5,1527C 1771.88,1528.18 1749.22,1529.01 1726.5,1529.5C 1725.17,1529.17 1723.83,1528.83 1722.5,1528.5C 1726.73,1526.31 1730.23,1523.31 1733,1519.5C 1735.61,1513.08 1737.27,1506.41 1738,1499.5C 1738.67,1436.83 1738.67,1374.17 1738,1311.5C 1737.52,1303.04 1734.68,1295.54 1729.5,1289C 1727.33,1287.41 1725,1286.08 1722.5,1285C 1727.35,1284.83 1732.02,1284.33 1736.5,1283.5 Z"/></g>
<g><path style="opacity:0.977" fill="#000000" d="M 2240.5,1283.5 C 2254.83,1283.5 2269.17,1283.5 2283.5,1283.5C 2283.49,1285.31 2283.99,1286.98 2285,1288.5C 2332.67,1349.17 2380.33,1409.83 2428,1470.5C 2428.67,1418.5 2428.67,1366.5 2428,1314.5C 2427.76,1300.82 2421.59,1290.99 2409.5,1285C 2431.48,1283.55 2453.48,1283.21 2475.5,1284C 2462.62,1292.25 2456.46,1304.08 2457,1319.5C 2456.67,1393.5 2456.33,1467.5 2456,1541.5C 2441.06,1536.53 2428.06,1528.53 2417,1517.5C 2369.29,1458.12 2321.95,1398.45 2275,1338.5C 2274.33,1391.5 2274.33,1444.5 2275,1497.5C 2275.21,1511.1 2281.38,1520.93 2293.5,1527C 2272.55,1528.18 2251.55,1529.01 2230.5,1529.5C 2229.17,1529.17 2227.83,1528.83 2226.5,1528.5C 2239.75,1520.67 2246.25,1509 2246,1493.5C 2246.67,1434.83 2246.67,1376.17 2246,1317.5C 2246.15,1302.97 2239.99,1292.13 2227.5,1285C 2232.02,1284.82 2236.35,1284.32 2240.5,1283.5 Z"/></g>
<g><path style="opacity:0.983" fill="#000000" d="M 2611.5,1283.5 C 2647.5,1283.33 2683.5,1283.5 2719.5,1284C 2744.72,1285.86 2764.89,1296.69 2780,1316.5C 2791.74,1339.55 2791.08,1362.22 2778,1384.5C 2755.15,1411.66 2725.99,1422.82 2690.5,1418C 2685.83,1417.11 2681.5,1415.45 2677.5,1413C 2701.52,1412.46 2721.02,1402.96 2736,1384.5C 2746.89,1366.34 2747.22,1348 2737,1329.5C 2724.76,1316.47 2709.59,1310.13 2691.5,1310.5C 2683.22,1311.02 2675.06,1312.02 2667,1313.5C 2666.33,1373.83 2666.33,1434.17 2667,1494.5C 2666.32,1509.31 2672.48,1520.14 2685.5,1527C 2684.5,1527.33 2683.5,1527.67 2682.5,1528C 2658.48,1528.43 2634.48,1528.76 2610.5,1529C 2619.8,1523.58 2624.97,1515.41 2626,1504.5C 2627.14,1471.53 2627.64,1438.53 2627.5,1405.5C 2627.64,1372.47 2627.14,1339.47 2626,1306.5C 2625.41,1302.72 2624.41,1299.06 2623,1295.5C 2619.59,1290.92 2615.75,1286.92 2611.5,1283.5 Z"/></g>
<g><path style="opacity:0.98" fill="#000000" d="M 2776.5,1284.5 C 2791.66,1283.34 2806.99,1283.17 2822.5,1284C 2827.17,1284.89 2831.5,1286.55 2835.5,1289C 2856.46,1322.42 2877.29,1355.92 2898,1389.5C 2916.33,1363.52 2933.66,1336.85 2950,1309.5C 2952.9,1297.79 2948.73,1289.63 2937.5,1285C 2959.82,1283.54 2982.15,1283.21 3004.5,1284C 2974.37,1329.76 2943.87,1375.26 2913,1420.5C 2912.06,1448.2 2912.4,1475.86 2914,1503.5C 2916.72,1513.56 2922.55,1521.4 2931.5,1527C 2906.88,1528.4 2882.21,1529.06 2857.5,1529C 2866.03,1523.11 2870.87,1514.94 2872,1504.5C 2873.6,1476.86 2873.94,1449.2 2873,1421.5C 2849,1382.83 2825,1344.17 2801,1305.5C 2794.48,1296.48 2786.32,1289.48 2776.5,1284.5 Z"/></g>
<g><path style="opacity:0.982" fill="#000000" d="M 3036.5,1283.5 C 3053.5,1283.5 3070.5,1283.5 3087.5,1283.5C 3087.34,1285.86 3087.5,1288.19 3088,1290.5C 3112.67,1347.87 3137.34,1405.2 3162,1462.5C 3182,1411.83 3202,1361.17 3222,1310.5C 3225.59,1301.82 3227.75,1292.82 3228.5,1283.5C 3250.5,1283.33 3272.5,1283.5 3294.5,1284C 3291.9,1284.88 3289.73,1286.38 3288,1288.5C 3284.97,1293.6 3283.13,1299.1 3282.5,1305C 3291.46,1371.86 3300.63,1438.69 3310,1505.5C 3312.23,1515.24 3317.73,1522.57 3326.5,1527.5C 3304,1528.23 3281.5,1528.89 3259,1529.5C 3257.17,1529.17 3255.33,1528.83 3253.5,1528.5C 3264.28,1522.89 3269.28,1513.89 3268.5,1501.5C 3262.07,1442.42 3255.07,1383.42 3247.5,1324.5C 3219.94,1394.61 3192.11,1464.61 3164,1534.5C 3152.43,1525.93 3143.43,1515.27 3137,1502.5C 3111.92,1442.69 3086.59,1383.02 3061,1323.5C 3052.84,1383.46 3045.01,1443.46 3037.5,1503.5C 3037.55,1514.77 3042.55,1522.94 3052.5,1528C 3033.32,1528.22 3014.15,1528.72 2995,1529.5C 2993.5,1529.17 2992,1528.83 2990.5,1528.5C 3000.32,1518.52 3006.15,1506.52 3008,1492.5C 3016.43,1433.18 3024.76,1373.85 3033,1314.5C 3036.12,1301.39 3031.95,1291.56 3020.5,1285C 3026.02,1284.83 3031.35,1284.33 3036.5,1283.5 Z"/></g>
<g><path style="opacity:1" fill="#279044" d="M 4427.5,1291.5 C 4415.78,1297.51 4403.45,1301.85 4390.5,1304.5C 4384.38,1305.01 4378.38,1306.01 4372.5,1307.5C 4369.14,1307.62 4365.81,1307.95 4362.5,1308.5C 4363.77,1305.73 4363.77,1303.06 4362.5,1300.5C 4362.5,1300.17 4362.5,1299.83 4362.5,1299.5C 4369.33,1299.05 4376,1298.38 4382.5,1297.5C 4387.89,1296.76 4393.22,1295.76 4398.5,1294.5C 4408.81,1293.18 4418.48,1290.18 4427.5,1285.5C 4434.22,1282.05 4440.39,1277.71 4446,1272.5C 4446.17,1272.83 4446.33,1273.17 4446.5,1273.5C 4444.06,1277.44 4441.06,1280.94 4437.5,1284C 4433.92,1286.28 4430.59,1288.78 4427.5,1291.5 Z"/></g>
<g><path style="opacity:0.993" fill="#79b848" d="M 4427.5,1291.5 C 4427.5,1304.17 4427.5,1316.83 4427.5,1329.5C 4416.09,1337.03 4403.76,1342.7 4390.5,1346.5C 4390.5,1332.5 4390.5,1318.5 4390.5,1304.5C 4403.45,1301.85 4415.78,1297.51 4427.5,1291.5 Z"/></g>
<g><path style="opacity:0.989" fill="#68b248" d="M 4390.5,1304.5 C 4390.5,1318.5 4390.5,1332.5 4390.5,1346.5C 4381.21,1348.79 4375.21,1354.45 4372.5,1363.5C 4372.5,1344.83 4372.5,1326.17 4372.5,1307.5C 4378.38,1306.01 4384.38,1305.01 4390.5,1304.5 Z"/></g>
<g><path style="opacity:0.991" fill="#58ae48" d="M 4372.5,1307.5 C 4372.5,1326.17 4372.5,1344.83 4372.5,1363.5C 4371.65,1364.97 4370.32,1365.8 4368.5,1366C 4362.53,1366.96 4356.53,1367.46 4350.5,1367.5C 4350.5,1348.5 4350.5,1329.5 4350.5,1310.5C 4354.38,1309.21 4358.38,1308.54 4362.5,1308.5C 4365.81,1307.95 4369.14,1307.62 4372.5,1307.5 Z"/></g>
<g><path style="opacity:0.993" fill="#3aa748" d="M 4350.5,1310.5 C 4350.5,1329.5 4350.5,1348.5 4350.5,1367.5C 4348.14,1367.34 4345.81,1367.5 4343.5,1368C 4338.79,1372.38 4333.79,1376.38 4328.5,1380C 4325.64,1381.4 4322.64,1382.4 4319.5,1383C 4293.75,1385.33 4268.09,1384.49 4242.5,1380.5C 4240.83,1380.67 4239.17,1380.83 4237.5,1381C 4232.6,1384.75 4227.6,1388.25 4222.5,1391.5C 4243.24,1371.76 4264.57,1352.76 4286.5,1334.5C 4305.87,1321.6 4327.2,1313.6 4350.5,1310.5 Z"/></g>
<g><path style="opacity:1" fill="#08773d" d="M 4286.5,1313.5 C 4286.5,1320.5 4286.5,1327.5 4286.5,1334.5C 4264.57,1352.76 4243.24,1371.76 4222.5,1391.5C 4218.47,1395.86 4214.47,1400.19 4210.5,1404.5C 4210.5,1397.17 4210.5,1389.83 4210.5,1382.5C 4213.17,1379.17 4216.17,1376.17 4219.5,1373.5C 4240.66,1352 4262.99,1332 4286.5,1313.5 Z"/></g>
<g><path style="opacity:0.91" fill="#35a448" d="M 4054.5,1430.5 C 4035.62,1420.15 4015.95,1411.65 3995.5,1405C 3989.06,1404.09 3982.72,1404.42 3976.5,1406C 4026.72,1431.87 4070.22,1466.37 4107,1509.5C 4119.63,1525.75 4129.96,1543.42 4138,1562.5C 4140.05,1566.05 4142.88,1568.71 4146.5,1570.5C 4144.98,1574.04 4142.48,1575.04 4139,1573.5C 4136.57,1570.2 4134.9,1566.54 4134,1562.5C 4119.84,1542.85 4106.17,1522.85 4093,1502.5C 4058.76,1462.31 4018.26,1430.15 3971.5,1406C 3972.5,1403 3974.5,1401 3977.5,1400C 3990.2,1399.34 4002.2,1402 4013.5,1408C 4027.87,1414.51 4041.54,1422.01 4054.5,1430.5 Z"/></g>
<g><path style="opacity:0.995" fill="#056939" d="M 4210.5,1382.5 C 4210.5,1389.83 4210.5,1397.17 4210.5,1404.5C 4184.17,1437.83 4165.83,1475.16 4155.5,1516.5C 4153.76,1523.98 4152.26,1531.65 4151,1539.5C 4150.5,1543.49 4150.33,1547.49 4150.5,1551.5C 4151.35,1556.78 4151.18,1562.11 4150,1567.5C 4149.58,1569.43 4148.41,1570.43 4146.5,1570.5C 4142.88,1568.71 4140.05,1566.05 4138,1562.5C 4129.96,1543.42 4119.63,1525.75 4107,1509.5C 4070.22,1466.37 4026.72,1431.87 3976.5,1406C 3982.72,1404.42 3989.06,1404.09 3995.5,1405C 4015.95,1411.65 4035.62,1420.15 4054.5,1430.5C 4077.25,1442.93 4098.91,1456.93 4119.5,1472.5C 4122.64,1475.47 4125.98,1478.3 4129.5,1481C 4132.21,1481.33 4134.87,1480.99 4137.5,1480C 4150.9,1458.68 4164.9,1437.84 4179.5,1417.5C 4189.47,1405.53 4199.8,1393.86 4210.5,1382.5 Z"/></g>
<g><path style="opacity:0.921" fill="#35a448" d="M 4179.5,1417.5 C 4164.9,1437.84 4150.9,1458.68 4137.5,1480C 4134.87,1480.99 4132.21,1481.33 4129.5,1481C 4125.98,1478.3 4122.64,1475.47 4119.5,1472.5C 4126.11,1474.06 4132.45,1473.22 4138.5,1470C 4150.5,1451.17 4164.17,1433.67 4179.5,1417.5 Z"/></g>
<g><path style="opacity:0.72" fill="#309e46" d="M 4155.5,1516.5 C 4154.28,1528.37 4152.61,1540.03 4150.5,1551.5C 4150.33,1547.49 4150.5,1543.49 4151,1539.5C 4152.26,1531.65 4153.76,1523.98 4155.5,1516.5 Z"/></g>
</svg>
